<svg xmlns="http://www.w3.org/2000/svg" viewBox="0 0 165.49 168.18"><defs><style>.cls-1{font-size:20px;font-family:RistrettoSlabPro-Regular, RistrettoSlabPro Regular;letter-spacing:0.02em;}.cls-1,.cls-4,.cls-9{fill:#343436;}.cls-2{letter-spacing:0.03em;}.cls-3{letter-spacing:0.03em;}.cls-4{font-size:12px;font-family:NexaRustScriptL-0, "NexaRustScriptL 0";}.cls-5{letter-spacing:-0.01em;}.cls-6{letter-spacing:0em;}.cls-7{letter-spacing:0em;}.cls-8{letter-spacing:-0.01em;}.cls-10{fill:#e2e2e2;}.cls-11{fill:#d7e2e2;}</style></defs><g id="Capa_2" data-name="Capa 2"><g id="Objects"><text class="cls-1" transform="translate(14.73 163.18)">A<tspan class="cls-2" x="12.66" y="0">MERI</tspan><tspan class="cls-3" x="56.12" y="0">C</tspan><tspan class="cls-2" x="68.3" y="0">ANO</tspan></text><text class="cls-4" transform="translate(111.92 16.56)"><tspan xml:space="preserve">    Esp</tspan><tspan class="cls-5" x="27.66" y="0">r</tspan><tspan class="cls-6" x="31.46" y="0">esso</tspan><tspan x="0" y="10.37">Hot </tspan><tspan class="cls-7" x="20.93" y="10.37">wa</tspan><tspan class="cls-8" x="35.45" y="10.37">t</tspan><tspan x="39.35" y="10.37">er</tspan></text><path class="cls-9" d="M0,43.56a16.61,16.61,0,0,1,3.29-4,24.83,24.83,0,0,1,4.28-3,51,51,0,0,1,9.64-3.83A79.87,79.87,0,0,1,27.33,30.5a80.74,80.74,0,0,1,10.3-.9c-3.42.41-6.83.88-10.2,1.52a97.39,97.39,0,0,0-10,2.43,56.58,56.58,0,0,0-9.57,3.62A21.35,21.35,0,0,0,0,43.56Z"/><path class="cls-9" d="M144.85,96.37A10.14,10.14,0,0,1,143,99.73a17.94,17.94,0,0,1-5.9,4.81q-.85.42-1.74.78a17.36,17.36,0,0,1-1.83.54c1.12-.61,2.21-1.21,3.25-1.88a35.86,35.86,0,0,0,3-2.18,32.21,32.21,0,0,0,2.73-2.5A17,17,0,0,0,144.85,96.37Z"/><path class="cls-10" d="M129.24,56V55.6c0,.85-.1,5.93-.56,10,.29,0,14.1,0,10.2,14.64a19.54,19.54,0,0,1-17.67,14.92,50.32,50.32,0,0,1-5.45,9.92c4.88.18,24.91-.45,31.05-22C153.64,59.17,133.19,56.36,129.24,56Z"/><path class="cls-9" d="M129.24,56V55.6h0c.05,3.35,0,6.7-.29,10.06l-.29-.33a14.88,14.88,0,0,1,5.77,1.14,9.33,9.33,0,0,1,4.48,3.94,12.57,12.57,0,0,1,.64,1.4l.41,1.47c.08.5.11,1,.17,1.5a6.94,6.94,0,0,1,0,1.51l-.09,1.49-.28,1.46c-.1.49-.16,1-.3,1.46l-.44,1.41-.22.71-.28.69L138,84.89c-.21.44-.47.87-.71,1.31a8.39,8.39,0,0,1-.79,1.27,17.93,17.93,0,0,1-4.1,4.37,21.5,21.5,0,0,1-11.09,4.29l.82-.6a48.37,48.37,0,0,1-2.49,5.24q-1.39,2.52-3,4.91l-.77-1.55a33,33,0,0,0,18.38-4.8,27.16,27.16,0,0,0,7-6.48c.49-.64.88-1.34,1.33-2l.64-1,.53-1.09,1.06-2.18.81-2.28A20.25,20.25,0,0,0,146.3,82l.32-1.17.25-1.19a29.05,29.05,0,0,0,.62-4.81,17.64,17.64,0,0,0-1.94-9.29,16.37,16.37,0,0,0-6.91-6.6,23.78,23.78,0,0,0-4.56-1.84A28.33,28.33,0,0,0,129.24,56Zm0,0a25.83,25.83,0,0,1,9.65,2.36A17,17,0,0,1,146.45,65a18.72,18.72,0,0,1,2.41,9.84,30.44,30.44,0,0,1-.51,5l-.24,1.25-.3,1.23a21.64,21.64,0,0,1-.71,2.43l-.8,2.41-1.08,2.31-.54,1.16L144,91.76c-.46.71-.87,1.47-1.38,2.15a28,28,0,0,1-7.41,7,31.05,31.05,0,0,1-9.37,4,36.26,36.26,0,0,1-10.12,1.11l-1.81-.06,1-1.48a51.14,51.14,0,0,0,3-4.72,44.83,44.83,0,0,0,2.41-5l.22-.55.59-.05a19.81,19.81,0,0,0,10.19-3.77,18.37,18.37,0,0,0,6.35-8.83l.44-1.32c.15-.45.21-.91.32-1.36l.3-1.36.12-1.38a5.73,5.73,0,0,0,0-1.37c0-.45-.05-.91-.1-1.36l-.32-1.31a9,9,0,0,0-.52-1.24,8.52,8.52,0,0,0-3.87-3.68,14.18,14.18,0,0,0-5.41-1.34l-.33,0,0-.31c.43-3.3.65-6.65.84-10h0Z"/><path class="cls-10" d="M117.72,101.72A112.28,112.28,0,0,0,128.28,67.3h0c.76-4.85,1.13-10.89,1.19-11.9.28-5.07.14-8.15.14-8.15s1.16-14.36-62.41-14.36S6,47.25,6,47.25,3.83,93.43,32.56,122.52c0,0,9.22,9.9,35.25,9.9,25.73,0,34.35-9.2,34.35-9.2a28,28,0,0,0,2.39-2.23,77.7,77.7,0,0,0,6.07-7.41h0a73.49,73.49,0,0,0,7-11.52Z"/><path class="cls-9" d="M117.72,101.72a112.12,112.12,0,0,0,10.44-34.44l0-.1h.12l-.12.09c.5-3.31.8-6.65,1-10a90.8,90.8,0,0,0,.2-10v0a5.83,5.83,0,0,0-1.88-3.37,16.81,16.81,0,0,0-3.25-2.41l-1.81-.94c-.6-.32-1.26-.53-1.89-.8s-1.26-.52-1.91-.74l-2-.61a93.6,93.6,0,0,0-16.12-3.16,273.63,273.63,0,0,0-32.9-1.57,295.06,295.06,0,0,0-32.86,1.9l-4.07.54-4,.75c-.67.13-1.35.23-2,.39l-2,.49c-1.32.34-2.65.62-3.92,1.08A37.27,37.27,0,0,0,15,40.15l-1.84.8-1.73,1A12,12,0,0,0,9.85,43a9,9,0,0,0-1.41,1.26,3.18,3.18,0,0,0-.57.71,3.08,3.08,0,0,0-.47.74,3,3,0,0,0-.31.76,3,3,0,0,0-.08.36,1.3,1.3,0,0,1,0,.25l0,.2a117.89,117.89,0,0,0,1.18,19.2,124.6,124.6,0,0,0,4.08,18.83C16,97.6,21.75,109.4,30.2,119.12c3.87,5.23,9.88,8,16,10a72.45,72.45,0,0,0,19,3,86.71,86.71,0,0,0,19.3-1.35A53.42,53.42,0,0,0,93.8,128a27.17,27.17,0,0,0,8.3-4.87h0l2.34-2.18c.74-.77,1.45-1.57,2.15-2.38,1.4-1.62,2.72-3.3,4-5l0,0h.08s0,0,0,.06,0,0,0,0h-.17s0,0,0-.07h.11l0,0c1.33-1.82,2.59-3.68,3.77-5.6a57.46,57.46,0,0,0,3.27-5.9h0Zm0,0-.1.34h0a56.73,56.73,0,0,1-3.23,5.93q-1.76,2.88-3.74,5.62v0h-.08s0-.08,0-.07h.09s0,0,0,0,0,.06,0,.06h0l0,0q-1.87,2.61-4,5.06c-.7.82-1.4,1.62-2.14,2.4l-2.34,2.21h0a27.28,27.28,0,0,1-8.34,5A53.09,53.09,0,0,1,84.57,131a89.91,89.91,0,0,1-19.37,1.64A73.32,73.32,0,0,1,45.91,130a44.92,44.92,0,0,1-9.07-3.71,26,26,0,0,1-4.1-2.79A24.16,24.16,0,0,1,31,121.69c-.56-.59-1.14-1.17-1.68-1.78A91.17,91.17,0,0,1,10.6,85.83,127.3,127.3,0,0,1,6.34,66.75,120.22,120.22,0,0,1,5,47.2l0,.21A3.65,3.65,0,0,1,5.17,46a5.38,5.38,0,0,1,.45-1.16,5.12,5.12,0,0,1,.63-1A4.81,4.81,0,0,1,7,42.94a10,10,0,0,1,1.66-1.48,13.05,13.05,0,0,1,1.81-1.22l1.88-1,2-.82a34.12,34.12,0,0,1,4-1.41c1.33-.47,2.69-.75,4-1.09l2-.49c.68-.16,1.37-.26,2.05-.39l4.1-.73,4.12-.53a263.46,263.46,0,0,1,33.09-1.57,276.19,276.19,0,0,1,33,2.1,94.38,94.38,0,0,1,16.2,3.45l2,.64c.65.24,1.28.53,1.93.79s1.29.5,1.9.84l1.83,1a17.37,17.37,0,0,1,3.33,2.54,6.11,6.11,0,0,1,1.94,3.73v0c.08,3.37-.08,6.72-.32,10.07s-.58,6.69-1.1,10v.1h-.12l.12-.09A112.51,112.51,0,0,1,117.72,101.72Z"/><path class="cls-11" d="M11.67,53.1l113,0c-.32,3.51-.79,8.59-1.12,11.2l-.34,2.27A109.12,109.12,0,0,1,115,95.37c-4,3.61-23.57,6.36-47.21,6.36-23.88,0-43.14-2.8-46.79-6.47-7.63-17.39-9.09-34.75-9.35-42.16"/><path class="cls-9" d="M11.67,53.1l28.24-.39,28.24-.26,28.24-.21,28.24-.08h0a.91.91,0,0,1,.91.91v.09l-1.07,10.89c-.47,3.61-1,7.24-1.82,10.82S121,82,119.85,85.5a97.37,97.37,0,0,1-3.93,10.27l0,0a.86.86,0,0,1-.21.28,11.27,11.27,0,0,1-2.89,1.64c-.49.18-1,.38-1.46.54l-1.48.45c-2,.54-3.94,1-5.93,1.32-4,.71-8,1.18-11.94,1.55-8,.71-16,1-24,1s-16-.38-24-1.17c-4-.41-8-.93-11.91-1.68q-3-.55-5.88-1.4a27.52,27.52,0,0,1-2.88-1,9.48,9.48,0,0,1-2.72-1.66.45.45,0,0,1-.1-.14v0a103.69,103.69,0,0,1-3.73-10.25c-1.07-3.47-1.93-7-2.67-10.55A119.7,119.7,0,0,1,11.67,53.1a128,128,0,0,0,3.05,21.45c.81,3.51,1.76,7,2.9,10.42S20.07,91.75,21.51,95l-.11-.16a8.66,8.66,0,0,0,2.4,1.38,25,25,0,0,0,2.76,1c1.9.51,3.83.94,5.78,1.27,3.9.69,7.85,1.14,11.81,1.49,7.92.69,15.89.87,23.84.88s15.92-.35,23.82-1.09c4-.39,7.9-.88,11.78-1.59,1.94-.35,3.87-.78,5.74-1.31l1.39-.43c.46-.15.89-.34,1.34-.5a9.33,9.33,0,0,0,2.3-1.29l-.23.33A106.73,106.73,0,0,0,118,84.89q1.65-5.15,2.8-10.43c.77-3.52,1.37-7.07,1.85-10.66L123.72,53l.91,1-28.24-.06-28.24-.2-28.24-.25Z"/><path class="cls-9" d="M19.7,92.24c3.61,8.24,9.46,19.51,16.57,26.71.09.08,8.56,8.31,31.54,8.31,22.64,0,30.58-7.57,30.59-7.57l.15-.18.33-.27a20.27,20.27,0,0,0,1.89-1.77,68.6,68.6,0,0,0,4.67-5.56l2.51-3.49a67.88,67.88,0,0,0,4.83-8.19l.14-.45.2-.39c.67-1.31,2.27-4.92,2.88-6.28-4,3.61-24.55,6.42-48.19,6.42C43.93,99.53,23.35,95.9,19.7,92.24Z"/><path class="cls-9" d="M19.7,92.24a115.43,115.43,0,0,0,12.13,20.84,51.29,51.29,0,0,0,3.89,4.57c.34.34.7.74,1,1a12.62,12.62,0,0,0,1.16.88,25.15,25.15,0,0,0,2.54,1.53A43.54,43.54,0,0,0,51.69,125a71.88,71.88,0,0,0,11.88,1.41,111.5,111.5,0,0,0,12-.29A65.41,65.41,0,0,0,87.29,124a44.82,44.82,0,0,0,5.55-2c.89-.42,1.77-.86,2.61-1.34.41-.26.83-.5,1.22-.78.2-.13.39-.27.57-.41s.19-.14.27-.22.11-.1.42-.33l-.26.21.15-.17.06-.07.07-.06a20.85,20.85,0,0,0,2.12-2c.67-.73,1.33-1.47,2-2.23,1.28-1.52,2.49-3,3.63-4.7S108,106.66,109,105a58.45,58.45,0,0,0,2.9-5.14l-.05.12.14-.44,0-.09,0-.07c.28-.55.53-1.06.79-1.62l.77-1.66,1.5-3.34,1.52,1.1a10.24,10.24,0,0,1-3,1.66,31,31,0,0,1-3,1c-2,.55-4,1-6.08,1.32-4.07.71-8.15,1.18-12.24,1.56-8.18.74-16.39,1-24.59.89a213.89,213.89,0,0,1-24.54-1.59c-4.07-.53-8.12-1.17-12.13-2.06-2-.45-4-1-5.94-1.59a30.42,30.42,0,0,1-2.87-1.12A9,9,0,0,1,19.7,92.24Zm0,0a9.1,9.1,0,0,0,2.64,1.51,28.88,28.88,0,0,0,2.89,1c2,.56,4,1,6,1.38,4,.76,8.06,1.27,12.12,1.67a234.88,234.88,0,0,0,24.45,1Q80,98.7,92.18,97.59c4.06-.4,8.1-.89,12.09-1.62,2-.36,4-.77,5.9-1.32a25.69,25.69,0,0,0,2.81-.93,8.87,8.87,0,0,0,2.37-1.31l3.28-2.85-1.76,3.94-1.5,3.36-.77,1.68c-.25.55-.53,1.14-.81,1.68l.06-.15-.13.45,0,.06,0,.06a59.15,59.15,0,0,1-3,5.37c-1,1.74-2.23,3.42-3.42,5s-2.45,3.27-3.76,4.81c-.67.77-1.35,1.53-2.05,2.27a21.69,21.69,0,0,1-2.31,2.11l.12-.12-.14.18-.26.21c.13-.06-.07.07-.16.16l-.33.25c-.21.16-.43.32-.65.46-.44.31-.89.57-1.34.84-.91.52-1.84,1-2.78,1.41a46,46,0,0,1-5.83,2.08,67.17,67.17,0,0,1-12.07,2.09,81.69,81.69,0,0,1-24.31-1.53,44.78,44.78,0,0,1-11.49-4.2,26.57,26.57,0,0,1-2.61-1.65c-.42-.3-.83-.62-1.23-1s-.71-.76-1.07-1.14a54.39,54.39,0,0,1-3.81-4.76A108.22,108.22,0,0,1,19.7,92.24Z"/><path class="cls-11" d="M11.63,53.1c0-5,25.3-9.82,56.5-9.82s56.5,4.81,56.5,9.82-25.3,9.09-56.5,9.09-56.5-4.07-56.5-9.09"/><path class="cls-9" d="M11.63,53.1a2.36,2.36,0,0,1,.8-1.6,7.58,7.58,0,0,1,1.48-1.1,21.43,21.43,0,0,1,3.33-1.55,59.35,59.35,0,0,1,7.06-2c4.77-1.1,9.61-1.87,14.46-2.49a267.9,267.9,0,0,1,29.29-1.8,252.42,252.42,0,0,1,29.34,1.36c4.87.53,9.74,1.21,14.56,2.22A61.56,61.56,0,0,1,119.14,48a23.74,23.74,0,0,1,3.51,1.5,9.49,9.49,0,0,1,1.7,1.16,3.53,3.53,0,0,1,1.26,2.16,2.54,2.54,0,0,1-.27,1.43,3.69,3.69,0,0,1-.73,1,7.57,7.57,0,0,1-1.71,1.23A21.1,21.1,0,0,1,119.36,58a62,62,0,0,1-7.22,1.81c-4.84.93-9.71,1.53-14.59,2A287.6,287.6,0,0,1,68.21,63c-9.78-.1-19.57-.55-29.3-1.58-4.86-.56-9.71-1.24-14.5-2.25a60.39,60.39,0,0,1-7.1-1.89,22.33,22.33,0,0,1-3.37-1.47,7.51,7.51,0,0,1-1.49-1.07,2.26,2.26,0,0,1-.82-1.6,2.25,2.25,0,0,0,.87,1.54,7,7,0,0,0,1.52,1A21.4,21.4,0,0,0,17.41,57a61.46,61.46,0,0,0,7.1,1.66c4.8.85,9.64,1.39,14.5,1.79,9.71.83,19.46,1.11,29.2,1S87.69,61,97.37,60c4.83-.5,9.66-1.13,14.4-2.07a59.27,59.27,0,0,0,7-1.78,20,20,0,0,0,3.2-1.36,6.26,6.26,0,0,0,1.26-.9c.34-.34.45-.63.42-.81a1.63,1.63,0,0,0-.6-.89,7.31,7.31,0,0,0-1.32-.91,20.89,20.89,0,0,0-3.2-1.39,59.84,59.84,0,0,0-7-1.9c-4.72-1-9.54-1.72-14.36-2.27a289.05,289.05,0,0,0-29.14-1.64,270.69,270.69,0,0,0-29.18,1.24c-4.85.47-9.69,1.08-14.46,2a63.14,63.14,0,0,0-7.07,1.81A21.46,21.46,0,0,0,14,50.53a7.28,7.28,0,0,0-1.49,1A2.32,2.32,0,0,0,11.63,53.1Z"/><path class="cls-9" d="M68.07,58.56c5.9-.21,11.8-.45,17.68-.85s11.76-.9,17.58-1.77A86.15,86.15,0,0,0,112,54.33c.71-.18,1.41-.37,2.1-.6A13.38,13.38,0,0,0,116,53a.11.11,0,0,0,0,.17l-.14-.08-.23-.12c-.32-.16-.64-.32-1-.45-.67-.27-1.36-.5-2.06-.72a82.86,82.86,0,0,0-8.59-2c-2.9-.56-5.82-1-8.74-1.44a105.39,105.39,0,0,1,17.53,2.7c.72.2,1.44.41,2.15.68q.53.19,1.05.45l.26.13a1.21,1.21,0,0,1,.33.2.75.75,0,0,1-.09,1.14,12.9,12.9,0,0,1-2.15.91c-.71.25-1.43.45-2.15.64a82.23,82.23,0,0,1-8.74,1.71q-8.81,1.19-17.67,1.55C79.89,58.71,74,58.76,68.07,58.56Z"/><path class="cls-9" d="M117.3,40.08c-3.61-.85-7.24-1.53-10.89-2.12s-7.31-1.11-11-1.44-7.36-.67-11.06-.83-7.39-.21-11.09-.26c1.84-.11,3.7-.24,5.55-.29s3.71-.07,5.56,0c3.71,0,7.42.33,11.11.66s7.37.92,11,1.62A89,89,0,0,1,117.3,40.08Z"/><path class="cls-9" d="M7.33,49A7.42,7.42,0,0,1,10,45.15a17.14,17.14,0,0,1,3.81-2.36c.67-.31,1.36-.57,2-.85s1.4-.48,2.11-.68,1.41-.4,2.13-.56l2.16-.46-2.13.58c-.7.2-1.39.45-2.09.68s-1.36.53-2,.79-1.33.6-2,1a16.27,16.27,0,0,0-3.53,2.46A9.9,9.9,0,0,0,9.1,47.29a5,5,0,0,0-.79,1.79Z"/><path class="cls-9" d="M97.2,123.59a31.58,31.58,0,0,1-8.87,4.06,58.36,58.36,0,0,1-9.6,1.95l-2.44.24-2.45.13c-1.63.11-3.26.07-4.89.06s-3.26-.17-4.89-.25-3.24-.36-4.85-.57c1.63,0,3.25.15,4.87.21s3.25.06,4.87,0a89.53,89.53,0,0,0,9.69-.6,65.76,65.76,0,0,0,9.53-1.76,46.83,46.83,0,0,0,4.62-1.48A26.65,26.65,0,0,0,97.2,123.59Z"/><path class="cls-9" d="M118,61.13c0-.08,0-.16.05-.24l0-.06c.08,0,.06,0,.07,0a.69.69,0,0,1,0,.13c0,.16,0,.32,0,.48l0,1L118,64.37c-.13,1.27-.29,2.54-.45,3.82-.34,2.54-.8,5.06-1.31,7.57s-1.12,5-1.84,7.47a69.44,69.44,0,0,1-2.47,7.29l.87-3.74c.3-1.24.59-2.49.86-3.74.54-2.49,1.1-5,1.61-7.48l1.53-7.5c.25-1.25.49-2.5.72-3.76l.36-1.88.15-1C118.05,61.23,118.17,60.55,118,61.13Z"/><path class="cls-9" d="M129.4,59.76a17.39,17.39,0,0,1,7.35,1.51,12.67,12.67,0,0,1,5.78,4.94,13.5,13.5,0,0,1,1.89,7.36,24.82,24.82,0,0,1-.38,3.76l-.45,1.83c-.18.6-.37,1.19-.57,1.78a31,31,0,0,0,.63-7.35,14.26,14.26,0,0,0-2-6.86A13.29,13.29,0,0,0,136.42,62a18.6,18.6,0,0,0-3.4-1.37A21.85,21.85,0,0,0,129.4,59.76Z"/><path class="cls-9" d="M120.16,98.15c1.15-.13,2.28-.35,3.39-.58a33.41,33.41,0,0,0,3.3-.89,41.28,41.28,0,0,0,6.3-2.69,16.27,16.27,0,0,1-2.85,2,18,18,0,0,1-3.22,1.39,18.43,18.43,0,0,1-3.43.75A13.59,13.59,0,0,1,120.16,98.15Z"/><path class="cls-9" d="M39,127C8.76,99.4,8.34,49.39,8.34,49.39A15,15,0,0,1,6,47.78S6.56,79,16.33,98.56,35.39,125.56,39,127Z"/><path class="cls-9" d="M7.56,52.27a18.09,18.09,0,0,0,3.86,2.39,37.45,37.45,0,0,0,4.33,1.78c1.47.52,3,1,4.5,1.36l2.3.55,2.31.49-2.34-.33-2.34-.4c-1.54-.31-3.1-.64-4.62-1.07A38.86,38.86,0,0,1,11,55.52,18.91,18.91,0,0,1,6.71,53.2Z"/><path class="cls-9" d="M6.6,55.2l1.05.68c.32.19.64.39,1,.57.66.37,1.34.72,2,1,1.38.65,2.8,1.23,4.24,1.75s2.91,1,4.39,1.39,3,.76,4.49,1.09c-1.53-.22-3.05-.47-4.57-.78s-3-.67-4.51-1.1-3-.91-4.42-1.49c-.72-.29-1.44-.59-2.15-.93l-1-.53-.52-.29-.26-.14c-.08,0-.21-.12-.15-.1Z"/><path class="cls-9" d="M8,58.85l.23.14.12.08.23.17.45.31c.3.2.61.4.93.59.63.38,1.29.72,2,1a39.9,39.9,0,0,0,4.16,1.71c1.41.5,2.86.91,4.32,1.31l2.2.54,2.22.46-2.25-.31-2.24-.38c-1.49-.3-3-.61-4.44-1a41.79,41.79,0,0,1-4.35-1.44c-.71-.3-1.42-.6-2.11-1-.35-.17-.69-.35-1-.55l-.5-.3-.25-.15L7.58,60h0Z"/><path class="cls-9" d="M8.57,62.17l.23.13.12.09.23.17.45.32c.3.2.6.41.91.6.62.39,1.26.74,1.91,1.08a38.71,38.71,0,0,0,4.07,1.76c1.39.52,2.82.94,4.25,1.34s2.9.71,4.36,1c-1.48-.19-3-.42-4.43-.7s-2.93-.62-4.38-1A39.42,39.42,0,0,1,12,65.41c-.69-.3-1.39-.61-2.06-1-.34-.17-.67-.36-1-.56l-.85-.52Z"/><path class="cls-9" d="M9.47,66.14a4.37,4.37,0,0,1,.56.33l.45.29c.3.19.6.38.91.55.61.36,1.25.69,1.89,1a39.6,39.6,0,0,0,4,1.64c1.36.48,2.75.89,4.14,1.27s2.82.68,4.24,1c-1.44-.19-2.88-.4-4.31-.67s-2.85-.58-4.26-1a41.46,41.46,0,0,1-4.17-1.37c-.69-.28-1.37-.56-2-.89l-1-.51-.48-.26A3.39,3.39,0,0,0,9,67.31Z"/><path class="cls-9" d="M10.07,69.78c.46.23.67.4,1,.59l.9.54c.61.34,1.22.67,1.86,1a40.25,40.25,0,0,0,3.89,1.61c1.33.47,2.69.87,4.05,1.24s2.76.67,4.15,1c-1.41-.19-2.82-.39-4.22-.66s-2.79-.57-4.17-.94a40.51,40.51,0,0,1-4.08-1.34c-.67-.26-1.34-.55-2-.85l-1-.49c-.3-.15-.69-.37-.87-.45Z"/><path class="cls-9" d="M10.47,73.43a9.87,9.87,0,0,1,1,.55l.89.52c.59.33,1.2.65,1.82.94A38.51,38.51,0,0,0,18,77c1.3.46,2.62.86,4,1.22s2.69.66,4,.94c-1.38-.18-2.75-.37-4.12-.63s-2.73-.56-4.08-.92-2.68-.8-4-1.3c-.66-.25-1.3-.54-1.95-.83l-1-.46c-.3-.15-.66-.34-.86-.42Z"/><path class="cls-9" d="M11.35,77.07c.72.37,1.21.7,1.82,1s1.18.63,1.79.91a37.73,37.73,0,0,0,3.72,1.53c1.28.44,2.57.85,3.88,1.19s2.62.65,4,.93c-1.34-.17-2.69-.37-4-.62s-2.67-.55-4-.9a38.68,38.68,0,0,1-3.91-1.26c-.65-.24-1.28-.51-1.91-.79s-1.29-.63-1.8-.84Z"/><path class="cls-9" d="M12.4,80.72c.69.33,1.19.66,1.79,1s1.16.6,1.75.88c1.18.55,2.4,1.05,3.64,1.49a58.76,58.76,0,0,0,7.65,2.08,60,60,0,0,1-7.83-1.48c-1.29-.34-2.57-.75-3.83-1.22-.63-.23-1.25-.49-1.87-.76s-1.25-.59-1.77-.79Z"/><path class="cls-9" d="M13.68,84.36c1.25.63,2.29,1.24,3.47,1.78a37.84,37.84,0,0,0,3.56,1.44,58.09,58.09,0,0,0,7.47,2,58.89,58.89,0,0,1-7.65-1.44A38.57,38.57,0,0,1,16.79,87c-1.22-.43-2.48-1-3.57-1.48Z"/><path class="cls-9" d="M14,88c1.21.59,2.25,1.18,3.4,1.7s2.3,1,3.48,1.4a56.91,56.91,0,0,0,7.29,2,57.75,57.75,0,0,1-7.47-1.39c-1.23-.33-2.45-.7-3.66-1.14s-2.41-1-3.5-1.4Z"/><path class="cls-9" d="M15.29,91.65c1.18.56,2.21,1.13,3.33,1.63s2.25,1,3.4,1.36a55.78,55.78,0,0,0,7.11,2,56.68,56.68,0,0,1-7.29-1.36q-1.8-.46-3.57-1.08c-1.17-.4-2.35-.92-3.44-1.33Z"/><path class="cls-9" d="M17.12,95.3c1.14.53,2.16,1.07,3.26,1.55s2.19.92,3.32,1.32a56.7,56.7,0,0,0,6.92,1.92,55.76,55.76,0,0,1-7.1-1.32c-1.18-.3-2.34-.64-3.49-1s-2.29-.87-3.37-1.26Z"/><path class="cls-9" d="M19.17,98.94c1.1.51,2.11,1,3.18,1.49s2.14.89,3.24,1.27a57.63,57.63,0,0,0,6.75,1.88,58.6,58.6,0,0,1-6.93-1.27c-1.14-.29-2.28-.62-3.4-1s-2.24-.81-3.31-1.19Z"/><path class="cls-9" d="M20.63,102.59c1.05.48,2.06,1,3.1,1.42s2.09.85,3.16,1.22a57.64,57.64,0,0,0,6.57,1.83,57.38,57.38,0,0,1-6.74-1.22c-1.12-.28-2.23-.59-3.32-1s-2.18-.76-3.24-1.13Z"/><path class="cls-9" d="M22.33,106.23a57.89,57.89,0,0,0,6.11,2.54,57.49,57.49,0,0,0,6.39,1.78,56.91,56.91,0,0,1-6.57-1.18,63.13,63.13,0,0,1-6.4-2Z"/><path class="cls-9" d="M23.41,109.88a61.43,61.43,0,0,0,6,2.42A59.62,59.62,0,0,0,35.59,114a60.17,60.17,0,0,1-6.39-1.13A60.7,60.7,0,0,1,23,111.05Z"/><path class="cls-9" d="M25.87,113.52a57.32,57.32,0,0,0,11.84,4,58.79,58.79,0,0,1-12.3-2.82Z"/><path class="cls-9" d="M29.19,117.17A59.39,59.39,0,0,0,40.7,121a59.8,59.8,0,0,1-12-2.67Z"/><path class="cls-9" d="M32.49,120.81a60.53,60.53,0,0,0,11.18,3.69A61.06,61.06,0,0,1,32,122Z"/><path class="cls-9" d="M67.82,45.32a25.68,25.68,0,0,1-7.66-10,15.65,15.65,0,0,1-1.09-6.5,12.47,12.47,0,0,1,.63-3.34,15,15,0,0,1,1.47-3c1.19-1.84,2.51-3.38,3.46-5.06A23.31,23.31,0,0,0,66.91,12a25.25,25.25,0,0,0,.87-5.9A26.88,26.88,0,0,0,67.22,0,19.14,19.14,0,0,1,69,6a21.49,21.49,0,0,1-.19,6.4,22.21,22.21,0,0,1-2.1,6.14c-1,1.95-2.41,3.59-3.42,5.24C61.13,26.94,61,31,62,34.71S65.44,41.93,67.82,45.32Z"/><path class="cls-9" d="M71,24.07a10.28,10.28,0,0,0-2,5.05,12.84,12.84,0,0,0,.46,5.31c.54,1.72,1.34,3.45,1.82,5.33a9.66,9.66,0,0,1-.07,5.71,13.7,13.7,0,0,0-.92-5.41c-.61-1.72-1.47-3.39-2-5.27A11.68,11.68,0,0,1,68.05,29,8.61,8.61,0,0,1,71,24.07Z"/></g></g></svg>