<?xml version="1.0"?>
<svg xmlns="http://www.w3.org/2000/svg" xmlns:xlink="http://www.w3.org/1999/xlink" xmlns:svgjs="http://svgjs.com/svgjs" version="1.1" width="512" height="512" x="0" y="0" viewBox="0 0 60 40" style="enable-background:new 0 0 512 512" xml:space="preserve" class=""><g><g xmlns="http://www.w3.org/2000/svg" id="Page-1" fill="none" fill-rule="evenodd"><g id="009---Beans" fill="rgb(0,0,0)" fill-rule="nonzero"><path id="Shape" d="m19.105 25.667c0-2.991-1.109-4.411-2.393-6.054-3.7541668-4.1269662-3.7541668-10.43203382 0-14.559 1.2801703-1.36673159 2.0956679-3.10307648 2.33-4.961-.5116236-.06240475-1.0265848-.09346272-1.542-.093-8.547 0-15.5 8.521-15.5 19 0 8.995 5.131 16.533 11.99 18.49.3141221-2.1539535 1.2628001-4.1654989 2.725-5.778 1.285-1.645 2.39-3.063 2.39-6.045zm-13.105-6.667c0 .5522847-.44771525 1-1 1s-1-.4477153-1-1c0-7.6 4.058-14.339 9.867-16.377.3387354-.12484532.718464-.05742413.9935173.17639997.2750533.23382409.402725.59774631.3340387.95216162-.0686863.35441532-.323066.64429529-.665556.75843841-5.021 1.759-8.529 7.718-8.529 14.49z" fill="#006944" data-original="#000000" style="" class=""/><path id="Shape" d="m21.01.507c-.3138732 2.15432454-1.2625707 4.1662597-2.725 5.779-1.285 1.641-2.385 3.059-2.385 6.042s1.109 4.41 2.393 6.053c3.7541668 4.1269662 3.7541668 10.4320338 0 14.559-1.2801703 1.3667316-2.0956679 3.1030765-2.33 4.961.5098451.0642073 1.0231308.0972687 1.537.099 8.547 0 15.5-8.526 15.5-19 0-9-5.131-16.536-11.99-18.493z" fill="#006944" data-original="#000000" style="" class=""/><path id="Shape" d="m56.224 10.073c-1.7455431 1.2996779-3.8383511 2.0505407-6.012 2.157-2.068.254-3.855.474-5.965 2.584s-2.336 3.9-2.59 5.97c-.1054212 2.6953105-1.2344157 5.2490482-3.157 7.141-.480697.4802149-1.0001185.9200342-1.553 1.315-.4487314.321982-1.073518.2192313-1.3955-.2295-.321982-.4487314-.2192313-1.073518.2295-1.3955.46496-.3318174.9017728-.7014025 1.306-1.105 2.116-2.112 2.336-3.9 2.59-5.969.2630535-5.5759398 4.7240602-10.0369465 10.3-10.3 1.8720052-.0613268 3.6768289-.71228129 5.157-1.86-.3207617-.40638186-.6660727-.79276954-1.034-1.157-5.353-5.343-14.654-5.131-21.929.368 1.8757339 3.5087303 2.8479984 7.4294066 2.829 11.408.1010983 6.0541286-2.2113927 11.899582-6.427 16.246 6.271 4.74 16.158 3.269 23.05-3.623 6.355-6.359 8.059-15.314 4.601-21.55zm-6.015 20.133c-3.4093437 3.5725011-8.0852954 5.6632307-13.021 5.822-.5522847 0-1-.4477153-1-1s.4477153-1 1-1c4.4071458-.1566918 8.576751-2.0368204 11.612-5.236.3923789-.3789722 1.0160848-.3735524 1.4018186.0121814s.3911536 1.0094397.0121814 1.4018186z" fill="#006944" data-original="#000000" style="" class=""/><path id="Shape" d="m59 40h-58c-.55228475 0-1-.4477153-1-1s.44771525-1 1-1h58c.5522847 0 1 .4477153 1 1s-.4477153 1-1 1z" fill="#006944" data-original="#000000" style="" class=""/></g></g></g></svg>
