<svg xmlns="http://www.w3.org/2000/svg" viewBox="0 0 169.47 168.18"><defs><style>.cls-1{font-size:20px;font-family:RistrettoSlabPro-Regular, RistrettoSlabPro Regular;letter-spacing:0.03em;}.cls-1,.cls-5,.cls-7{fill:#343436;}.cls-2{letter-spacing:0.03em;}.cls-3{letter-spacing:0em;}.cls-4{letter-spacing:0.03em;}.cls-5{font-size:12px;font-family:NexaRustScriptL-0, "NexaRustScriptL 0";}.cls-6{letter-spacing:-0.01em;}.cls-8{fill:#e2e2e2;}.cls-9{fill:#f4f4f4;}</style></defs><g id="Capa_2" data-name="Capa 2"><g id="Objects"><text class="cls-1" transform="translate(14.39 163.18)">C<tspan class="cls-2" x="12.18" y="0">AFÉ </tspan><tspan class="cls-3" x="50.24" y="0">C</tspan><tspan class="cls-4" x="61.92" y="0">ON LECHE</tspan></text><text class="cls-5" transform="translate(0 13.86)"><tspan xml:space="preserve">    Esp</tspan><tspan class="cls-6" x="27.66" y="0">r</tspan><tspan x="31.46" y="0">esso</tspan><tspan x="0" y="10.37" xml:space="preserve"> Hot milk</tspan></text><path class="cls-7" d="M21.44,43.65a16.6,16.6,0,0,1,3.3-4,24.37,24.37,0,0,1,4.27-3,51.32,51.32,0,0,1,9.65-3.83A77.66,77.66,0,0,1,48.77,30.6a79.26,79.26,0,0,1,10.3-.9c-3.42.41-6.82.88-10.19,1.52a97.53,97.53,0,0,0-10,2.42,58.34,58.34,0,0,0-9.57,3.62A21.53,21.53,0,0,0,21.44,43.65Z"/><path class="cls-7" d="M166.29,96.47a9.84,9.84,0,0,1-1.81,3.35,17.36,17.36,0,0,1-2.69,2.73,17.73,17.73,0,0,1-3.2,2.08c-.58.29-1.16.55-1.75.78A14.6,14.6,0,0,1,155,106c1.11-.6,2.2-1.2,3.24-1.88a32.33,32.33,0,0,0,3-2.18A30.64,30.64,0,0,0,164,99.4,16.89,16.89,0,0,0,166.29,96.47Z"/><path class="cls-8" d="M149.84,56V55.6c0,.85-.1,5.93-.56,10,.29,0,14.1,0,10.2,14.64a19.54,19.54,0,0,1-17.67,14.92,50.68,50.68,0,0,1-5.44,9.92c4.87.18,24.9-.45,31-22C174.24,59.17,153.79,56.36,149.84,56Z"/><path class="cls-7" d="M149.84,56V55.6h0c0,3.35,0,6.7-.28,10.06l-.3-.33a14.88,14.88,0,0,1,5.77,1.14,9.28,9.28,0,0,1,4.48,3.94,9.76,9.76,0,0,1,.64,1.4l.41,1.47c.08.5.12,1,.17,1.5a6.94,6.94,0,0,1,0,1.51l-.09,1.49-.28,1.46c-.1.49-.16,1-.3,1.46l-.44,1.41-.21.71-.29.69-.58,1.38c-.22.44-.48.87-.72,1.31a8.39,8.39,0,0,1-.79,1.27,17.74,17.74,0,0,1-4.1,4.37,21.47,21.47,0,0,1-11.09,4.29l.82-.6a48.37,48.37,0,0,1-2.49,5.24,55.5,55.5,0,0,1-3,4.91l-.77-1.55a33,33,0,0,0,18.38-4.8,27.16,27.16,0,0,0,7-6.48c.49-.64.88-1.34,1.33-2l.65-1,.52-1.09,1.06-2.18.81-2.28A20.25,20.25,0,0,0,166.9,82l.32-1.17.25-1.19a29.05,29.05,0,0,0,.62-4.81,17.73,17.73,0,0,0-1.93-9.29,16.45,16.45,0,0,0-6.92-6.6,23.78,23.78,0,0,0-4.56-1.84A28.33,28.33,0,0,0,149.84,56Zm0,0a25.78,25.78,0,0,1,9.65,2.36A17,17,0,0,1,167.05,65a18.72,18.72,0,0,1,2.41,9.84,29.41,29.41,0,0,1-.51,5l-.24,1.25-.3,1.23a21.64,21.64,0,0,1-.71,2.43l-.8,2.41-1.08,2.31-.54,1.16-.67,1.09c-.46.71-.87,1.47-1.38,2.15a27.86,27.86,0,0,1-7.41,7,31.05,31.05,0,0,1-9.37,4,36.26,36.26,0,0,1-10.12,1.11l-1.8-.06,1-1.48a51.14,51.14,0,0,0,3-4.72,44.83,44.83,0,0,0,2.41-5l.22-.55.6-.05a19.81,19.81,0,0,0,10.18-3.77,18.37,18.37,0,0,0,6.35-8.83l.44-1.32c.15-.45.21-.91.32-1.36l.3-1.36.13-1.38a5.72,5.72,0,0,0,0-1.37c0-.45,0-.91-.1-1.36l-.32-1.31a10.4,10.4,0,0,0-.51-1.24,8.6,8.6,0,0,0-3.88-3.68,14.18,14.18,0,0,0-5.4-1.34l-.34,0,0-.31c.43-3.3.66-6.65.84-10h0Z"/><path class="cls-8" d="M138.32,101.72A112.28,112.28,0,0,0,148.88,67.3h0c.76-4.85,1.14-10.89,1.19-11.9.28-5.07.14-8.15.14-8.15s1.16-14.36-62.41-14.36-61.2,14.36-61.2,14.36-2.18,46.18,26.55,75.27c0,0,9.22,9.9,35.26,9.9,25.72,0,34.35-9.2,34.35-9.2a26.48,26.48,0,0,0,2.38-2.23,77.7,77.7,0,0,0,6.07-7.41h0a73.49,73.49,0,0,0,7-11.52Z"/><path class="cls-7" d="M138.32,101.72a112.42,112.42,0,0,0,10.45-34.44v-.1h.12l-.12.09c.5-3.31.8-6.65,1-10a93.32,93.32,0,0,0,.19-10v0a5.88,5.88,0,0,0-1.88-3.37,17.18,17.18,0,0,0-3.26-2.41l-1.81-.94c-.6-.32-1.26-.53-1.89-.8s-1.26-.52-1.9-.74l-2-.61a93.41,93.41,0,0,0-16.12-3.16,273.63,273.63,0,0,0-32.9-1.57,295.06,295.06,0,0,0-32.86,1.9l-4.06.54-4,.75c-.67.13-1.35.23-2,.39l-2,.49c-1.31.34-2.65.62-3.92,1.08a37.27,37.27,0,0,0-3.8,1.37l-1.84.8-1.73,1A12,12,0,0,0,30.45,43,9,9,0,0,0,29,44.27a3.18,3.18,0,0,0-.57.71,3.42,3.42,0,0,0-.47.74,3.47,3.47,0,0,0-.31.76,3,3,0,0,0-.08.36c0,.1,0,.27,0,.25v.2a117.89,117.89,0,0,0,1.18,19.2,124.6,124.6,0,0,0,4.08,18.83c3.72,12.28,9.49,24.08,18,33.8,3.86,5.23,9.87,8,16,10a72.46,72.46,0,0,0,19,3,86.62,86.62,0,0,0,19.29-1.35,53.42,53.42,0,0,0,9.29-2.7,27,27,0,0,0,8.3-4.87h0l2.35-2.18c.73-.77,1.44-1.57,2.14-2.38q2.1-2.43,4-5v0h.08s0,0,0,.06,0,0,0,0h-.16s0,0,0,0,0,0,0-.07h.11l0,0c1.32-1.82,2.58-3.68,3.77-5.6a59.34,59.34,0,0,0,3.26-5.9h0Zm0,0-.1.34h0A56.73,56.73,0,0,1,135,108c-1.17,1.92-2.42,3.79-3.73,5.62l0,0h-.08s0-.08,0-.07h.09l0,0c0,.06,0,.06,0,.06h0l0,0q-1.87,2.61-4,5.06c-.69.82-1.4,1.62-2.14,2.4l-2.34,2.21h0a27.28,27.28,0,0,1-8.34,5,53.09,53.09,0,0,1-9.32,2.77,89.85,89.85,0,0,1-19.37,1.64A73.19,73.19,0,0,1,66.52,130a45,45,0,0,1-9.08-3.71,26,26,0,0,1-4.1-2.79,24.16,24.16,0,0,1-1.75-1.76c-.56-.59-1.14-1.17-1.68-1.78a91.15,91.15,0,0,1-18.7-34.08,126.11,126.11,0,0,1-4.27-19.08A119.1,119.1,0,0,1,25.63,47.2v.21A3.45,3.45,0,0,1,25.78,46a5.36,5.36,0,0,1,.44-1.16,5.64,5.64,0,0,1,.63-1,4.81,4.81,0,0,1,.73-.88,10.07,10.07,0,0,1,1.67-1.48,12.4,12.4,0,0,1,1.8-1.22l1.88-1,2-.82a34.12,34.12,0,0,1,4-1.41c1.33-.47,2.69-.75,4-1.09l2-.49c.67-.16,1.36-.26,2-.39l4.1-.73,4.12-.53a263.46,263.46,0,0,1,33.09-1.57,276.36,276.36,0,0,1,33,2.1,94.78,94.78,0,0,1,16.2,3.45l2,.64c.65.24,1.28.53,1.93.79s1.29.5,1.9.84l1.83,1a17.06,17.06,0,0,1,3.33,2.54,6.11,6.11,0,0,1,1.94,3.73v0c.07,3.37-.08,6.72-.33,10.07s-.58,6.69-1.09,10l0,.1h-.12l.12-.09A112.24,112.24,0,0,1,138.32,101.72Z"/><path class="cls-9" d="M32.27,53.1l113,0c-.31,3.51-.79,8.59-1.12,11.2l-.33,2.27a109.88,109.88,0,0,1-8.15,28.82c-4,3.61-23.58,6.36-47.21,6.36-23.89,0-43.14-2.8-46.8-6.47C34,77.87,32.53,60.51,32.27,53.1"/><path class="cls-7" d="M32.27,53.1l28.24-.39,28.24-.26L117,52.24l28.24-.08h0a.91.91,0,0,1,.91.91v.09l-1.06,10.89c-.47,3.61-1.06,7.24-1.83,10.82s-1.69,7.13-2.8,10.63a97.37,97.37,0,0,1-3.93,10.27l0,0a.86.86,0,0,1-.21.28,11.27,11.27,0,0,1-2.89,1.64c-.49.18-1,.38-1.46.54l-1.48.45c-2,.54-3.94,1-5.93,1.32-4,.71-8,1.18-11.94,1.55-8,.71-16,1-24,1s-16-.38-24-1.17c-4-.41-8-.93-11.91-1.68-2-.37-3.94-.84-5.88-1.4a28.37,28.37,0,0,1-2.88-1,9.62,9.62,0,0,1-2.72-1.66.45.45,0,0,1-.1-.14v0a103.69,103.69,0,0,1-3.73-10.25c-1.07-3.47-1.93-7-2.67-10.55A120.6,120.6,0,0,1,32.27,53.1a128,128,0,0,0,3,21.45c.81,3.51,1.76,7,2.9,10.42S40.67,91.75,42.11,95L42,94.88a8.66,8.66,0,0,0,2.4,1.38,25.69,25.69,0,0,0,2.76,1c1.9.51,3.83.94,5.78,1.27,3.9.69,7.85,1.14,11.81,1.49,7.93.69,15.89.87,23.84.88s15.92-.35,23.83-1.09c4-.39,7.89-.88,11.77-1.59,2-.35,3.87-.78,5.74-1.31l1.39-.43c.46-.15.89-.34,1.34-.5A9.59,9.59,0,0,0,135,94.65l-.24.33a106.73,106.73,0,0,0,3.83-10.09q1.65-5.15,2.8-10.43c.77-3.52,1.37-7.07,1.85-10.66L144.32,53l.91,1L117,53.93l-28.24-.2-28.24-.25Z"/><path class="cls-7" d="M40.3,92.24c3.61,8.24,9.47,19.51,16.58,26.71.08.08,8.55,8.31,31.54,8.31,22.63,0,30.57-7.57,30.58-7.57l.15-.18.33-.27a20.27,20.27,0,0,0,1.89-1.77,68.6,68.6,0,0,0,4.67-5.56l2.51-3.49a68.32,68.32,0,0,0,4.84-8.19l.13-.45.2-.39c.67-1.31,2.27-4.92,2.88-6.28-4,3.61-24.55,6.42-48.18,6.42C64.53,99.53,44,95.9,40.3,92.24Z"/><path class="cls-7" d="M40.3,92.24a115.43,115.43,0,0,0,12.13,20.84,54.85,54.85,0,0,0,3.89,4.57c.34.34.71.74,1,1a12.48,12.48,0,0,0,1.15.88A25.15,25.15,0,0,0,61,121.1,43.54,43.54,0,0,0,72.29,125a71.88,71.88,0,0,0,11.89,1.41,111.37,111.37,0,0,0,12-.29A65.25,65.25,0,0,0,107.89,124a45,45,0,0,0,5.56-2c.88-.42,1.76-.86,2.6-1.34.41-.26.83-.5,1.22-.78.2-.13.39-.27.57-.41l.28-.22c.1-.08.1-.1.41-.33l-.25.21.14-.17.06-.07.07-.06a20.85,20.85,0,0,0,2.12-2c.67-.73,1.33-1.47,2-2.23a59.36,59.36,0,0,0,3.63-4.7c1.18-1.62,2.29-3.24,3.33-4.94a56,56,0,0,0,2.9-5.14l0,.12.13-.44,0-.09,0-.07c.28-.55.53-1.06.79-1.62l.77-1.66,1.51-3.34,1.51,1.1a10.24,10.24,0,0,1-3,1.66,31,31,0,0,1-3,1c-2,.55-4.05,1-6.08,1.32C121.12,98.49,117,99,113,99.34c-8.18.74-16.39,1-24.59.89a214,214,0,0,1-24.54-1.59c-4.07-.53-8.12-1.17-12.12-2.06-2-.45-4-1-5.94-1.59a28.44,28.44,0,0,1-2.87-1.12A8.94,8.94,0,0,1,40.3,92.24Zm0,0a9.1,9.1,0,0,0,2.64,1.51,28.88,28.88,0,0,0,2.89,1c2,.56,4,1,6,1.38,4,.76,8.06,1.27,12.13,1.67a234.58,234.58,0,0,0,24.44,1c8.16-.09,16.32-.49,24.43-1.24,4-.4,8.09-.89,12.08-1.62,2-.36,4-.77,5.9-1.32a25.69,25.69,0,0,0,2.81-.93A9.1,9.1,0,0,0,136,92.41l3.27-2.85-1.76,3.94L136,96.86l-.77,1.68c-.25.55-.53,1.14-.81,1.68l.06-.15-.13.45,0,.06,0,.06a56.82,56.82,0,0,1-3,5.37c-1,1.74-2.23,3.42-3.42,5s-2.45,3.27-3.76,4.81c-.67.77-1.35,1.53-2,2.27a21.78,21.78,0,0,1-2.32,2.11l.13-.12-.15.18-.26.21c.13-.06-.07.07-.16.16l-.32.25c-.22.16-.44.32-.66.46-.44.31-.89.57-1.34.84-.91.52-1.84,1-2.78,1.41a45.47,45.47,0,0,1-5.83,2.08,67,67,0,0,1-12.07,2.09A81.69,81.69,0,0,1,72,126.27a44.78,44.78,0,0,1-11.49-4.2,26.57,26.57,0,0,1-2.61-1.65c-.42-.3-.83-.62-1.23-1s-.71-.76-1.07-1.14a54.39,54.39,0,0,1-3.81-4.76A108.75,108.75,0,0,1,40.3,92.24Z"/><path class="cls-9" d="M32.23,53.1c0-5,25.3-9.82,56.5-9.82s56.5,4.81,56.5,9.82-25.3,9.09-56.5,9.09-56.5-4.07-56.5-9.09"/><path class="cls-7" d="M32.23,53.1A2.33,2.33,0,0,1,33,51.5a7.23,7.23,0,0,1,1.47-1.1,21.87,21.87,0,0,1,3.33-1.55,59.35,59.35,0,0,1,7.06-2c4.77-1.1,9.61-1.87,14.46-2.49a268.05,268.05,0,0,1,29.29-1.8A252.32,252.32,0,0,1,118,43.88c4.87.53,9.74,1.21,14.56,2.22A61,61,0,0,1,139.74,48a23.85,23.85,0,0,1,3.52,1.5A9.8,9.8,0,0,1,145,50.68a3.53,3.53,0,0,1,1.26,2.16,2.62,2.62,0,0,1-.26,1.43,3.71,3.71,0,0,1-.74,1,7.57,7.57,0,0,1-1.71,1.23A21.1,21.1,0,0,1,140,58a61.47,61.47,0,0,1-7.22,1.81c-4.84.93-9.71,1.53-14.59,2A287.48,287.48,0,0,1,88.81,63c-9.78-.1-19.56-.55-29.3-1.58-4.86-.56-9.71-1.24-14.5-2.25a59.72,59.72,0,0,1-7.09-1.89,21.48,21.48,0,0,1-3.37-1.47,7.29,7.29,0,0,1-1.5-1.07,2.3,2.3,0,0,1-.82-1.6,2.25,2.25,0,0,0,.87,1.54,7,7,0,0,0,1.52,1A21.4,21.4,0,0,0,38,57a61.46,61.46,0,0,0,7.1,1.66c4.8.85,9.65,1.39,14.5,1.79,9.71.83,19.46,1.11,29.2,1S108.29,61,118,60c4.84-.5,9.66-1.13,14.4-2.07a59.27,59.27,0,0,0,7-1.78,19.6,19.6,0,0,0,3.2-1.36,6.26,6.26,0,0,0,1.26-.9c.34-.34.45-.63.42-.81a1.58,1.58,0,0,0-.6-.89,7.31,7.31,0,0,0-1.32-.91,20.89,20.89,0,0,0-3.2-1.39,59.84,59.84,0,0,0-6.95-1.9c-4.72-1-9.53-1.72-14.36-2.27a289.05,289.05,0,0,0-29.14-1.64,270.69,270.69,0,0,0-29.18,1.24c-4.85.47-9.69,1.08-14.46,2a63.14,63.14,0,0,0-7.07,1.81,21.46,21.46,0,0,0-3.36,1.4,7.28,7.28,0,0,0-1.49,1A2.32,2.32,0,0,0,32.23,53.1Z"/><path class="cls-7" d="M88.67,58.56c5.91-.21,11.8-.45,17.68-.85s11.76-.9,17.58-1.77a86.15,86.15,0,0,0,8.65-1.61c.71-.18,1.42-.37,2.1-.6a13.07,13.07,0,0,0,1.94-.77.11.11,0,0,0,0,.17l-.14-.08-.23-.12c-.31-.16-.64-.32-1-.45-.67-.27-1.36-.5-2.06-.72a82.86,82.86,0,0,0-8.59-2c-2.9-.56-5.82-1-8.73-1.44a105.28,105.28,0,0,1,17.52,2.7c.72.2,1.44.41,2.15.68q.52.19,1.05.45l.26.13a1.21,1.21,0,0,1,.33.2.75.75,0,0,1-.08,1.14,13.35,13.35,0,0,1-2.16.91c-.71.25-1.43.45-2.15.64a81.75,81.75,0,0,1-8.74,1.71q-8.8,1.19-17.67,1.55C100.49,58.71,94.58,58.76,88.67,58.56Z"/><path class="cls-7" d="M137.9,40.08c-3.6-.85-7.24-1.53-10.89-2.12s-7.31-1.11-11-1.44-7.36-.67-11-.83-7.4-.21-11.1-.26c1.85-.11,3.7-.24,5.55-.29s3.71-.07,5.56,0c3.72,0,7.42.33,11.12.66s7.36.92,11,1.62A88.57,88.57,0,0,1,137.9,40.08Z"/><path class="cls-7" d="M27.93,49a7.42,7.42,0,0,1,2.66-3.81,17.14,17.14,0,0,1,3.81-2.36c.67-.31,1.37-.57,2.05-.85s1.4-.48,2.11-.68,1.42-.4,2.13-.56l2.16-.46-2.12.58c-.71.2-1.4.45-2.1.68s-1.36.53-2,.79-1.33.6-2,1a16.52,16.52,0,0,0-3.53,2.46,9.9,9.9,0,0,0-1.39,1.59,5,5,0,0,0-.78,1.79Z"/><path class="cls-7" d="M117.8,123.59a31.58,31.58,0,0,1-8.87,4.06,58.15,58.15,0,0,1-9.6,1.95l-2.44.24-2.45.13c-1.63.11-3.26.07-4.89.06s-3.26-.17-4.88-.25-3.24-.36-4.86-.57c1.63,0,3.25.15,4.88.21s3.24.06,4.86,0a89.53,89.53,0,0,0,9.69-.6,65.26,65.26,0,0,0,9.53-1.76,46.83,46.83,0,0,0,4.62-1.48A26.65,26.65,0,0,0,117.8,123.59Z"/><path class="cls-7" d="M138.59,61.13a2.1,2.1,0,0,1,.06-.24.14.14,0,0,1,0-.06c.08,0,.07,0,.08,0s0,.09,0,.13,0,.32,0,.48l0,1-.14,1.92c-.13,1.27-.29,2.54-.45,3.82-.34,2.54-.8,5.06-1.31,7.57s-1.12,5-1.84,7.47a67.21,67.21,0,0,1-2.47,7.29l.87-3.74c.31-1.24.59-2.49.86-3.74.54-2.49,1.1-5,1.61-7.48l1.53-7.5c.25-1.25.49-2.5.72-3.76l.36-1.88.15-1C138.66,61.23,138.77,60.55,138.59,61.13Z"/><path class="cls-7" d="M150,59.76a17.39,17.39,0,0,1,7.35,1.51,12.75,12.75,0,0,1,5.79,4.94A13.58,13.58,0,0,1,165,73.57a23.61,23.61,0,0,1-.38,3.76l-.45,1.83c-.18.6-.37,1.19-.56,1.78a31,31,0,0,0,.62-7.35,14.26,14.26,0,0,0-2-6.86A13.29,13.29,0,0,0,157,62a18.31,18.31,0,0,0-3.4-1.37A21.85,21.85,0,0,0,150,59.76Z"/><path class="cls-7" d="M140.76,98.15c1.16-.13,2.28-.35,3.4-.58a34,34,0,0,0,3.29-.89,41.28,41.28,0,0,0,6.3-2.69,15.91,15.91,0,0,1-2.85,2,18,18,0,0,1-3.22,1.39,18.43,18.43,0,0,1-3.43.75A13.59,13.59,0,0,1,140.76,98.15Z"/><path class="cls-7" d="M59.56,127C29.37,99.4,28.94,49.39,28.94,49.39a15,15,0,0,1-2.37-1.61S27.16,79,36.94,98.56,56,125.56,59.56,127Z"/><path class="cls-7" d="M28.16,52.27A18.35,18.35,0,0,0,32,54.66a38.2,38.2,0,0,0,4.33,1.78c1.47.52,3,1,4.51,1.36l2.29.55,2.32.49-2.35-.33-2.33-.4c-1.55-.31-3.1-.64-4.63-1.07a38.86,38.86,0,0,1-4.53-1.52,18.64,18.64,0,0,1-4.31-2.32Z"/><path class="cls-7" d="M27.2,55.2l1.05.68c.32.19.64.39,1,.57.66.37,1.34.72,2,1,1.38.65,2.8,1.23,4.24,1.75s2.91,1,4.39,1.39,3,.76,4.49,1.09c-1.53-.22-3-.47-4.56-.78s-3-.67-4.52-1.1-3-.91-4.41-1.49c-.73-.29-1.45-.59-2.16-.93l-1.05-.53-.52-.29-.26-.14c-.08,0-.21-.12-.15-.1Z"/><path class="cls-7" d="M28.64,58.85l.23.14.12.08.23.17.45.31c.3.2.61.4.93.59.63.38,1.3.72,2,1a39.9,39.9,0,0,0,4.16,1.71c1.41.5,2.87.91,4.32,1.31l2.2.54,2.23.46-2.25-.31L41,64.52c-1.48-.3-3-.61-4.44-1a41.79,41.79,0,0,1-4.35-1.44c-.71-.3-1.42-.6-2.11-1-.35-.17-.69-.35-1-.55l-.5-.3-.25-.15L28.18,60h0Z"/><path class="cls-7" d="M29.18,62.17l.22.13.13.09.23.17.44.32c.3.2.6.41.91.6.62.39,1.26.74,1.92,1.08a37.67,37.67,0,0,0,4.06,1.76c1.39.52,2.82.94,4.25,1.34s2.9.71,4.36,1c-1.48-.19-3-.42-4.43-.7s-2.93-.62-4.37-1a38.84,38.84,0,0,1-4.28-1.51c-.69-.3-1.38-.61-2.06-1-.34-.17-.67-.36-1-.56l-.85-.52Z"/><path class="cls-7" d="M30.08,66.14a4.9,4.9,0,0,1,.55.33l.45.29c.3.19.6.38.91.55.61.36,1.25.69,1.89,1a39.6,39.6,0,0,0,4,1.64c1.36.48,2.75.89,4.14,1.27s2.82.68,4.24,1c-1.44-.19-2.88-.4-4.31-.67s-2.85-.58-4.26-1a42.31,42.31,0,0,1-4.17-1.37c-.68-.28-1.36-.56-2-.89l-1-.51L30,67.52a3.39,3.39,0,0,0-.39-.21Z"/><path class="cls-7" d="M30.68,69.78c.45.23.66.4,1,.59l.89.54c.61.34,1.22.67,1.86,1a41.32,41.32,0,0,0,3.89,1.61c1.33.47,2.69.87,4,1.24s2.76.67,4.15,1c-1.41-.19-2.82-.39-4.21-.66s-2.8-.57-4.17-.94A39.87,39.87,0,0,1,34,72.74c-.67-.26-1.33-.55-2-.85l-1-.49c-.3-.15-.68-.37-.87-.45Z"/><path class="cls-7" d="M31.07,73.43A9.87,9.87,0,0,1,32,74l.89.52c.6.33,1.2.65,1.82.94A38.51,38.51,0,0,0,38.56,77c1.3.46,2.62.86,4,1.22s2.69.66,4,.94c-1.37-.18-2.75-.37-4.12-.63s-2.73-.56-4.08-.92-2.68-.8-4-1.3c-.65-.25-1.3-.54-1.94-.83l-1-.46c-.29-.15-.65-.34-.86-.42Z"/><path class="cls-7" d="M32,77.07c.72.37,1.21.7,1.82,1s1.18.63,1.79.91a37.9,37.9,0,0,0,3.73,1.53c1.27.44,2.56.85,3.87,1.19s2.63.65,4,.93c-1.34-.17-2.69-.37-4-.62s-2.67-.55-4-.9a38.68,38.68,0,0,1-3.91-1.26c-.65-.24-1.28-.51-1.91-.79s-1.29-.63-1.79-.84Z"/><path class="cls-7" d="M33,80.72c.69.33,1.2.66,1.79,1s1.16.6,1.75.88c1.18.55,2.4,1.05,3.64,1.49a58.76,58.76,0,0,0,7.65,2.08A60,60,0,0,1,40,84.66c-1.29-.34-2.57-.75-3.83-1.22-.63-.23-1.25-.49-1.87-.76s-1.25-.59-1.77-.79Z"/><path class="cls-7" d="M34.28,84.36c1.25.63,2.29,1.24,3.47,1.78a37,37,0,0,0,3.57,1.44,57.5,57.5,0,0,0,7.46,2,58.89,58.89,0,0,1-7.65-1.44A38.57,38.57,0,0,1,37.39,87c-1.21-.43-2.47-1-3.57-1.48Z"/><path class="cls-7" d="M34.62,88c1.22.59,2.25,1.18,3.4,1.7s2.3,1,3.49,1.4a56.32,56.32,0,0,0,7.28,2,57.75,57.75,0,0,1-7.47-1.39c-1.23-.33-2.45-.7-3.65-1.14s-2.42-1-3.51-1.4Z"/><path class="cls-7" d="M35.89,91.65c1.18.56,2.21,1.13,3.33,1.63s2.25,1,3.41,1.36a55.18,55.18,0,0,0,7.1,2,56.68,56.68,0,0,1-7.29-1.36q-1.8-.46-3.57-1.08c-1.17-.4-2.35-.92-3.44-1.33Z"/><path class="cls-7" d="M37.72,95.3c1.14.53,2.16,1.07,3.26,1.55s2.2.92,3.32,1.32a56.36,56.36,0,0,0,6.93,1.92,55.59,55.59,0,0,1-7.11-1.32c-1.17-.3-2.34-.64-3.49-1s-2.29-.87-3.37-1.26Z"/><path class="cls-7" d="M39.77,98.94c1.1.51,2.11,1,3.18,1.49s2.15.89,3.24,1.27a57.63,57.63,0,0,0,6.75,1.88A59,59,0,0,1,46,102.31c-1.14-.29-2.28-.62-3.4-1s-2.24-.81-3.3-1.19Z"/><path class="cls-7" d="M41.23,102.59c1.06.48,2.06,1,3.1,1.42s2.1.85,3.17,1.22a56.51,56.51,0,0,0,6.57,1.83,57.54,57.54,0,0,1-6.75-1.22c-1.12-.28-2.22-.59-3.32-1s-2.18-.76-3.24-1.13Z"/><path class="cls-7" d="M42.93,106.23A57.89,57.89,0,0,0,49,108.77a58.72,58.72,0,0,0,6.39,1.78,56.91,56.91,0,0,1-6.57-1.18,63.13,63.13,0,0,1-6.4-2Z"/><path class="cls-7" d="M44,109.88A61.26,61.26,0,0,0,50,112.3,59.62,59.62,0,0,0,56.19,114a57,57,0,0,1-12.64-3Z"/><path class="cls-7" d="M46.47,113.52a57.32,57.32,0,0,0,11.84,4A58.79,58.79,0,0,1,46,114.7Z"/><path class="cls-7" d="M49.8,117.17A59.29,59.29,0,0,0,61.3,121a59.8,59.8,0,0,1-12-2.67Z"/><path class="cls-7" d="M53.1,120.81a60.19,60.19,0,0,0,11.17,3.69A61.06,61.06,0,0,1,52.63,122Z"/><path class="cls-7" d="M88.42,45.32a25.68,25.68,0,0,1-7.66-10,15.65,15.65,0,0,1-1.09-6.5,12.88,12.88,0,0,1,.63-3.34,15,15,0,0,1,1.47-3c1.2-1.84,2.51-3.38,3.46-5.06A23.31,23.31,0,0,0,87.51,12a25.25,25.25,0,0,0,.87-5.9A26.88,26.88,0,0,0,87.82,0a19.14,19.14,0,0,1,1.8,6,21.83,21.83,0,0,1-.18,6.4,22.56,22.56,0,0,1-2.11,6.14c-1,1.95-2.4,3.59-3.42,5.24-2.18,3.13-2.36,7.14-1.29,10.9S86,41.93,88.42,45.32Z"/><path class="cls-7" d="M91.59,24.07a10.28,10.28,0,0,0-2,5.05A12.84,12.84,0,0,0,90,34.43c.54,1.72,1.34,3.45,1.83,5.33a9.66,9.66,0,0,1-.08,5.71,13.7,13.7,0,0,0-.92-5.41c-.6-1.72-1.47-3.39-2-5.27A11.68,11.68,0,0,1,88.65,29,8.61,8.61,0,0,1,91.59,24.07Z"/></g></g></svg>