<svg xmlns="http://www.w3.org/2000/svg" viewBox="0 0 174.41 168.19"><defs><style>.cls-1{font-size:20px;font-family:RistrettoSlabPro-Regular, RistrettoSlabPro Regular;letter-spacing:0.03em;}.cls-1,.cls-4,.cls-8{fill:#343436;}.cls-2{letter-spacing:0.03em;}.cls-3{letter-spacing:0em;}.cls-4{font-size:12px;font-family:NexaRustScriptL-0, "NexaRustScriptL 0";}.cls-5{letter-spacing:-0.01em;}.cls-6{letter-spacing:0.01em;}.cls-7{letter-spacing:-0.01em;}.cls-9{fill:#e2e2e2;}.cls-10{fill:#f4f4f4;}</style></defs><g id="Capa_2" data-name="Capa 2"><g id="Objects"><text class="cls-1" transform="translate(4.78 163.19)">C<tspan class="cls-2" x="12.18" y="0">APPU</tspan><tspan class="cls-3" x="60.64" y="0">C</tspan><tspan class="cls-2" x="72.32" y="0">CINO</tspan></text><text class="cls-4" transform="translate(115.76 115.29)"><tspan xml:space="preserve">      Esp</tspan><tspan class="cls-5" x="32.75" y="0">r</tspan><tspan x="36.55" y="0">esso</tspan><tspan x="0" y="10.37" xml:space="preserve">   </tspan><tspan class="cls-6" x="7.63" y="10.37">M</tspan><tspan x="17.42" y="10.37">ilk</tspan><tspan class="cls-6" x="0" y="20.73">M</tspan><tspan x="9.79" y="20.73">ilk </tspan><tspan class="cls-7" x="23.6" y="20.73">f</tspan><tspan x="26.95" y="20.73">oam</tspan></text><path class="cls-8" d="M.51,83.72A116.42,116.42,0,0,0,4.38,95a100.78,100.78,0,0,0,5.06,10.72,102.26,102.26,0,0,0,6.21,10.09,117.85,117.85,0,0,0,7.29,9.39,76.23,76.23,0,0,1-7.81-9A88.1,88.1,0,0,1,8.7,106.08,91,91,0,0,1,3.78,95.19,77.69,77.69,0,0,1,.51,83.72Z"/><path class="cls-8" d="M90,30.14a52.62,52.62,0,0,1,7.94.07,65.24,65.24,0,0,1,7.87,1.18,65.36,65.36,0,0,1,7.63,2.24,52.26,52.26,0,0,1,7.23,3.27c-2.46-1-4.93-1.88-7.44-2.66a76.66,76.66,0,0,0-7.6-2c-2.56-.6-5.15-1-7.76-1.36S92.61,30.3,90,30.14Z"/><path class="cls-9" d="M112.73,101.72A112.51,112.51,0,0,0,123.28,67.3h0c.75-4.85,1.13-10.89,1.19-11.9.28-5.07.13-8.15.13-8.15s1.17-14.36-62.41-14.36S1,47.25,1,47.25s-2.18,46.18,26.55,75.27c0,0,9.22,9.9,35.26,9.9,25.72,0,34.35-9.2,34.35-9.2A26.48,26.48,0,0,0,99.55,121a77.7,77.7,0,0,0,6.07-7.41h0a73.49,73.49,0,0,0,7-11.52Z"/><path class="cls-8" d="M112.73,101.72a112.4,112.4,0,0,0,10.44-34.44v-.1h.12l-.12.09c.5-3.31.8-6.65,1-10a96,96,0,0,0,.2-10v0a5.88,5.88,0,0,0-1.88-3.37,17.18,17.18,0,0,0-3.26-2.41l-1.81-.94c-.6-.32-1.26-.53-1.89-.8s-1.26-.52-1.9-.74l-2-.61A94.75,94.75,0,0,0,95.6,35.2a276,276,0,0,0-32.91-1.57,299.61,299.61,0,0,0-32.85,1.9l-4.07.55-4,.74c-.67.14-1.35.23-2,.39l-2,.5a40,40,0,0,0-3.93,1.08A32.87,32.87,0,0,0,10,40.16L8.19,41l-1.72,1A10.15,10.15,0,0,0,4.86,43a8.09,8.09,0,0,0-1.41,1.26,3.48,3.48,0,0,0-.58.7,3.92,3.92,0,0,0-.46.74,3,3,0,0,0-.31.76,3,3,0,0,0-.08.36c0,.1,0,.27,0,.24l0,.21a119,119,0,0,0,1.17,19.2A124.89,124.89,0,0,0,7.27,85.32C11,97.6,16.75,109.4,25.21,119.12c3.86,5.23,9.88,8,16,10a72,72,0,0,0,19,3,86,86,0,0,0,19.29-1.34,53.53,53.53,0,0,0,9.3-2.7,27.29,27.29,0,0,0,8.3-4.87h0L99.46,121c.73-.77,1.45-1.57,2.15-2.38q2.08-2.43,4-5v0h.08s0,0,0,.06,0,0,0,0h-.16s0,0,0,0,0,0,0-.07h.12l0,0c1.32-1.82,2.59-3.68,3.77-5.6a57.38,57.38,0,0,0,3.26-5.9h0Zm0,0-.11.34h0A58.56,58.56,0,0,1,109.4,108c-1.18,1.92-2.42,3.79-3.74,5.62l0,0h-.08s0-.08,0-.07h.1s0,0,0,0,0,.06,0,.06h0l0,0q-1.87,2.61-4,5.06-1,1.23-2.13,2.4l-2.35,2.21h0a27.28,27.28,0,0,1-8.34,5A54,54,0,0,1,79.57,131a90.48,90.48,0,0,1-19.37,1.63A73.19,73.19,0,0,1,40.92,130a45,45,0,0,1-9.08-3.71,26,26,0,0,1-4.1-2.79A24.16,24.16,0,0,1,26,121.69c-.56-.59-1.14-1.17-1.68-1.78A91.31,91.31,0,0,1,5.6,85.83,127,127,0,0,1,1.34,66.75,120.22,120.22,0,0,1,0,47.2l0,.21A3.65,3.65,0,0,1,.17,46a5.38,5.38,0,0,1,.45-1.16,5.12,5.12,0,0,1,.63-1A4.88,4.88,0,0,1,2,42.93a11.07,11.07,0,0,1,1.67-1.48,13.18,13.18,0,0,1,1.8-1.21l1.89-1,1.95-.83a38.26,38.26,0,0,1,4-1.41c1.33-.47,2.69-.75,4-1.09l2-.49c.67-.16,1.36-.25,2-.38l4.11-.73,4.12-.53a265.21,265.21,0,0,1,33.08-1.58,276.37,276.37,0,0,1,33,2.11,94.58,94.58,0,0,1,16.2,3.45l2,.64c.66.23,1.29.53,1.93.79s1.29.5,1.9.84l1.84,1a17,17,0,0,1,3.32,2.54,6.13,6.13,0,0,1,2,3.73v0c.07,3.37-.08,6.72-.32,10.07s-.59,6.69-1.1,10l0,.1h-.11l.11-.09A112.5,112.5,0,0,1,112.73,101.72Z"/><path class="cls-9" d="M124.24,56c0-.15,0-.3,0-.44,0,.85-.11,5.93-.56,10,.29,0,14.09,0,10.2,14.64a19.55,19.55,0,0,1-17.67,14.92,50.87,50.87,0,0,1-5.45,9.92c4.88.18,24.9-.45,31-22C148.65,59.17,128.19,56.36,124.24,56Z"/><path class="cls-8" d="M124.24,56V55.6h0A99.48,99.48,0,0,1,124,65.66l-.3-.33a14.88,14.88,0,0,1,5.77,1.14,9.3,9.3,0,0,1,4.49,3.94,12.57,12.57,0,0,1,.64,1.4l.41,1.47c.08.5.11,1,.17,1.5a6.93,6.93,0,0,1,0,1.51l-.08,1.49-.28,1.46a14.57,14.57,0,0,1-.31,1.46l-.43,1.42-.22.71-.28.68L133,84.89c-.21.45-.47.87-.71,1.31a10.48,10.48,0,0,1-.79,1.28,18,18,0,0,1-4.11,4.37,21.64,21.64,0,0,1-11.08,4.29l.82-.61a47.49,47.49,0,0,1-2.49,5.24,56.41,56.41,0,0,1-3,4.91l-.78-1.55a33,33,0,0,0,18.38-4.81,27,27,0,0,0,7-6.47c.49-.64.88-1.34,1.33-2l.65-1,.52-1.09,1.06-2.18.81-2.28A20.25,20.25,0,0,0,141.3,82l.32-1.17.25-1.19a29.05,29.05,0,0,0,.62-4.81,17.73,17.73,0,0,0-1.93-9.29,16.45,16.45,0,0,0-6.92-6.6,23.69,23.69,0,0,0-4.55-1.84A28.44,28.44,0,0,0,124.24,56Zm0,0a25.83,25.83,0,0,1,9.66,2.36A17.11,17.11,0,0,1,141.46,65a18.81,18.81,0,0,1,2.41,9.84,30.45,30.45,0,0,1-.52,5l-.23,1.25-.3,1.23a19.28,19.28,0,0,1-.72,2.43l-.8,2.41-1.07,2.31-.54,1.16L139,91.76c-.46.72-.87,1.47-1.38,2.16a28.17,28.17,0,0,1-7.41,7,31.42,31.42,0,0,1-9.37,4,36.75,36.75,0,0,1-10.13,1.11l-1.81-.07,1-1.48a51.14,51.14,0,0,0,3-4.72,44.83,44.83,0,0,0,2.41-5l.22-.56.6,0a19.68,19.68,0,0,0,10.18-3.76,18.37,18.37,0,0,0,6.35-8.83l.44-1.32c.15-.45.21-.91.32-1.36l.3-1.36.12-1.38a5.26,5.26,0,0,0,0-1.37c0-.45-.05-.91-.1-1.36l-.32-1.31a11.14,11.14,0,0,0-.51-1.24,8.6,8.6,0,0,0-3.88-3.68,14.13,14.13,0,0,0-5.4-1.34h-.34l0-.32c.23-1.65.38-3.31.51-5s.25-3.34.33-5h0Z"/><path class="cls-8" d="M15.48,95.26A78.06,78.06,0,0,0,31.28,119c.08.08,8.55,8.31,31.54,8.31,22.63,0,30.58-7.57,30.58-7.57l.15-.18.34-.27a21.61,21.61,0,0,0,1.89-1.77,70.61,70.61,0,0,0,4.66-5.56l2.51-3.49a67,67,0,0,0,4.84-8.19l.14-.45.2-.39c.66-1.31,1.29-2.65,1.9-4-4,3.61-23.58,6.36-47.21,6.36C38.93,101.73,19.14,98.93,15.48,95.26Z"/><path class="cls-8" d="M15.48,95.26a81.66,81.66,0,0,0,12.63,19.61c.64.73,1.3,1.44,2,2.15.33.35.68.69,1,1l.51.51a6,6,0,0,0,.52.44,25.87,25.87,0,0,0,4.94,2.89,48.25,48.25,0,0,0,11.06,3.36,87.63,87.63,0,0,0,23.16.74,59.52,59.52,0,0,0,11.35-2.14,40.15,40.15,0,0,0,5.37-2l1.28-.62c.41-.23.84-.45,1.24-.69s.8-.48,1.18-.75l.56-.4.26-.21c.09-.07.1-.1.41-.33l-.26.22.15-.18.11-.11h0c.76-.65,1.41-1.31,2.12-2s1.33-1.47,2-2.23c1.29-1.52,2.5-3,3.64-4.7S103,106.66,104,105a57.2,57.2,0,0,0,2.9-5.15l0,.13.14-.45h0l.06-.15c.38-.72.71-1.45,1.06-2.17l1-2.18,1.51,1.09a10.94,10.94,0,0,1-2.89,1.63,26.21,26.21,0,0,1-3,1q-3,.81-6,1.32c-4,.71-8,1.18-12,1.54-8,.73-16.08.93-24.12.86s-16.08-.44-24.08-1.31c-4-.45-8-1-11.93-1.78-2-.39-3.93-.86-5.86-1.44a29.17,29.17,0,0,1-2.83-1A9.22,9.22,0,0,1,15.48,95.26Zm0,0a9.11,9.11,0,0,0,2.6,1.46,28.66,28.66,0,0,0,2.85.92c1.94.49,3.9.91,5.88,1.22,4,.65,7.93,1.07,11.92,1.39,8,.61,16,.85,24,.78s16-.47,24-1.2c4-.39,7.94-.88,11.85-1.6,1.95-.35,3.89-.79,5.77-1.32a26.94,26.94,0,0,0,2.75-.94,9.42,9.42,0,0,0,2.33-1.3l.07,0a.94.94,0,0,1,1.33.16,1,1,0,0,1,.11,1L109.85,98c-.36.74-.69,1.49-1.06,2.22l.06-.16-.14.45s0,.09,0,.13a59.15,59.15,0,0,1-3,5.37c-1,1.74-2.23,3.42-3.42,5s-2.45,3.27-3.76,4.8c-.67.78-1.35,1.53-2,2.28s-1.54,1.47-2.32,2.11l.12-.12-.14.17-.26.22c.13-.06-.06.06-.15.14l-.31.25c-.21.16-.42.31-.64.45-.42.3-.86.55-1.3.82l-1.33.73-1.36.65a46.28,46.28,0,0,1-5.63,2,62.35,62.35,0,0,1-11.7,2.12,83.63,83.63,0,0,1-23.58-1.12,49.29,49.29,0,0,1-11.28-3.67,26.87,26.87,0,0,1-5.1-3.13c-.2-.17-.38-.32-.59-.52l-.5-.54c-.34-.36-.68-.72-1-1.09-.66-.73-1.3-1.48-1.93-2.24A78.38,78.38,0,0,1,15.48,95.26Z"/><path class="cls-9" d="M8.89,70.93a121.75,121.75,0,0,0,8.54,26.91c3.65,3.66,21.5,7.28,45.39,7.28,23.63,0,42.12-3.68,46.07-7.28a133.09,133.09,0,0,0,8.7-27.8c-4.6,3.07-17.81,8.2-54.78,8.2C29.2,78.24,14.87,74,8.89,70.93Z"/><path class="cls-8" d="M8.89,70.93a124.61,124.61,0,0,0,8.93,26.73l-.09-.13a15.15,15.15,0,0,0,5,2.47,53.54,53.54,0,0,0,5.6,1.46c3.79.8,7.64,1.35,11.5,1.77a205.37,205.37,0,0,0,23.27,1,204.86,204.86,0,0,0,23.24-1.38c3.85-.48,7.68-1.08,11.44-1.91,1.88-.42,3.74-.91,5.55-1.5L104.7,99c.44-.16.86-.36,1.29-.54a10.3,10.3,0,0,0,2.24-1.34l-.23.32a137.88,137.88,0,0,0,5.06-13.56,125.69,125.69,0,0,0,3.6-14l1.45,1a29.6,29.6,0,0,1-6.48,3,57.53,57.53,0,0,1-6.77,1.86A128.53,128.53,0,0,1,91.1,77.82a259.6,259.6,0,0,1-27.73,1.1l-6.93-.11c-2.31-.08-4.62-.12-6.92-.25q-6.93-.3-13.83-1.07A132.12,132.12,0,0,1,22,75.32,53,53,0,0,1,8.89,70.93Zm0,0a55.9,55.9,0,0,0,13.2,3.94,131.07,131.07,0,0,0,13.69,1.78c9.17.75,18.38,1,27.59.9S81.78,77,90.91,76.09a125.93,125.93,0,0,0,13.56-2.18A56.39,56.39,0,0,0,111,72.07a27.69,27.69,0,0,0,6-2.81l1.86-1.21-.4,2.17a125.82,125.82,0,0,1-3.58,14.25,121.19,121.19,0,0,1-5.16,13.76l-.09.21-.14.12a12.07,12.07,0,0,1-2.76,1.65c-.47.2-.93.41-1.4.59l-1.43.49a58.5,58.5,0,0,1-5.74,1.52c-3.85.84-7.74,1.42-11.63,1.89A206.82,206.82,0,0,1,63.13,106a206.05,206.05,0,0,1-23.42-1.44,116.88,116.88,0,0,1-11.59-2A57,57,0,0,1,22.44,101a28.63,28.63,0,0,1-2.76-1.14,10.67,10.67,0,0,1-2.56-1.68l-.05,0L17,98A119.06,119.06,0,0,1,8.89,70.93Z"/><path class="cls-10" d="M6.64,49.37A109.31,109.31,0,0,0,8.89,70.93c6,3.07,20.31,7.31,53.92,7.31,37,0,50.18-5.13,54.78-8.2.22-1.17.42-2.34.59-3.49l.33-2.27c.51-4,1.38-14,1.43-14.91H6.64"/><path class="cls-8" d="M6.64,49.37a100.2,100.2,0,0,0,.8,10.81c.45,3.58,1,7.15,1.78,10.68L9,70.63a54.11,54.11,0,0,0,13.11,4A130.15,130.15,0,0,0,35.8,76.45c9.16.81,18.37,1,27.57.94S81.78,77,90.91,76a126.15,126.15,0,0,0,13.55-2.18A58.23,58.23,0,0,0,111,72a27.64,27.64,0,0,0,6-2.81l-.42.64c.27-1.7.59-3.37.83-5.09s.36-3.43.54-5.15l1-10.3.94,1-28.32-.08c-9.45,0-18.89-.11-28.33-.18L35,49.79,6.64,49.37,35,49l28.33-.27c9.44-.07,18.88-.18,28.33-.18l28.32-.08h1l-.09,1-1,10.41c-.18,1.73-.3,3.48-.52,5.2s-.54,3.46-.83,5.19l-.08.42-.35.22a29.26,29.26,0,0,1-6.49,3,58.22,58.22,0,0,1-6.78,1.86A126.24,126.24,0,0,1,91.1,77.87c-9.23.91-18.48,1.22-27.73,1.21s-18.49-.43-27.7-1.39a130.42,130.42,0,0,1-13.73-2.1,53.71,53.71,0,0,1-13.2-4.37l-.14-.07,0-.16q-1-5.35-1.5-10.77A93.64,93.64,0,0,1,6.64,49.37Z"/><path class="cls-10" d="M6.64,49.37c.08-1.84,1.79-3.42,3.53-4s3.62-.73,5.33-1.42c2.75-1.09,5.16-3.65,8.09-3.22a10.75,10.75,0,0,0,2.83.51A8.94,8.94,0,0,0,29,40.09c2.59-1.16,5.59,0,8.44,0,3.46,0,6.69-1.65,10-2.59a24.65,24.65,0,0,1,15,.59,19.65,19.65,0,0,0,5.29,1.59c3.8.25,7.35-2.62,11.12-2.12,1.84.25,3.49,1.28,5.31,1.65,2.16.45,4.38,0,6.57-.14A36.37,36.37,0,0,1,100,40.24a12.6,12.6,0,0,1,2.84.86,15,15,0,0,0,1.92,1c1.53.49,3.16-.14,4.76-.25a7.33,7.33,0,0,1,5.63,2.12,6.65,6.65,0,0,0,1.51,1.35c.63.32,1.21.49,1.81.85,1.46.87,1.46,2,1.46,3.24,0,5-25.36,9.09-56.65,9.09S6.64,54.39,6.64,49.37"/><path class="cls-8" d="M6.64,49.37a4.41,4.41,0,0,1,1.81-3.18,8.27,8.27,0,0,1,3.44-1.49,23.35,23.35,0,0,0,3.58-1,25.27,25.27,0,0,0,3.22-1.83,9.8,9.8,0,0,1,3.54-1.49,5.07,5.07,0,0,1,2,.09,10.5,10.5,0,0,0,1.77.36c1.09.1,2-.84,3.3-1.31a8.93,8.93,0,0,1,3.89-.36c1.27.1,2.5.31,3.7.36a12.28,12.28,0,0,0,3.56-.39c2.36-.58,4.63-1.63,7.1-2.32a25.43,25.43,0,0,1,15.17.51c1.21.43,2.34.93,3.47,1.24a7.18,7.18,0,0,0,3.35.17c2.29-.38,4.54-1.6,7.23-2a8.65,8.65,0,0,1,4.08.4c1.26.42,2.37,1,3.46,1.19,2.18.5,4.62-.16,7.26-.17a35.31,35.31,0,0,1,7.61,1,21.13,21.13,0,0,1,3.79,1c.68.29,1.23.66,1.7.88a3,3,0,0,0,1.4.3c1,0,2.26-.39,3.69-.45A8.24,8.24,0,0,1,115.57,43c.55.49.93,1,1.28,1.26.56.48,2.27.69,3.36,2.11a3.93,3.93,0,0,1,.72,2.32v.76a2.58,2.58,0,0,1,0,.39,2.93,2.93,0,0,1-.57,1.26,8.83,8.83,0,0,1-3.5,2.35,41.92,41.92,0,0,1-7.34,2.19,137.58,137.58,0,0,1-14.91,2.25,278.67,278.67,0,0,1-30,1.36c-10-.06-20-.49-30-1.52-5-.55-9.94-1.24-14.84-2.25a63.16,63.16,0,0,1-7.27-1.9A21.86,21.86,0,0,1,9,52.07,7.83,7.83,0,0,1,7.48,51a2.27,2.27,0,0,1-.84-1.62,2.26,2.26,0,0,0,.89,1.57,8,8,0,0,0,1.57,1,21.37,21.37,0,0,0,3.47,1.32,62.86,62.86,0,0,0,7.28,1.67c4.91.86,9.87,1.39,14.83,1.79,9.94.83,19.91,1.09,29.88,1s19.93-.56,29.82-1.64a135.46,135.46,0,0,0,14.68-2.3,42,42,0,0,0,7-2.12,7.38,7.38,0,0,0,2.68-1.75,1,1,0,0,0,.21-.42s0-.05,0-.08v-.64a2.08,2.08,0,0,0-.33-1.21,2.76,2.76,0,0,0-1.11-.79,9.21,9.21,0,0,1-1.86-1c-.64-.51-1-1-1.39-1.36a6.12,6.12,0,0,0-1.32-.92,6.36,6.36,0,0,0-3.13-.74c-1.07,0-2.29.42-3.75.43a4.82,4.82,0,0,1-2.22-.49c-.65-.32-1.14-.66-1.62-.86a21.45,21.45,0,0,0-3.44-.91,34,34,0,0,0-7.21-1c-2.33,0-4.89.69-7.66.09-1.35-.32-2.51-.89-3.62-1.26A6.86,6.86,0,0,0,77,38.42c-2.28.31-4.54,1.53-7.2,2a10,10,0,0,1-2.05.1,10.07,10.07,0,0,1-2-.39c-1.27-.37-2.42-.91-3.55-1.33A24.05,24.05,0,0,0,47.86,38c-2.35.6-4.66,1.62-7.17,2.19a13.57,13.57,0,0,1-3.87.36c-1.29-.09-2.53-.31-3.74-.45a8.29,8.29,0,0,0-3.52.2,10.44,10.44,0,0,0-1.63.78,3.66,3.66,0,0,1-2,.47A10.08,10.08,0,0,1,24,41.14,4.58,4.58,0,0,0,22.31,41,9.2,9.2,0,0,0,19,42.33a27.16,27.16,0,0,1-3.34,1.76A22.47,22.47,0,0,1,12,45a8,8,0,0,0-3.42,1.32A4.35,4.35,0,0,0,6.64,49.37Z"/><path class="cls-8" d="M32.35,44.35a1.54,1.54,0,0,0,0,1.31,1.18,1.18,0,0,0,.79.66,1.86,1.86,0,0,0,1.14,0,1.16,1.16,0,0,0,.8-.94,1.21,1.21,0,0,1-.42,1.62,2.09,2.09,0,0,1-1.83.21,2,2,0,0,1-.82-.51,1.62,1.62,0,0,1-.42-.91A1.4,1.4,0,0,1,32.35,44.35Z"/><path class="cls-8" d="M38.12,44.9a1.69,1.69,0,0,1,2.49-.23,2,2,0,1,1-2.78,2.78A1.7,1.7,0,0,1,38.06,45a1.57,1.57,0,0,0,.32,1.94A1.29,1.29,0,0,0,40,46.81a1.3,1.3,0,0,0,.09-1.6A1.57,1.57,0,0,0,38.12,44.9Z"/><path class="cls-8" d="M19.81,46.94a1.05,1.05,0,0,0-.22.86,1,1,0,0,0,.42.63,1.24,1.24,0,0,0,1.31.16.85.85,0,0,0,.19-1.12A1.52,1.52,0,0,0,20,46.92a1.56,1.56,0,0,1,2.15.06,1.63,1.63,0,0,1,.44,1.24,1.56,1.56,0,0,1-.7,1.21,1.9,1.9,0,0,1-2.4-.46,1.45,1.45,0,0,1-.34-1.18A1,1,0,0,1,19.81,46.94Z"/><path class="cls-8" d="M44.71,44.9a.68.68,0,0,0-.2-.61c-.12-.12-.21-.15-.23-.13s-.11,0-.27.05a.72.72,0,0,0-.38.52.72.72,0,0,1-.26-1,1,1,0,0,1,1.89.31C45.3,44.44,45.07,44.88,44.71,44.9Z"/><path class="cls-8" d="M74.9,44.27a.73.73,0,0,0,1,.12.83.83,0,0,0,.26-.76.55.55,0,0,0-.46-.52,1,1,0,0,0-1,.48c-.19-.54.33-1.16,1-1.25a1.23,1.23,0,0,1,1,.25,1.51,1.51,0,0,1,.5.91,1.48,1.48,0,0,1-1,1.61,1.16,1.16,0,0,1-.92-.11A.72.72,0,0,1,74.9,44.27Z"/><path class="cls-8" d="M95.87,45.67a2,2,0,0,0-1,1.45,1.52,1.52,0,0,0,2,1.56A2,2,0,0,0,98,47.34a1.81,1.81,0,0,1-.79,2,1.94,1.94,0,0,1-1.23.33,2.22,2.22,0,0,1-1.92-1.5,2,2,0,0,1,0-1.27A1.82,1.82,0,0,1,95.87,45.67Z"/><path class="cls-8" d="M102.1,44.65a1,1,0,0,0-.85.76.7.7,0,0,0,.39.67.69.69,0,0,0,.74-.2,1.07,1.07,0,0,0,0-1.18,1.18,1.18,0,0,1,.7,1.53,1.39,1.39,0,1,1-2.56-1.07A1.09,1.09,0,0,1,102.1,44.65Z"/><path class="cls-8" d="M112.31,40.08c-3.61-.85-7.25-1.53-10.9-2.12s-7.31-1.11-11-1.44-7.36-.67-11-.82-7.39-.22-11.1-.27c1.85-.11,3.7-.24,5.55-.29s3.71-.07,5.57,0c3.71,0,7.41.33,11.11.66s7.37.92,11,1.62A89.18,89.18,0,0,1,112.31,40.08Z"/><path class="cls-8" d="M2.33,49A7.42,7.42,0,0,1,5,45.15,17.14,17.14,0,0,1,8.8,42.79c.67-.31,1.37-.57,2-.85s1.4-.48,2.11-.68,1.42-.4,2.14-.56l2.15-.46-2.12.58c-.71.2-1.4.45-2.09.68s-1.37.53-2,.79-1.33.6-2,1A16.52,16.52,0,0,0,5.49,45.7a9.84,9.84,0,0,0-1.38,1.59,5,5,0,0,0-.79,1.79Z"/><path class="cls-8" d="M92.2,123.59a31.45,31.45,0,0,1-8.87,4.06,58.15,58.15,0,0,1-9.6,1.95l-2.44.24-2.45.13c-1.62.11-3.26.07-4.89.06s-3.26-.17-4.88-.25-3.24-.36-4.85-.57c1.63,0,3.25.15,4.87.21s3.24.06,4.86,0a89.37,89.37,0,0,0,9.69-.6,65.26,65.26,0,0,0,9.53-1.76,46,46,0,0,0,4.62-1.48A26.65,26.65,0,0,0,92.2,123.59Z"/><path class="cls-8" d="M113.51,54.18a2,2,0,0,1,0-.24l0-.06c.07,0,.07,0,.07,0a.69.69,0,0,1,0,.13c0,.16,0,.32,0,.48l0,1-.09,1.93c-.09,1.28-.21,2.55-.35,3.83-.26,2.55-.66,5.08-1.1,7.61s-1,5-1.64,7.51a69.38,69.38,0,0,1-2.27,7.35L109,80c.27-1.25.52-2.5.76-3.75.47-2.51,1-5,1.4-7.53l1.33-7.54c.22-1.25.43-2.51.62-3.78l.31-1.89.13-.95C113.57,54.28,113.67,53.6,113.51,54.18Z"/><path class="cls-8" d="M124.41,59.76a17.31,17.31,0,0,1,7.34,1.51,12.75,12.75,0,0,1,5.79,4.94,13.58,13.58,0,0,1,1.88,7.36,22.5,22.5,0,0,1-.38,3.76l-.44,1.83c-.18.6-.37,1.19-.57,1.78a31.54,31.54,0,0,0,.63-7.35,14.27,14.27,0,0,0-2-6.86A13.23,13.23,0,0,0,131.42,62,18.5,18.5,0,0,0,128,60.58,22.32,22.32,0,0,0,124.41,59.76Z"/><path class="cls-8" d="M115.16,98.15c1.16-.13,2.28-.35,3.4-.58a33.22,33.22,0,0,0,3.29-.89A41.39,41.39,0,0,0,128.16,94a16,16,0,0,1-2.86,2,18.31,18.31,0,0,1-6.64,2.14A13.67,13.67,0,0,1,115.16,98.15Z"/><path class="cls-8" d="M34,127C3.77,99.4,3.35,49.39,3.35,49.39A14.17,14.17,0,0,1,1,47.78S1.56,79,11.34,98.56,30.39,125.56,34,127Z"/><path class="cls-8" d="M2.57,52.27a18.27,18.27,0,0,0,3.85,2.39,39,39,0,0,0,4.33,1.78c1.48.52,3,1,4.51,1.36l2.29.55,2.32.49-2.35-.33-2.33-.4c-1.55-.31-3.1-.64-4.63-1.07A39.5,39.5,0,0,1,6,55.52,18.64,18.64,0,0,1,1.72,53.2Z"/><path class="cls-8" d="M1.6,55.2l1,.68c.32.19.64.39,1,.57.65.37,1.33.72,2,1a44.77,44.77,0,0,0,4.23,1.75c1.44.53,2.91,1,4.39,1.39s3,.76,4.49,1.09c-1.52-.22-3.05-.47-4.56-.78s-3-.67-4.51-1.1-3-.91-4.42-1.49c-.72-.29-1.45-.59-2.15-.93L2.06,56.9l-.52-.29-.26-.14c-.08,0-.21-.12-.14-.1Z"/><path class="cls-8" d="M3,58.85a1.27,1.27,0,0,1,.24.14l.11.08.23.17.45.31c.31.2.61.4.93.59.64.38,1.3.72,2,1a39.73,39.73,0,0,0,4.15,1.71c1.42.5,2.87.91,4.33,1.31l2.2.54,2.22.46-2.25-.31-2.24-.38c-1.49-.3-3-.61-4.45-1a43.41,43.41,0,0,1-4.35-1.44c-.71-.3-1.42-.6-2.11-1-.34-.17-.68-.35-1-.55l-.51-.3L2.7,60.1,2.58,60s0,0,0,0Z"/><path class="cls-8" d="M3.58,62.17l.23.13.12.09.23.17.44.32c.3.2.6.41.92.6.61.39,1.26.74,1.91,1.08a38.55,38.55,0,0,0,4.06,1.76c1.39.52,2.82.94,4.26,1.34s2.89.71,4.36,1c-1.48-.19-3-.42-4.43-.7s-2.94-.62-4.38-1A38,38,0,0,1,7,65.41a22.81,22.81,0,0,1-2.06-1c-.34-.17-.68-.36-1-.56l-.84-.52Z"/><path class="cls-8" d="M4.48,66.14a4.9,4.9,0,0,1,.55.33l.45.29c.3.19.6.38.91.55.61.36,1.25.69,1.89,1a40.58,40.58,0,0,0,4,1.64c1.36.48,2.75.89,4.15,1.26s2.81.69,4.23,1c-1.44-.19-2.87-.4-4.3-.67s-2.86-.58-4.26-1A41.64,41.64,0,0,1,7.9,69.18c-.68-.28-1.36-.56-2-.89l-1-.51-.48-.26A2.72,2.72,0,0,0,4,67.31Z"/><path class="cls-8" d="M5.08,69.78c.46.23.67.4,1,.59l.89.54c.61.34,1.23.67,1.86,1a40.43,40.43,0,0,0,3.9,1.61c1.32.47,2.68.87,4,1.24s2.75.67,4.14,1c-1.41-.19-2.81-.39-4.21-.66s-2.79-.57-4.17-.94a39.87,39.87,0,0,1-4.09-1.34c-.67-.26-1.33-.55-2-.85l-1-.49c-.3-.15-.68-.37-.86-.45Z"/><path class="cls-8" d="M5.48,73.43c.42.2.65.37,1,.55l.88.52c.6.33,1.2.65,1.82.94A39.53,39.53,0,0,0,13,77c1.3.46,2.63.86,4,1.22s2.69.66,4,.94c-1.37-.17-2.75-.37-4.12-.63s-2.72-.56-4.07-.92-2.69-.8-4-1.3c-.66-.25-1.31-.53-1.95-.83l-1-.46c-.3-.15-.66-.34-.87-.42Z"/><path class="cls-8" d="M6.35,77.07c.73.37,1.22.7,1.83,1s1.17.63,1.78.91a37.9,37.9,0,0,0,3.73,1.53c1.27.44,2.56.85,3.87,1.19s2.63.65,4,.93c-1.35-.17-2.69-.37-4-.62s-2.67-.55-4-.9a38.68,38.68,0,0,1-3.91-1.26c-.64-.24-1.28-.51-1.91-.79s-1.29-.63-1.79-.84Z"/><path class="cls-8" d="M7.4,80.72c.69.33,1.2.66,1.79,1s1.16.6,1.75.88c1.19.55,2.4,1.05,3.65,1.49a58.61,58.61,0,0,0,7.64,2.08,60,60,0,0,1-7.83-1.48c-1.29-.34-2.57-.75-3.83-1.22-.62-.23-1.25-.49-1.86-.76s-1.25-.59-1.77-.79Z"/><path class="cls-8" d="M8.68,84.36C9.94,85,11,85.6,12.16,86.14a37.84,37.84,0,0,0,3.56,1.44,57.94,57.94,0,0,0,7.46,2,59.21,59.21,0,0,1-7.65-1.44c-1.26-.33-2.51-.73-3.74-1.18s-2.47-1-3.57-1.48Z"/><path class="cls-8" d="M9,88c1.22.59,2.25,1.18,3.41,1.7s2.29,1,3.48,1.4a56.77,56.77,0,0,0,7.28,2,58.07,58.07,0,0,1-7.47-1.39c-1.23-.33-2.45-.7-3.65-1.14s-2.41-1-3.51-1.4Z"/><path class="cls-8" d="M10.3,91.65c1.17.56,2.2,1.13,3.33,1.63s2.24,1,3.4,1.36a55.63,55.63,0,0,0,7.1,2,57.33,57.33,0,0,1-7.29-1.36q-1.8-.46-3.57-1.08c-1.16-.4-2.35-.92-3.44-1.33Z"/><path class="cls-8" d="M12.13,95.3c1.13.53,2.16,1.07,3.25,1.55s2.2.92,3.32,1.32a56.85,56.85,0,0,0,6.93,1.92,55.91,55.91,0,0,1-7.11-1.32c-1.17-.3-2.33-.64-3.48-1s-2.3-.86-3.38-1.26Z"/><path class="cls-8" d="M14.17,98.94c1.1.51,2.11,1,3.18,1.49s2.15.89,3.25,1.27a56.93,56.93,0,0,0,6.74,1.88,59,59,0,0,1-6.93-1.27c-1.14-.29-2.27-.62-3.4-1s-2.23-.81-3.3-1.19Z"/><path class="cls-8" d="M15.63,102.59c1.06.48,2.06,1,3.11,1.42s2.09.85,3.16,1.22a56.51,56.51,0,0,0,6.57,1.83,57.92,57.92,0,0,1-6.75-1.22c-1.11-.28-2.22-.59-3.32-1s-2.18-.76-3.23-1.13Z"/><path class="cls-8" d="M17.33,106.23a58.78,58.78,0,0,0,6.11,2.54,58.27,58.27,0,0,0,6.4,1.78,56.53,56.53,0,0,1-6.57-1.18,63.13,63.13,0,0,1-6.4-2Z"/><path class="cls-8" d="M18.42,109.88a62.3,62.3,0,0,0,5.95,2.42A59.62,59.62,0,0,0,30.59,114a60.62,60.62,0,0,1-6.39-1.13A61.45,61.45,0,0,1,18,111.05Z"/><path class="cls-8" d="M20.87,113.52a57.73,57.73,0,0,0,11.84,4,58.94,58.94,0,0,1-12.3-2.82Z"/><path class="cls-8" d="M24.2,117.17A59.52,59.52,0,0,0,35.7,121a60.11,60.11,0,0,1-12-2.67Z"/><path class="cls-8" d="M27.5,120.81a60.19,60.19,0,0,0,11.17,3.69A61.06,61.06,0,0,1,27,122Z"/><path class="cls-8" d="M61,45.32a25.68,25.68,0,0,1-7.66-10,15.65,15.65,0,0,1-1.09-6.5,12.47,12.47,0,0,1,.63-3.34,15,15,0,0,1,1.47-3c1.19-1.84,2.51-3.38,3.46-5.06A23.31,23.31,0,0,0,60,12a25.25,25.25,0,0,0,.87-5.9A26.88,26.88,0,0,0,60.35,0a19.14,19.14,0,0,1,1.8,6,21.49,21.49,0,0,1-.19,6.4,22.21,22.21,0,0,1-2.1,6.14c-1,1.95-2.41,3.59-3.42,5.24-2.18,3.13-2.36,7.14-1.29,10.9S58.57,41.93,61,45.32Z"/><path class="cls-8" d="M64.12,24.07a10.28,10.28,0,0,0-2,5.05,12.84,12.84,0,0,0,.46,5.31c.54,1.72,1.34,3.45,1.82,5.33a9.66,9.66,0,0,1-.07,5.71,13.7,13.7,0,0,0-.92-5.41c-.61-1.72-1.47-3.39-2-5.27A11.68,11.68,0,0,1,61.18,29,8.61,8.61,0,0,1,64.12,24.07Z"/></g></g></svg>