<svg height="512" viewBox="0 0 512 512" width="512" xmlns="http://www.w3.org/2000/svg"><g id="filled_outline" data-name="filled outline"><path d="m232 488h-176l-24-312h224z" fill="#027e2a"/><path d="m248 384h-208l-16-160h240z" fill="#b2750a"/><circle cx="136" cy="304" fill="#a86e09" r="48"/><path d="m24 144h240v32h-240z" fill="#cdccc8"/><path d="m40 112-8 32h224l-8-32z" fill="#eae9e4"/><path d="m457.994 296h-53.409v32h43.278a4 4 0 0 1 3.945 4.658l-6.666 40a4 4 0 0 1 -3.942 3.342h-36.615v32h45.981a30 30 0 0 0 29.7-25.757l7.429-52a30 30 0 0 0 -29.701-34.243z" fill="#cdccc8"/><path d="m329.406 464h-57.642a82 82 0 0 1 -81.692-74.9l-9.487-109.1h240l-9.485 109.1a82 82 0 0 1 -81.694 74.9z" fill="#eae9e4"/><path d="m300 256a8 8 0 0 1 -8-8c0-7.626 3.566-11.787 5.926-14.54 1.745-2.037 2.074-2.473 2.074-4.128s-.329-2.091-2.074-4.127c-2.36-2.753-5.926-6.914-5.926-14.54a21.709 21.709 0 0 1 .4-4.228 8 8 0 1 1 15.691 3.126 5.769 5.769 0 0 0 -.094 1.1c0 1.655.329 2.091 2.074 4.128 2.36 2.753 5.926 6.913 5.926 14.539s-3.566 11.787-5.926 14.54c-1.742 2.039-2.071 2.475-2.071 4.13a8 8 0 0 1 -8 8z" fill="#ffc864"/><path d="m340 256a8 8 0 0 1 -8-8c0-7.626 3.566-11.787 5.926-14.54 1.745-2.037 2.074-2.473 2.074-4.128s-.329-2.091-2.074-4.127c-2.36-2.753-5.926-6.914-5.926-14.54a21.709 21.709 0 0 1 .4-4.228 8 8 0 1 1 15.691 3.126 5.769 5.769 0 0 0 -.094 1.1c0 1.655.329 2.091 2.074 4.128 2.36 2.753 5.926 6.913 5.926 14.539s-3.566 11.787-5.926 14.54c-1.742 2.039-2.071 2.475-2.071 4.13a8 8 0 0 1 -8 8z" fill="#ffc864"/><path d="m379.009 384c-.21 0-.42-.008-.633-.024a8 8 0 0 1 -7.352-8.6l.582-7.447a8 8 0 1 1 15.952 1.246l-.582 7.447a8 8 0 0 1 -7.967 7.378z" fill="#dcdbd6"/><path d="m381.6 350.815c-.21 0-.42-.007-.632-.024a8 8 0 0 1 -7.353-8.6l2.407-30.815a8 8 0 1 1 15.952 1.246l-2.408 30.815a8 8 0 0 1 -7.966 7.378z" fill="#dcdbd6"/><path d="m200 112h-32l24-88h32z" fill="#a3612d"/><path d="m204.87 94.16-4.87 17.84h-32l4.87-17.84z" fill="#a3612d"/><path d="m96 464h-8a8 8 0 0 1 0-16h8a8 8 0 0 1 0 16z" fill="#029532"/><path d="m152 464h-24a8 8 0 0 1 0-16h24a8 8 0 0 1 0 16z" fill="#029532"/><path d="m152 440h304a0 0 0 0 1 0 0v10a38 38 0 0 1 -38 38h-228a38 38 0 0 1 -38-38v-10a0 0 0 0 1 0 0z" fill="#cdccc8"/><path d="m204.87 94.16-4.87 17.84h-32l4.87-17.84z" fill="#7a4922"/><path d="m457.994 288h-30.075l.635-7.307a8 8 0 0 0 -7.97-8.693h-153.344l4.72-47.2a8 8 0 0 0 -7.96-8.8h-3.053l2.461-32h.592a8 8 0 0 0 8-8v-32a8 8 0 0 0 -8-8h-1.754l-6.485-25.94a8 8 0 0 0 -7.761-6.06h-37.526l21.244-77.9a8 8 0 0 0 -7.718-10.1h-32a8 8 0 0 0 -7.718 5.9l-22.392 82.1h-121.89a8 8 0 0 0 -7.761 6.06l-6.485 25.94h-1.754a8 8 0 0 0 -8 8v32a8 8 0 0 0 8 8h.592l2.461 32h-3.053a8 8 0 0 0 -7.96 8.8l16 160a8 8 0 0 0 7.96 7.2h.592l7.431 96.613a8 8 0 0 0 7.977 7.387h362a46.053 46.053 0 0 0 46-46v-10a8 8 0 0 0 -8-8h-51.791a90.255 90.255 0 0 0 8.511-16h37.846a38.187 38.187 0 0 0 37.618-32.626l7.428-52a38 38 0 0 0 -37.618-43.374zm-34.249 48h19.4l-5.333 32h-16.85zm-391.745-184h224v16h-224zm166.11-120h15.416l-19.636 72h-15.416zm-151.864 88h195.508l4 16h-203.508zm-5.607 64h206.722l-2.461 32h-201.8zm-7.8 48h222.321l-4 40h-69.2a55.941 55.941 0 1 0 -4.073 69.269l3.013 34.731h-133.66zm140.569 57.823 1.883 21.662a39.986 39.986 0 1 1 -1.883-21.662zm-116.769 102.177h125.7a90.373 90.373 0 0 0 14.6 40h-44.939a8 8 0 0 0 -8 8v8h-16a8 8 0 0 0 0 16h18.186a45.978 45.978 0 0 0 8.987 16h-91.765zm391.361 58a30.034 30.034 0 0 1 -30 30h-228a30.034 30.034 0 0 1 -30-30v-2h288zm-230.768-18a74.237 74.237 0 0 1 -19.19-43.59l-8.732-100.41h222.549l-8.732 100.41a74.111 74.111 0 0 1 -19.171 43.59zm262.541-102.89-7.428 52a22.109 22.109 0 0 1 -21.779 18.89h-33a89.646 89.646 0 0 0 1.5-10.2l.5-5.8h21.634a11.963 11.963 0 0 0 11.837-10.027l6.667-40a12 12 0 0 0 -11.841-13.973h-22.727l1.392-16h31.466a22 22 0 0 1 21.779 25.11z"/><path d="m292 248a8 8 0 0 0 16 0c0-1.655.329-2.091 2.074-4.128 2.36-2.753 5.926-6.914 5.926-14.54s-3.566-11.786-5.926-14.539c-1.745-2.037-2.074-2.473-2.074-4.128a5.769 5.769 0 0 1 .094-1.1 8 8 0 1 0 -15.691-3.126 21.709 21.709 0 0 0 -.4 4.228c0 7.626 3.566 11.787 5.926 14.54 1.745 2.036 2.074 2.473 2.074 4.127s-.329 2.091-2.074 4.128c-2.363 2.751-5.929 6.912-5.929 14.538z"/><path d="m332 248a8 8 0 0 0 16 0c0-1.655.329-2.091 2.074-4.128 2.36-2.753 5.926-6.914 5.926-14.54s-3.566-11.786-5.926-14.539c-1.745-2.037-2.074-2.473-2.074-4.128a5.769 5.769 0 0 1 .094-1.1 8 8 0 1 0 -15.691-3.126 21.709 21.709 0 0 0 -.4 4.228c0 7.626 3.566 11.787 5.926 14.54 1.745 2.036 2.074 2.473 2.074 4.127s-.329 2.091-2.074 4.128c-2.363 2.751-5.929 6.912-5.929 14.538z"/><path d="m380.206 360.577a8.01 8.01 0 0 0 -8.6 7.353l-.582 7.447a8 8 0 0 0 7.352 8.6c.213.016.423.024.633.024a8 8 0 0 0 7.967-7.377l.582-7.447a8 8 0 0 0 -7.352-8.6z"/><path d="m384.623 304.024a8.016 8.016 0 0 0 -8.6 7.353l-2.407 30.815a8 8 0 0 0 7.353 8.6c.212.017.422.024.632.024a8 8 0 0 0 7.966-7.377l2.408-30.815a8 8 0 0 0 -7.352-8.6z"/><path d="m96 448h-8a8 8 0 0 0 0 16h8a8 8 0 0 0 0-16z"/></g></svg>