<svg id="Capa_1" enable-background="new 0 0 512 512" height="512" viewBox="0 0 512 512" width="512" xmlns="http://www.w3.org/2000/svg"><g><path d="m188 141.19-110.708-102.44-20.5 20.5v81.94z" fill="#554e56"/><path d="m485.161 321.208c-.889-1.777-47.709-97.541-62.947-128.708h-40.637l-13.577-30h72.94s69.988 143.148 71.06 145.305z" fill="#7a6d79"/><path d="m63.664 192.25-40.943 100.219 153.505 73.031 29.014-7.622 16-94.378-16-71.25z" fill="#fbf9f9"/><path d="m346.815 192.25h-141.575v165.628l188.961-49.639z" fill="#efeae7"/><path d="m167.282 292.25c-37.951 0-37.951 16-75.902 16-35.364 0-37.789-13.886-68.658-15.781l-14.979 36.663c-11.047 27.04-10.242 57.703 2.21 84.126 17.175 36.444 54.305 59.992 94.593 59.992h100.694l15-88.75-15-84.248c-9.49-4.001-18.978-8.002-37.958-8.002z" fill="#edba75"/><path d="m402.736 329.132-8.535-20.893c-37.134-.229-37.428-15.989-75.106-15.989-37.954 0-37.954 16-75.908 16-18.973 0-28.461-3.999-37.947-7.998v172.998h100.693c40.288 0 77.418-23.548 94.593-59.992 12.451-26.423 13.257-57.086 2.21-84.126z" fill="#dc8758"/><path d="m28.24 132.25v90h177l8-46.75-8-43.25z" fill="#7a6d79"/><path d="m205.24 132.25h177v90h-177z" fill="#554e56"/><path d="m190.239 394.82h15.001l2-14.32-2-15.68h-15.001z" fill="#dc8758"/><path d="m205.24 364.82h15v30h-15z" fill="#b25f49"/><path d="m117.994 394.5h30v30h-30z" fill="#dc8758"/><path d="m262.485 394.5h30v30h-30z" fill="#b25f49"/></g></svg>