<svg xmlns="http://www.w3.org/2000/svg" viewBox="0 0 182.67 168.19"><defs><style>.cls-1{font-size:20px;font-family:RistrettoSlabPro-Regular, RistrettoSlabPro Regular;letter-spacing:0.03em;}.cls-1,.cls-2,.cls-4{fill:#343436;}.cls-2{font-size:12px;font-family:NexaRustScriptL-0, "NexaRustScriptL 0";}.cls-3{letter-spacing:-0.01em;}.cls-5{fill:#e2e2e2;}</style></defs><g id="Capa_2" data-name="Capa 2"><g id="Objects"><text class="cls-1" transform="translate(60.25 163.19)">ESPRESSO</text><text class="cls-2" transform="translate(0 122.67)">Esp<tspan class="cls-3" x="17.48" y="0">r</tspan><tspan x="21.29" y="0">esso</tspan></text><path class="cls-4" d="M39.47,83.72c1.12,3.81,2.39,7.57,3.88,11.24a98.86,98.86,0,0,0,5.06,10.72,98.6,98.6,0,0,0,6.21,10.09,113.38,113.38,0,0,0,7.29,9.39,76.31,76.31,0,0,1-7.82-9,86.67,86.67,0,0,1-6.42-10.07,87.9,87.9,0,0,1-4.92-10.89A76.53,76.53,0,0,1,39.47,83.72Z"/><path class="cls-4" d="M128.94,30.14a52.49,52.49,0,0,1,7.93.07,58.41,58.41,0,0,1,15.51,3.42,52.8,52.8,0,0,1,7.23,3.27c-2.46-1-4.93-1.88-7.44-2.66a77.59,77.59,0,0,0-7.61-2c-2.55-.6-5.15-1-7.75-1.36S131.58,30.3,128.94,30.14Z"/><path class="cls-4" d="M160.43,108.53c1.33-.45,2.66-.89,3.95-1.41s2.55-1.07,3.78-1.71a40.28,40.28,0,0,0,3.59-2.08c1.16-.75,2.28-1.59,3.39-2.45a18.12,18.12,0,0,1-3,3,21.61,21.61,0,0,1-3.58,2.3,22.73,22.73,0,0,1-3.95,1.57A20.39,20.39,0,0,1,160.43,108.53Z"/><path class="cls-5" d="M163.05,56c0-.15,0-.3,0-.44,0,.85-.11,5.93-.56,10,.29,0,13.87-.11,10.2,14.64-3.42,13.72-17,14.91-19.55,15.1a46.85,46.85,0,0,1-5.22,9.78c4.87.18,26.34,0,32.69-22C187.52,59.19,167,56.36,163.05,56Z"/><path class="cls-4" d="M163.05,56V55.6h0a99.48,99.48,0,0,1-.28,10.06l-.3-.33a14.23,14.23,0,0,1,6,1.25,9,9,0,0,1,4.46,4.3,12.29,12.29,0,0,1,1,6.14,23.31,23.31,0,0,1-1.31,6,18.76,18.76,0,0,1-7.67,9.55,25.72,25.72,0,0,1-11.7,3.7l.78-.58a47.66,47.66,0,0,1-5.28,10l-.76-1.53a36.94,36.94,0,0,0,19-4.33,26.31,26.31,0,0,0,7.43-6.3A30.18,30.18,0,0,0,179.16,85a36,36,0,0,0,2.16-9.64,23,23,0,0,0-.22-4.91A15.7,15.7,0,0,0,172.63,59a24.06,24.06,0,0,0-4.64-1.9A27.66,27.66,0,0,0,163.05,56Zm0,0a26.21,26.21,0,0,1,9.84,2.44,16.17,16.17,0,0,1,9.38,11.74,23.25,23.25,0,0,1,.39,5.19,37.55,37.55,0,0,1-1.95,10.13,30.83,30.83,0,0,1-4.94,9.12,28.22,28.22,0,0,1-7.88,6.8,37.12,37.12,0,0,1-20,4.66l-1.79-.07,1-1.46A45.51,45.51,0,0,0,152.3,95l.21-.53.57,0A24,24,0,0,0,164,91.13a17.79,17.79,0,0,0,7.22-8.62,22,22,0,0,0,1.39-5.6,10.91,10.91,0,0,0-.7-5.56,8.24,8.24,0,0,0-3.84-4,13.43,13.43,0,0,0-5.58-1.45h-.34l0-.32c.23-1.65.38-3.31.51-5s.25-3.34.33-5h0Z"/><path class="cls-5" d="M151.54,101.72A112.24,112.24,0,0,0,162.09,67.3h0c.75-4.85,1.13-10.89,1.19-11.9.28-5.07.13-8.15.13-8.15S164.6,32.89,101,32.89s-61.2,14.36-61.2,14.36-2.18,46.18,26.55,75.27c0,0,9.22,9.9,35.26,9.9,25.72,0,34.35-9.2,34.35-9.2a26.48,26.48,0,0,0,2.38-2.23,77.7,77.7,0,0,0,6.07-7.41h0a73.49,73.49,0,0,0,7-11.52Z"/><path class="cls-4" d="M151.54,101.72A112.4,112.4,0,0,0,162,67.28v-.1h.12l-.11.09c.49-3.31.79-6.65,1-10a96,96,0,0,0,.2-10v0a5.88,5.88,0,0,0-1.88-3.37,17.18,17.18,0,0,0-3.26-2.41l-1.81-.94c-.6-.32-1.26-.53-1.88-.8s-1.26-.52-1.91-.74l-2-.61a94.75,94.75,0,0,0-16.12-3.16,276,276,0,0,0-32.91-1.57,299.75,299.75,0,0,0-32.85,1.9l-4.07.55-4,.74c-.67.14-1.34.23-2,.39l-2,.5a39,39,0,0,0-3.92,1.08,32.36,32.36,0,0,0-3.8,1.37L47,41l-1.72,1A10.15,10.15,0,0,0,43.67,43a8.09,8.09,0,0,0-1.41,1.26,3.48,3.48,0,0,0-.58.7,3.92,3.92,0,0,0-.46.74,3,3,0,0,0-.31.76,3,3,0,0,0-.08.36c0,.1,0,.27,0,.24l0,.21A119,119,0,0,0,42,66.49a126.13,126.13,0,0,0,4.09,18.83C49.8,97.6,55.56,109.4,64,119.12c3.86,5.23,9.88,8,16,10a72.11,72.11,0,0,0,19,3,86,86,0,0,0,19.29-1.34,53.53,53.53,0,0,0,9.3-2.7,27.29,27.29,0,0,0,8.3-4.87h0l2.34-2.18c.73-.77,1.45-1.57,2.15-2.38q2.09-2.43,4-5v0h.08s0,0,0,.06,0,0,0,0h-.18s0,0,0-.07h.12l0,0c1.33-1.82,2.59-3.68,3.77-5.6a57.38,57.38,0,0,0,3.26-5.9h0Zm0,0-.11.34h0a58.56,58.56,0,0,1-3.22,5.93q-1.76,2.88-3.74,5.62v0h-.09s0-.08,0-.07,0,0,0,0h.11s0,0,0,0,0,.06,0,.06h0l0,0q-1.87,2.61-4,5.06-1,1.23-2.13,2.4L136,123.28h0a27.28,27.28,0,0,1-8.34,5,54,54,0,0,1-9.32,2.78A90.48,90.48,0,0,1,99,132.65,73.25,73.25,0,0,1,79.73,130a45,45,0,0,1-9.08-3.71,26,26,0,0,1-4.1-2.79,24.16,24.16,0,0,1-1.75-1.76c-.56-.59-1.14-1.17-1.68-1.78A91.31,91.31,0,0,1,44.41,85.83a127,127,0,0,1-4.26-19.08A120.22,120.22,0,0,1,38.83,47.2l0,.21A3.65,3.65,0,0,1,39,46a5.38,5.38,0,0,1,.45-1.16,5.64,5.64,0,0,1,.63-1,4.88,4.88,0,0,1,.73-.89,11.07,11.07,0,0,1,1.67-1.48,13.18,13.18,0,0,1,1.8-1.21l1.89-1,2-.83a38.26,38.26,0,0,1,4-1.41c1.33-.47,2.69-.75,4-1.09l2-.49c.68-.16,1.36-.25,2.05-.38l4.1-.73,4.12-.53a265.21,265.21,0,0,1,33.08-1.58,276.37,276.37,0,0,1,33,2.11,94.58,94.58,0,0,1,16.2,3.45l2,.64c.66.23,1.29.53,1.93.79s1.29.5,1.9.84l1.84,1a17,17,0,0,1,3.32,2.54,6.13,6.13,0,0,1,1.95,3.73v0c.07,3.37-.08,6.72-.32,10.07s-.58,6.69-1.1,10l0,.1h-.11l.11-.09A112.5,112.5,0,0,1,151.54,101.72Z"/><path class="cls-4" d="M53.67,94a91.37,91.37,0,0,0,16.42,25c.08.08,8.55,8.31,31.54,8.31,22.63,0,30.58-7.57,30.58-7.57l.15-.18.34-.27a21.61,21.61,0,0,0,1.89-1.77,68.5,68.5,0,0,0,4.66-5.56l2.51-3.49c2.08-3.06,7-12,7.82-13.73Z"/><path class="cls-4" d="M53.67,94c0-4.25,21.47-7.69,48-7.69s48,3.44,48,7.69-21.47,7.69-48,7.69-48-3.44-48-7.69"/><path class="cls-5" d="M53.67,94a1.93,1.93,0,0,1,.7-1.35,6.05,6.05,0,0,1,1.27-.92,18.1,18.1,0,0,1,2.85-1.25,52.26,52.26,0,0,1,6-1.62c4.06-.86,8.18-1.45,12.29-1.93,8.25-.9,16.55-1.28,24.84-1.39a240.23,240.23,0,0,1,24.87,1c4.14.39,8.28.89,12.39,1.67A56.64,56.64,0,0,1,145,89.68a20.35,20.35,0,0,1,3,1.24,6.77,6.77,0,0,1,1.48,1,4,4,0,0,1,.68.81c.09.18.18.37.26.56a5.06,5.06,0,0,1,.1.68,5.16,5.16,0,0,1-.1.67,5.86,5.86,0,0,1-.26.57,3.69,3.69,0,0,1-.68.81,7.14,7.14,0,0,1-1.48,1,19.26,19.26,0,0,1-3,1.23,52.33,52.33,0,0,1-6.14,1.51c-4.11.79-8.25,1.28-12.39,1.68a240.23,240.23,0,0,1-24.87,1c-8.29-.11-16.59-.5-24.84-1.39-4.12-.48-8.23-1.07-12.29-1.93a54.38,54.38,0,0,1-6-1.62,18.15,18.15,0,0,1-2.85-1.26,6,6,0,0,1-1.27-.91,2,2,0,0,1-.7-1.35,1.92,1.92,0,0,0,.75,1.29,6.08,6.08,0,0,0,1.29.84,18.08,18.08,0,0,0,2.87,1.1,54.11,54.11,0,0,0,6,1.39c4.07.71,8.18,1.14,12.29,1.48,8.22.69,16.49.9,24.74.82s16.5-.41,24.7-1.24c4.09-.42,8.18-1,12.19-1.74a50.45,50.45,0,0,0,5.9-1.5,17.06,17.06,0,0,0,2.69-1.12,4.66,4.66,0,0,0,1.07-.73c.29-.26.42-.51.4-.59s-.11-.34-.4-.6a4.92,4.92,0,0,0-1.06-.73,17.58,17.58,0,0,0-2.7-1.12,52.49,52.49,0,0,0-5.9-1.49c-4-.8-8.1-1.32-12.19-1.74-8.2-.84-16.45-1.12-24.7-1.25s-16.52.14-24.74.83c-4.11.33-8.22.77-12.29,1.48a54.07,54.07,0,0,0-6,1.38,18.12,18.12,0,0,0-2.87,1.11,6.18,6.18,0,0,0-1.29.83A1.92,1.92,0,0,0,53.67,94Z"/><path class="cls-5" d="M105.29,97.78c4.39-.16,8.77-.34,13.14-.63s8.73-.68,13.06-1.32a63.08,63.08,0,0,0,6.42-1.19,17,17,0,0,0,3-1,.08.08,0,0,0,0,.12l-.11,0-.17-.1c-.23-.12-.48-.23-.72-.33-.5-.2-1-.37-1.53-.53A59.58,59.58,0,0,0,132,91.27c-2.16-.41-4.32-.74-6.49-1.07a78.83,78.83,0,0,1,13,2c.53.15,1.07.3,1.59.5q.4.15.78.33l.2.1a1.13,1.13,0,0,1,.24.15.56.56,0,0,1-.06.85,16,16,0,0,1-3.2,1.15,62.5,62.5,0,0,1-6.49,1.27q-6.54.87-13.13,1.15T105.29,97.78Z"/><path class="cls-4" d="M39.82,47.25a10.41,10.41,0,0,0,3.1,2.45l1.76.9,1.84.76c.6.28,1.25.44,1.87.66s1.25.45,1.89.61c1.29.32,2.55.72,3.85,1a131.93,131.93,0,0,0,15.71,2.46c5.28.51,10.58.89,15.89,1.07,2.66.06,5.31.23,8,.24l8,.08c10.63,0,21.27-.3,31.84-1.32l2-.18,2-.26,3.95-.51c2.61-.44,5.23-.85,7.81-1.47a54.42,54.42,0,0,0,7.61-2.24l1.82-.78c.6-.28,1.17-.61,1.76-.92a9.09,9.09,0,0,0,3-2.53A9.26,9.26,0,0,1,160.58,50c-.57.34-1.14.71-1.73,1l-1.8.9a55.53,55.53,0,0,1-7.58,2.69c-2.58.75-5.21,1.27-7.84,1.82l-4,.65-2,.31-2,.24a267.77,267.77,0,0,1-32,1.77,265.61,265.61,0,0,1-32-1.84,114.65,114.65,0,0,1-15.77-3.06c-1.3-.34-2.56-.82-3.84-1.21-.64-.2-1.25-.48-1.88-.72s-1.26-.46-1.86-.77L44.5,51l-1.74-1A10.72,10.72,0,0,1,39.82,47.25Z"/><path class="cls-4" d="M43,49.87a5.48,5.48,0,0,1,1-1.69q.28-.36.6-.69a7.58,7.58,0,0,1,.65-.62,16.47,16.47,0,0,1,2.91-2,33.84,33.84,0,0,1,6.48-2.69,67,67,0,0,1,6.8-1.58c1.15-.17,2.29-.4,3.44-.53l3.46-.41-3.44.53c-1.14.17-2.27.44-3.41.66a63.4,63.4,0,0,0-6.69,1.8,33.44,33.44,0,0,0-6.26,2.86,15.87,15.87,0,0,0-2.69,2,6.51,6.51,0,0,0-.58.6,5.2,5.2,0,0,0-.52.64,4.74,4.74,0,0,0-.73,1.35Z"/><path class="cls-4" d="M151.94,42.59a61.72,61.72,0,0,0-9.23-1.91c-3.1-.47-6.23-.78-9.35-1.07q-9.39-.82-18.82-1.17C108.26,38.2,102,38,95.66,38s-12.6,0-18.9.36c3.13-.37,6.28-.6,9.43-.78s6.3-.34,9.46-.4,6.31-.12,9.46-.13c1.58,0,3.16-.08,4.73-.08l4.74,0a187.08,187.08,0,0,1,18.92,1.3c3.14.39,6.26.92,9.36,1.55,1.55.29,3.09.7,4.61,1.13A29.32,29.32,0,0,1,151.94,42.59Z"/><path class="cls-4" d="M151.11,40.08c-3.61-.85-7.25-1.53-10.9-2.12s-7.31-1.11-11-1.44-7.36-.67-11-.82-7.39-.22-11.1-.27c1.85-.11,3.7-.24,5.55-.29s3.71-.07,5.57,0c3.71,0,7.41.33,11.11.66s7.37.92,11,1.62A89.18,89.18,0,0,1,151.11,40.08Z"/><path class="cls-4" d="M41.13,49a7.42,7.42,0,0,1,2.66-3.81,17.14,17.14,0,0,1,3.81-2.36c.67-.31,1.37-.57,2.06-.85s1.39-.48,2.1-.68,1.42-.4,2.14-.56l2.15-.46-2.12.58c-.71.2-1.4.45-2.09.68s-1.37.53-2.05.79-1.33.6-2,1a16.58,16.58,0,0,0-3.54,2.46,9.84,9.84,0,0,0-1.38,1.59,5,5,0,0,0-.79,1.79Z"/><path class="cls-4" d="M131,123.59a31.64,31.64,0,0,1-8.88,4.06,58.15,58.15,0,0,1-9.6,1.95l-2.44.24-2.44.13c-1.63.11-3.27.07-4.9.06s-3.25-.17-4.88-.25-3.24-.36-4.85-.57c1.63,0,3.25.15,4.87.21s3.25.06,4.87,0a89.35,89.35,0,0,0,9.68-.6A65.64,65.64,0,0,0,122,127.1a46.65,46.65,0,0,0,4.61-1.48A26.75,26.75,0,0,0,131,123.59Z"/><path class="cls-4" d="M163.21,59.76a17.39,17.39,0,0,1,7.35,1.51,12.77,12.77,0,0,1,5.78,4.94,13.49,13.49,0,0,1,1.88,7.36,22.5,22.5,0,0,1-.38,3.76l-.44,1.83c-.18.6-.37,1.19-.57,1.78a31,31,0,0,0,.63-7.35,14.27,14.27,0,0,0-2-6.86A13.23,13.23,0,0,0,170.22,62a18.5,18.5,0,0,0-3.39-1.37A22.08,22.08,0,0,0,163.21,59.76Z"/><path class="cls-4" d="M154,98.15c1.16-.13,2.28-.35,3.4-.58a33.22,33.22,0,0,0,3.29-.89A41,41,0,0,0,167,94a16,16,0,0,1-2.86,2,18.31,18.31,0,0,1-6.64,2.14A13.67,13.67,0,0,1,154,98.15Z"/><path class="cls-4" d="M158.35,56.3a69.82,69.82,0,0,1-.44,7.92c-.27,2.63-.68,5.24-1.17,7.84s-1.09,5.18-1.84,7.72a66.42,66.42,0,0,1-2.56,7.51c.28-1.3.66-2.56.93-3.85s.62-2.56.89-3.84c.57-2.57,1.12-5.14,1.6-7.72s1-5.17,1.39-7.76S158,58.92,158.35,56.3Z"/><path class="cls-4" d="M72.77,127C42.57,99.4,42.15,49.39,42.15,49.39a14.17,14.17,0,0,1-2.37-1.61S40.36,79,50.14,98.56,69.19,125.56,72.77,127Z"/><path class="cls-4" d="M41.37,52.27a18.27,18.27,0,0,0,3.85,2.39,39,39,0,0,0,4.33,1.78c1.48.52,3,1,4.51,1.36l2.29.55,2.32.49-2.34-.33L54,58.11c-1.55-.31-3.1-.64-4.63-1.07a38.71,38.71,0,0,1-4.52-1.52,18.5,18.5,0,0,1-4.32-2.32Z"/><path class="cls-4" d="M40.4,55.2l1.05.68c.32.19.64.39,1,.57.65.37,1.33.72,2,1a44.77,44.77,0,0,0,4.23,1.75c1.44.53,2.91,1,4.39,1.39s3,.76,4.49,1.09C56,61.51,54.51,61.26,53,61s-3-.67-4.51-1.1-3-.91-4.42-1.49c-.72-.29-1.44-.59-2.15-.93l-1.06-.53-.52-.29-.26-.14c-.07,0-.21-.12-.14-.1Z"/><path class="cls-4" d="M41.84,58.85a1.27,1.27,0,0,1,.24.14l.11.08.23.17.45.31c.31.2.62.4.94.59.63.38,1.29.72,2,1a40.64,40.64,0,0,0,4.15,1.71c1.42.5,2.87.91,4.33,1.31l2.2.54,2.22.46-2.25-.31-2.24-.38c-1.49-.3-3-.61-4.45-1a43.41,43.41,0,0,1-4.35-1.44c-.71-.3-1.41-.6-2.1-1-.35-.17-.69-.35-1-.55l-.51-.3-.24-.15L41.38,60s0,0,0,0Z"/><path class="cls-4" d="M42.38,62.17l.23.13.12.09.23.17.45.32c.29.2.6.41.91.6.61.39,1.26.74,1.91,1.08a38.71,38.71,0,0,0,4.07,1.76c1.38.52,2.81.94,4.25,1.34s2.89.71,4.36,1c-1.48-.19-3-.42-4.43-.7s-2.94-.62-4.38-1a38.68,38.68,0,0,1-4.27-1.51,22.81,22.81,0,0,1-2.06-1c-.34-.17-.68-.36-1-.56l-.84-.52Z"/><path class="cls-4" d="M43.28,66.14a6.47,6.47,0,0,1,.56.33l.45.29c.29.19.6.38.9.55.62.36,1.25.69,1.89,1a39.77,39.77,0,0,0,4,1.64c1.35.48,2.74.89,4.14,1.26s2.81.69,4.23,1c-1.44-.19-2.87-.4-4.3-.67s-2.86-.58-4.26-1a41.64,41.64,0,0,1-4.18-1.37c-.68-.28-1.36-.56-2-.89q-.51-.24-1-.51l-.49-.26a2.77,2.77,0,0,0-.38-.21Z"/><path class="cls-4" d="M43.88,69.78c.46.23.67.4,1,.59l.9.54c.6.34,1.22.67,1.85,1a40.43,40.43,0,0,0,3.9,1.61c1.33.47,2.68.87,4,1.24s2.75.67,4.14,1c-1.41-.19-2.81-.39-4.21-.66s-2.79-.57-4.17-.94a39.87,39.87,0,0,1-4.09-1.34c-.67-.26-1.33-.55-2-.85l-1-.49c-.29-.15-.68-.37-.86-.45Z"/><path class="cls-4" d="M44.28,73.43a9.87,9.87,0,0,1,1,.55l.88.52c.6.33,1.2.65,1.82.94A40.6,40.6,0,0,0,51.76,77c1.31.46,2.63.86,4,1.22s2.69.66,4.05.94c-1.38-.17-2.76-.37-4.12-.63s-2.73-.56-4.08-.92-2.69-.8-4-1.3c-.66-.25-1.31-.53-1.95-.83l-1-.46c-.3-.15-.66-.34-.87-.42Z"/><path class="cls-4" d="M45.15,77.07c.73.37,1.22.7,1.83,1s1.18.63,1.78.91a37.9,37.9,0,0,0,3.73,1.53c1.27.44,2.56.85,3.87,1.19s2.63.65,4,.93c-1.35-.17-2.69-.37-4-.62s-2.67-.55-4-.9a39.51,39.51,0,0,1-3.91-1.26c-.64-.24-1.28-.51-1.91-.79s-1.28-.63-1.79-.84Z"/><path class="cls-4" d="M46.2,80.72c.69.33,1.2.66,1.79,1s1.16.6,1.75.88c1.19.55,2.41,1.05,3.65,1.49A58.61,58.61,0,0,0,61,86.14a60,60,0,0,1-7.83-1.48,39.44,39.44,0,0,1-3.82-1.22c-.63-.23-1.26-.49-1.87-.76s-1.25-.59-1.77-.79Z"/><path class="cls-4" d="M47.49,84.36c1.25.63,2.28,1.24,3.47,1.78a37.84,37.84,0,0,0,3.56,1.44,57.65,57.65,0,0,0,7.47,2,59.35,59.35,0,0,1-7.66-1.44c-1.26-.33-2.51-.73-3.74-1.18S48.12,86,47,85.53Z"/><path class="cls-4" d="M47.83,88c1.21.59,2.24,1.18,3.4,1.7s2.3,1,3.48,1.4a56.77,56.77,0,0,0,7.28,2,58.39,58.39,0,0,1-7.47-1.39c-1.23-.33-2.45-.7-3.65-1.14s-2.41-1-3.51-1.4Z"/><path class="cls-4" d="M49.1,91.65c1.17.56,2.2,1.13,3.33,1.63s2.24,1,3.4,1.36a55.63,55.63,0,0,0,7.1,2,56.86,56.86,0,0,1-7.28-1.36q-1.82-.46-3.57-1.08c-1.17-.4-2.36-.92-3.44-1.33Z"/><path class="cls-4" d="M50.93,95.3c1.13.53,2.16,1.07,3.25,1.55s2.2.92,3.33,1.32a56.2,56.2,0,0,0,6.92,1.92,56.24,56.24,0,0,1-7.11-1.32c-1.17-.3-2.33-.64-3.48-1s-2.3-.86-3.38-1.26Z"/><path class="cls-4" d="M53,98.94c1.1.51,2.12,1,3.19,1.49s2.14.89,3.24,1.27a57.47,57.47,0,0,0,6.74,1.88,58.43,58.43,0,0,1-6.92-1.27c-1.15-.29-2.28-.62-3.4-1s-2.24-.81-3.31-1.19Z"/><path class="cls-4" d="M54.43,102.59c1.06.48,2.06,1,3.11,1.42s2.09.85,3.16,1.22a56.51,56.51,0,0,0,6.57,1.83,57.92,57.92,0,0,1-6.75-1.22c-1.11-.28-2.22-.59-3.32-1S55,104.13,54,103.76Z"/><path class="cls-4" d="M56.13,106.23a54.06,54.06,0,0,0,12.51,4.32,56.53,56.53,0,0,1-6.57-1.18,63.13,63.13,0,0,1-6.4-2Z"/><path class="cls-4" d="M57.22,109.88a61.43,61.43,0,0,0,6,2.42A60.13,60.13,0,0,0,69.39,114a56.72,56.72,0,0,1-12.63-3Z"/><path class="cls-4" d="M59.67,113.52a57.73,57.73,0,0,0,11.84,4,58.94,58.94,0,0,1-12.3-2.82Z"/><path class="cls-4" d="M63,117.17A59.39,59.39,0,0,0,74.51,121a59.8,59.8,0,0,1-12-2.67Z"/><path class="cls-4" d="M66.3,120.81a60.19,60.19,0,0,0,11.17,3.69A61,61,0,0,1,65.84,122Z"/><path class="cls-4" d="M103.66,45.32a25.7,25.7,0,0,1-7.67-10,15.65,15.65,0,0,1-1.09-6.5,12.89,12.89,0,0,1,.64-3.34,14.5,14.5,0,0,1,1.47-3c1.19-1.84,2.51-3.38,3.46-5.06A23.31,23.31,0,0,0,102.75,12a25.25,25.25,0,0,0,.87-5.9A27.46,27.46,0,0,0,103.06,0a19.14,19.14,0,0,1,1.8,6,21.83,21.83,0,0,1-.19,6.4,21.91,21.91,0,0,1-2.11,6.14c-1,1.95-2.4,3.59-3.41,5.24C97,26.94,96.78,31,97.86,34.71S101.27,41.93,103.66,45.32Z"/><path class="cls-4" d="M106.83,24.07a10.29,10.29,0,0,0-2,5.05,13,13,0,0,0,.47,5.31c.54,1.72,1.34,3.45,1.82,5.33a9.74,9.74,0,0,1-.07,5.71,13.88,13.88,0,0,0-.92-5.41c-.61-1.72-1.47-3.39-2-5.27a11.68,11.68,0,0,1-.19-5.84A8.5,8.5,0,0,1,106.83,24.07Z"/></g></g></svg>