<svg xmlns="http://www.w3.org/2000/svg" viewBox="0 0 182.41 168.19"><defs><style>.cls-1{font-size:20px;font-family:RistrettoSlabPro-Regular, RistrettoSlabPro Regular;letter-spacing:-0.01em;}.cls-1,.cls-12,.cls-3{fill:#343436;}.cls-2{letter-spacing:0.03em;}.cls-3{font-size:12px;font-family:NexaRustScriptL-0, "NexaRustScriptL 0";}.cls-4{letter-spacing:-0.01em;}.cls-5{letter-spacing:-0.01em;}.cls-6{letter-spacing:0em;}.cls-7{letter-spacing:0em;}.cls-8{letter-spacing:-0.01em;}.cls-9{letter-spacing:0em;}.cls-10{letter-spacing:-0.01em;}.cls-11{letter-spacing:-0.01em;}.cls-13{fill:#e2e2e2;}</style></defs><g id="Capa_2" data-name="Capa 2"><g id="Objects"><text class="cls-1" transform="translate(70.75 163.19)">L<tspan class="cls-2" x="9.22" y="0">UNGO</tspan></text><text class="cls-3" transform="translate(0 121.01)"><tspan xml:space="preserve">         </tspan><tspan class="cls-4" x="22.89" y="0">L</tspan><tspan x="28.39" y="0">ess </tspan><tspan class="cls-5" x="0" y="10.37">c</tspan><tspan x="5.3" y="10.37">on</tspan><tspan class="cls-5" x="18.55" y="10.37">c</tspan><tspan class="cls-6" x="23.86" y="10.37">e</tspan><tspan class="cls-7" x="29.87" y="10.37">n</tspan><tspan class="cls-6" x="36.48" y="10.37">t</tspan><tspan class="cls-8" x="40.45" y="10.37">r</tspan><tspan class="cls-9" x="44.32" y="10.37">a</tspan><tspan class="cls-10" x="50.05" y="10.37">t</tspan><tspan x="53.95" y="10.37">ed</tspan><tspan x="0" y="20.73" xml:space="preserve">    esp</tspan><tspan class="cls-11" x="27.77" y="20.73">r</tspan><tspan x="31.57" y="20.73">esso</tspan></text><path class="cls-12" d="M33.54,43.56a16.65,16.65,0,0,1,3.3-4,24.37,24.37,0,0,1,4.27-3,51,51,0,0,1,9.65-3.83A79.33,79.33,0,0,1,60.87,30.5a80.89,80.89,0,0,1,10.3-.9c-3.42.41-6.82.88-10.19,1.52a97.58,97.58,0,0,0-10,2.43,56.58,56.58,0,0,0-9.57,3.62A21.43,21.43,0,0,0,33.54,43.56Z"/><path class="cls-12" d="M178.39,96.37a10.14,10.14,0,0,1-1.81,3.36,17.94,17.94,0,0,1-5.9,4.81q-.85.42-1.74.78a16.52,16.52,0,0,1-1.82.54c1.11-.61,2.2-1.21,3.24-1.88a34.29,34.29,0,0,0,3-2.18,32.21,32.21,0,0,0,2.73-2.5A16.52,16.52,0,0,0,178.39,96.37Z"/><path class="cls-13" d="M162.78,56c0-.15,0-.3,0-.44,0,.85-.11,5.93-.57,10,.29,0,14.1,0,10.2,14.64a19.54,19.54,0,0,1-17.66,14.92,51.43,51.43,0,0,1-5.45,9.92c4.87.18,24.9-.45,31-22C187.18,59.17,166.73,56.36,162.78,56Z"/><path class="cls-12" d="M162.78,56V55.6h0c0,3.35,0,6.7-.28,10.06l-.3-.33A14.88,14.88,0,0,1,168,66.47a9.3,9.3,0,0,1,4.49,3.94,12.57,12.57,0,0,1,.64,1.4l.41,1.47c.08.5.11,1,.16,1.5a6.36,6.36,0,0,1,0,1.51l-.08,1.49-.28,1.46c-.11.49-.16,1-.31,1.46l-.43,1.42-.22.71-.29.68-.58,1.38c-.21.45-.48.87-.71,1.31a10.48,10.48,0,0,1-.79,1.28,18,18,0,0,1-4.11,4.37,21.64,21.64,0,0,1-11.08,4.29l.81-.61a45.69,45.69,0,0,1-2.48,5.24,56.52,56.52,0,0,1-3,4.91l-.77-1.55a33,33,0,0,0,18.38-4.81,27,27,0,0,0,7-6.47c.48-.64.88-1.34,1.32-2l.65-1,.53-1.09,1.05-2.18.82-2.28a20.25,20.25,0,0,0,.75-2.32l.32-1.17.25-1.19a29.05,29.05,0,0,0,.62-4.81,17.73,17.73,0,0,0-1.93-9.29,16.45,16.45,0,0,0-6.92-6.6,23.78,23.78,0,0,0-4.56-1.84A28.13,28.13,0,0,0,162.78,56Zm0,0a25.73,25.73,0,0,1,9.65,2.36A17.08,17.08,0,0,1,180,65a18.81,18.81,0,0,1,2.41,9.84,30.45,30.45,0,0,1-.52,5l-.23,1.25-.3,1.23a23.3,23.3,0,0,1-.72,2.43l-.8,2.41-1.07,2.31-.54,1.16-.67,1.09c-.46.72-.88,1.47-1.38,2.16a28.17,28.17,0,0,1-7.41,7,31.47,31.47,0,0,1-9.38,4,36.64,36.64,0,0,1-10.12,1.11l-1.81-.07,1-1.48a51.14,51.14,0,0,0,3-4.72,48.66,48.66,0,0,0,2.41-5l.22-.56.6,0a19.71,19.71,0,0,0,10.18-3.76,18.37,18.37,0,0,0,6.35-8.83l.44-1.32c.15-.45.21-.91.32-1.36l.3-1.36.12-1.38a5.73,5.73,0,0,0,0-1.37c0-.45-.05-.91-.1-1.36L172,72.18a9.57,9.57,0,0,0-.52-1.24,8.52,8.52,0,0,0-3.87-3.68,14.18,14.18,0,0,0-5.4-1.34h-.34l0-.32c.22-1.65.38-3.31.51-5s.25-3.34.33-5h0Z"/><path class="cls-13" d="M151.27,101.72A112.51,112.51,0,0,0,161.82,67.3h0c.75-4.85,1.13-10.89,1.19-11.9.28-5.07.13-8.15.13-8.15s1.17-14.36-62.41-14.36-61.2,14.36-61.2,14.36S37.37,93.43,66.1,122.52c0,0,9.22,9.9,35.26,9.9,25.72,0,34.35-9.2,34.35-9.2a26.48,26.48,0,0,0,2.38-2.23,77.7,77.7,0,0,0,6.07-7.41h0a73.49,73.49,0,0,0,7-11.52Z"/><path class="cls-12" d="M151.27,101.72a112.67,112.67,0,0,0,10.44-34.44v-.1h.12l-.12.09c.5-3.31.8-6.65,1-10a93.32,93.32,0,0,0,.19-10v0a5.88,5.88,0,0,0-1.88-3.37,17.18,17.18,0,0,0-3.26-2.41L156,40.51c-.6-.32-1.26-.53-1.89-.8s-1.26-.52-1.9-.74l-2-.61a94.37,94.37,0,0,0-16.12-3.16,275.71,275.71,0,0,0-32.9-1.57,299.94,299.94,0,0,0-32.86,1.9l-4.06.55-4,.74c-.67.14-1.35.23-2,.39l-2,.5a40.56,40.56,0,0,0-3.92,1.08,33.72,33.72,0,0,0-3.8,1.37L46.73,41l-1.73,1A10.54,10.54,0,0,0,43.4,43,7.74,7.74,0,0,0,42,44.28a3.48,3.48,0,0,0-.58.7,4.58,4.58,0,0,0-.47.74,3.43,3.43,0,0,0-.3.76,1.82,1.82,0,0,0-.08.36c0,.1,0,.27,0,.24v.21a119,119,0,0,0,1.18,19.2,124.89,124.89,0,0,0,4.09,18.83c3.72,12.28,9.48,24.08,17.94,33.8,3.86,5.23,9.88,8,16,10a72,72,0,0,0,19.05,3,86,86,0,0,0,19.29-1.34,53.78,53.78,0,0,0,9.3-2.7,27.29,27.29,0,0,0,8.3-4.87h0L138,121c.73-.77,1.45-1.57,2.14-2.38q2.1-2.43,4-5v0h.08s0,0,0,.06,0,0,0,0h-.16s0,0,0,0,0,0,0-.07h.12l0,0c1.32-1.82,2.58-3.68,3.77-5.6a59.34,59.34,0,0,0,3.26-5.9h0Zm0,0-.11.34h0a58.56,58.56,0,0,1-3.22,5.93q-1.77,2.88-3.74,5.62l0,0h-.08s0-.08,0-.07h.1s0,0,0,0,0,.06,0,.06h0l0,0q-1.87,2.61-4,5.06-1,1.23-2.13,2.4l-2.35,2.21h0a27.28,27.28,0,0,1-8.34,5,54,54,0,0,1-9.32,2.78,90.48,90.48,0,0,1-19.37,1.63A73.19,73.19,0,0,1,79.46,130a45,45,0,0,1-9.08-3.71,26,26,0,0,1-4.1-2.79,24.16,24.16,0,0,1-1.75-1.76c-.56-.59-1.14-1.17-1.68-1.78A91.17,91.17,0,0,1,44.14,85.83a127,127,0,0,1-4.26-19.08A120.22,120.22,0,0,1,38.56,47.2v.21A3.82,3.82,0,0,1,38.71,46a5.38,5.38,0,0,1,.45-1.16,5.12,5.12,0,0,1,.63-1,4.88,4.88,0,0,1,.73-.89,11,11,0,0,1,1.66-1.48A13.92,13.92,0,0,1,44,40.24l1.88-1,2-.83a38.26,38.26,0,0,1,4-1.41c1.33-.47,2.69-.75,4-1.09l2-.49c.67-.16,1.36-.25,2-.38l4.1-.73,4.13-.53a265.12,265.12,0,0,1,33.08-1.58,276.37,276.37,0,0,1,33,2.11,94.58,94.58,0,0,1,16.2,3.45l2,.64c.65.23,1.29.53,1.93.79s1.29.5,1.9.84l1.84,1a17.3,17.3,0,0,1,3.32,2.54,6.13,6.13,0,0,1,2,3.73v0c.07,3.37-.08,6.72-.33,10.07s-.58,6.69-1.09,10l0,.1h-.12l.12-.09A112.5,112.5,0,0,1,151.27,101.72Z"/><path class="cls-12" d="M69.82,119c.08.08,8.55,8.31,31.54,8.31,22.63,0,30.58-7.57,30.58-7.57l.15-.18.34-.27a21.61,21.61,0,0,0,1.89-1.77,70.61,70.61,0,0,0,4.66-5.56l2.51-3.49a67,67,0,0,0,4.84-8.19l.14-.45.2-.39c.66-1.31,1.29-2.65,1.9-4a109.88,109.88,0,0,0,8.15-28.82L46.81,66.07a127.67,127.67,0,0,0,8,29.24S62.5,112.94,69.82,119Z"/><path class="cls-12" d="M69.82,119a18.77,18.77,0,0,0,3.35,2.3A35.31,35.31,0,0,0,76.83,123a50.3,50.3,0,0,0,7.77,2.42,74.49,74.49,0,0,0,16.17,1.67,75,75,0,0,0,16.17-1.55,46.12,46.12,0,0,0,7.76-2.29,32.9,32.9,0,0,0,3.66-1.69c.6-.32,1.17-.66,1.73-1l.82-.57.39-.3.44-.37-.12.09.15-.17.06-.06a19.6,19.6,0,0,0,2.15-2c.67-.73,1.33-1.49,2-2.25,1.28-1.54,2.5-3.1,3.63-4.76s2.28-3.27,3.3-5a56.43,56.43,0,0,0,2.85-5.22l0,.09.13-.45,0-.08v0c1.23-2.62,2.48-5.23,3.49-7.93s2-5.44,2.78-8.21a117.52,117.52,0,0,0,3.67-16.92l.9,1c-9.16,0-18.32,0-27.48,0l-27.47-.23c-9.16-.05-18.32-.24-27.48-.36l-27.47-.4.35-.4a122.79,122.79,0,0,0,7.32,28.24c.88,2.26,2,4.45,3.06,6.63s2.25,4.34,3.48,6.44A72.33,72.33,0,0,0,65,113.49,30.35,30.35,0,0,0,69.82,119Zm0,0a30.48,30.48,0,0,1-4.9-5.43c-1.44-2-2.76-4-4-6.13s-2.42-4.25-3.53-6.42-2.22-4.35-3.13-6.63a134.83,134.83,0,0,1-4.67-13.89,124.86,124.86,0,0,1-3.13-14.33.35.35,0,0,1,.29-.4h.06l27.48-.16c9.16,0,18.32-.15,27.48-.12h27.47c9.16,0,18.32.13,27.48.19h0a.9.9,0,0,1,.9.91s0,.09,0,.13a119.8,119.8,0,0,1-3.87,17.15c-.88,2.8-1.87,5.56-3,8.28s-2.4,5.35-3.7,8l0-.1-.14.44v0a.19.19,0,0,1,0,.07,59.48,59.48,0,0,1-3,5.29c-1.07,1.72-2.25,3.38-3.45,5s-2.45,3.23-3.77,4.75c-.67.76-1.35,1.51-2.05,2.24a21,21,0,0,1-2.27,2.06l0-.06-.15.18-.11.09,0,0-.1.08-.21.17-.43.31c-.28.2-.57.39-.86.58-.59.36-1.19.71-1.81,1a34.14,34.14,0,0,1-3.77,1.65,47.39,47.39,0,0,1-7.9,2.16,83,83,0,0,1-16.27,1.32,74.83,74.83,0,0,1-16.2-1.81,49,49,0,0,1-7.76-2.48,35.53,35.53,0,0,1-3.66-1.81A18.78,18.78,0,0,1,69.82,119Z"/><path class="cls-12" d="M46.81,66.07c0-4.87,24.56-9.54,54.86-9.54s54.87,4.67,54.87,9.54S132,74.9,101.67,74.9s-54.86-4-54.86-8.83"/><path class="cls-13" d="M46.81,66.07a2.28,2.28,0,0,1,.77-1.56A8.2,8.2,0,0,1,49,63.44a20.66,20.66,0,0,1,3.24-1.5,57,57,0,0,1,6.85-2c4.64-1.07,9.34-1.82,14.05-2.42a260,260,0,0,1,28.44-1.76,246.72,246.72,0,0,1,28.5,1.32c4.73.51,9.46,1.17,14.15,2.15a58.55,58.55,0,0,1,7,1.87,22,22,0,0,1,3.42,1.46,9.32,9.32,0,0,1,1.65,1.13,3.42,3.42,0,0,1,1.23,2.11,2.55,2.55,0,0,1-.26,1.41,3.89,3.89,0,0,1-.72,1,7.42,7.42,0,0,1-1.66,1.19,20.09,20.09,0,0,1-3.45,1.45,60.34,60.34,0,0,1-7,1.75c-4.71.9-9.44,1.49-14.18,1.94a276.71,276.71,0,0,1-28.49,1.15c-9.5-.1-19-.55-28.45-1.55-4.72-.54-9.43-1.21-14.09-2.19a58.8,58.8,0,0,1-6.89-1.84,20.64,20.64,0,0,1-3.27-1.43,7.11,7.11,0,0,1-1.45-1,2.18,2.18,0,0,1-.79-1.55,2.17,2.17,0,0,0,.84,1.5,7.59,7.59,0,0,0,1.47,1,20.26,20.26,0,0,0,3.3,1.27,57.59,57.59,0,0,0,6.9,1.61c4.65.83,9.36,1.34,14.07,1.73,9.43.81,18.9,1.07,28.36,1s18.92-.46,28.32-1.42c4.69-.48,9.37-1.09,14-2A56.24,56.24,0,0,0,150.81,69a19.24,19.24,0,0,0,3.1-1.31,5.63,5.63,0,0,0,1.22-.88c.33-.32.43-.6.4-.76a1.54,1.54,0,0,0-.57-.85,7.38,7.38,0,0,0-1.28-.88A21.26,21.26,0,0,0,150.57,63a55.76,55.76,0,0,0-6.74-1.84c-4.58-1-9.26-1.68-13.94-2.22-9.38-1.06-18.84-1.47-28.29-1.59a265.41,265.41,0,0,0-28.34,1.19c-4.71.46-9.41,1-14.05,2a58,58,0,0,0-6.86,1.76,20.17,20.17,0,0,0-3.26,1.35,6.93,6.93,0,0,0-1.45,1A2.16,2.16,0,0,0,46.81,66.07Z"/><path class="cls-13" d="M101.62,71.37c5.73-.21,11.45-.44,17.17-.84s11.41-.87,17.06-1.72a81.92,81.92,0,0,0,8.41-1.56c.68-.17,1.37-.36,2-.58a13.88,13.88,0,0,0,1.88-.75.11.11,0,0,0,0,.18c.07.05-.09,0-.14-.07l-.22-.12a10,10,0,0,0-.94-.43c-.65-.27-1.32-.49-2-.7a80.09,80.09,0,0,0-8.34-1.92c-2.81-.53-5.64-1-8.48-1.4a102.67,102.67,0,0,1,17,2.62c.7.19,1.39.4,2.08.66a10.19,10.19,0,0,1,1,.43l.25.13a1.09,1.09,0,0,1,.32.2.74.74,0,0,1-.08,1.12,11.87,11.87,0,0,1-2.1.89c-.69.24-1.39.43-2.09.62A79.85,79.85,0,0,1,136,69.79q-8.57,1.15-17.17,1.5C113.09,71.53,107.35,71.57,101.62,71.37Z"/><path class="cls-13" d="M147.41,86a2.26,2.26,0,0,1,.11-.22s0,0,0-.05.06.05.06.06,0,.09,0,.13-.07.32-.11.48c-.09.32-.19.63-.29,1-.2.62-.42,1.24-.64,1.86-.46,1.22-1,2.43-1.47,3.64-1,2.41-2.18,4.76-3.4,7.08s-2.54,4.58-4,6.77c-.72,1.09-1.46,2.18-2.22,3.24s-1.56,2.1-2.42,3.1c1.36-2.24,2.7-4.47,4-6.74s2.55-4.54,3.76-6.84,2.41-4.61,3.59-6.93c.59-1.16,1.16-2.34,1.72-3.51.28-.59.57-1.18.84-1.77l.39-.89C147.47,86.14,147.73,85.5,147.41,86Z"/><path class="cls-12" d="M150.84,40.08c-3.6-.85-7.24-1.53-10.89-2.12s-7.31-1.11-11-1.44-7.36-.67-11.05-.82-7.39-.22-11.1-.27c1.85-.11,3.7-.24,5.55-.29s3.71-.07,5.57,0c3.71,0,7.41.33,11.11.66s7.36.92,11,1.62A88.57,88.57,0,0,1,150.84,40.08Z"/><path class="cls-12" d="M40.87,49a7.42,7.42,0,0,1,2.66-3.81,17.14,17.14,0,0,1,3.81-2.36c.67-.31,1.37-.57,2-.85s1.4-.48,2.11-.68,1.42-.4,2.14-.56l2.15-.46-2.12.58c-.71.2-1.4.45-2.09.68s-1.37.53-2,.79-1.33.6-2,1A16.52,16.52,0,0,0,44,45.7a10.42,10.42,0,0,0-1.39,1.59,5.14,5.14,0,0,0-.78,1.79Z"/><path class="cls-12" d="M130.74,123.59a31.45,31.45,0,0,1-8.87,4.06,58.15,58.15,0,0,1-9.6,1.95l-2.44.24-2.45.13c-1.63.11-3.26.07-4.89.06s-3.26-.17-4.88-.25-3.24-.36-4.85-.57c1.62,0,3.25.15,4.87.21s3.24.06,4.86,0a89.53,89.53,0,0,0,9.69-.6,65.26,65.26,0,0,0,9.53-1.76,46.83,46.83,0,0,0,4.62-1.48A26.65,26.65,0,0,0,130.74,123.59Z"/><path class="cls-12" d="M163,59.76a17.34,17.34,0,0,1,7.34,1.51,12.75,12.75,0,0,1,5.79,4.94A13.58,13.58,0,0,1,178,73.57a22.5,22.5,0,0,1-.38,3.76l-.45,1.83c-.17.6-.37,1.19-.56,1.78a31.54,31.54,0,0,0,.63-7.35,14.27,14.27,0,0,0-2-6.86A13.29,13.29,0,0,0,170,62a18.31,18.31,0,0,0-3.4-1.37A22,22,0,0,0,163,59.76Z"/><path class="cls-12" d="M153.7,98.15c1.16-.13,2.28-.35,3.4-.58a34,34,0,0,0,3.29-.89A41.39,41.39,0,0,0,166.7,94a16.35,16.35,0,0,1-2.86,2,18,18,0,0,1-3.22,1.39,18.26,18.26,0,0,1-3.43.75A13.59,13.59,0,0,1,153.7,98.15Z"/><path class="cls-12" d="M72.5,127C42.31,99.4,41.89,49.39,41.89,49.39a14.71,14.71,0,0,1-2.38-1.61S40.1,79,49.88,98.56,68.93,125.56,72.5,127Z"/><path class="cls-12" d="M41.11,52.27A18.27,18.27,0,0,0,45,54.66a38.2,38.2,0,0,0,4.33,1.78c1.47.52,3,1,4.51,1.36l2.29.55,2.32.49-2.35-.33-2.33-.4c-1.55-.31-3.1-.64-4.63-1.07a38.86,38.86,0,0,1-4.53-1.52,18.64,18.64,0,0,1-4.31-2.32Z"/><path class="cls-12" d="M40.14,55.2l1,.68c.32.19.64.39,1,.57.66.37,1.34.72,2,1a44.77,44.77,0,0,0,4.23,1.75c1.44.53,2.91,1,4.39,1.39s3,.76,4.49,1.09c-1.53-.22-3-.47-4.56-.78s-3-.67-4.51-1.1-3-.91-4.42-1.49c-.73-.29-1.45-.59-2.15-.93L40.6,56.9l-.52-.29-.26-.14c-.08,0-.21-.12-.14-.1Z"/><path class="cls-12" d="M41.58,58.85a1.27,1.27,0,0,1,.24.14l.11.08.23.17.45.31c.3.2.61.4.93.59.64.38,1.3.72,2,1a40.81,40.81,0,0,0,4.16,1.71c1.42.5,2.87.91,4.32,1.31l2.21.54,2.22.46-2.25-.31-2.24-.38c-1.49-.3-3-.61-4.45-1a42.59,42.59,0,0,1-4.35-1.44c-.71-.3-1.42-.6-2.11-1-.34-.17-.69-.35-1-.55l-.5-.3-.24-.15L41.12,60h0Z"/><path class="cls-12" d="M42.12,62.17l.22.13.13.09.23.17.44.32c.3.2.6.41.91.6.62.39,1.27.74,1.92,1.08A38.55,38.55,0,0,0,50,66.32c1.39.52,2.82.94,4.26,1.34s2.89.71,4.36,1c-1.49-.19-3-.42-4.44-.7s-2.93-.62-4.37-1a38,38,0,0,1-4.27-1.51c-.7-.3-1.39-.61-2.07-1-.34-.17-.67-.36-1-.56l-.85-.52Z"/><path class="cls-12" d="M43,66.14a4.9,4.9,0,0,1,.55.33l.45.29c.3.19.6.38.91.55.61.36,1.25.69,1.89,1a39.6,39.6,0,0,0,4,1.64c1.36.48,2.75.89,4.14,1.26s2.82.69,4.24,1c-1.44-.19-2.88-.4-4.3-.67s-2.86-.58-4.27-1a42.31,42.31,0,0,1-4.17-1.37c-.68-.28-1.36-.56-2-.89l-1-.51-.48-.26a3.39,3.39,0,0,0-.39-.21Z"/><path class="cls-12" d="M43.62,69.78c.46.23.67.4,1,.59l.89.54c.61.34,1.23.67,1.86,1a41.32,41.32,0,0,0,3.89,1.61c1.33.47,2.69.87,4.06,1.24s2.75.67,4.14,1c-1.41-.19-2.82-.39-4.21-.66s-2.79-.57-4.17-.94A39.87,39.87,0,0,1,47,72.74c-.67-.26-1.33-.55-2-.85l-1-.49c-.3-.15-.68-.37-.87-.45Z"/><path class="cls-12" d="M44,73.43c.43.2.66.37,1,.55l.88.52c.6.33,1.2.65,1.82.94A39.53,39.53,0,0,0,51.5,77c1.3.46,2.62.86,4,1.22s2.69.66,4,.94c-1.37-.17-2.75-.37-4.12-.63s-2.73-.56-4.08-.92-2.68-.8-4-1.3c-.66-.25-1.31-.53-2-.83L44.42,75c-.3-.15-.66-.34-.87-.42Z"/><path class="cls-12" d="M44.89,77.07c.72.37,1.22.7,1.82,1s1.18.63,1.79.91a37.9,37.9,0,0,0,3.73,1.53c1.27.44,2.56.85,3.87,1.19s2.63.65,4,.93c-1.35-.17-2.69-.37-4-.62s-2.67-.55-4-.9a38.68,38.68,0,0,1-3.91-1.26c-.65-.24-1.28-.51-1.91-.79s-1.29-.63-1.79-.84Z"/><path class="cls-12" d="M45.94,80.72c.69.33,1.2.66,1.79,1s1.16.6,1.75.88c1.19.55,2.4,1.05,3.64,1.49a58.76,58.76,0,0,0,7.65,2.08,60,60,0,0,1-7.83-1.48c-1.29-.34-2.57-.75-3.83-1.22-.63-.23-1.25-.49-1.86-.76s-1.26-.59-1.77-.79Z"/><path class="cls-12" d="M47.22,84.36c1.25.63,2.29,1.24,3.47,1.78a37,37,0,0,0,3.57,1.44,57.5,57.5,0,0,0,7.46,2,58.89,58.89,0,0,1-7.65-1.44c-1.26-.33-2.51-.73-3.74-1.18s-2.47-1-3.57-1.48Z"/><path class="cls-12" d="M47.56,88c1.22.59,2.25,1.18,3.41,1.7s2.29,1,3.48,1.4a56.32,56.32,0,0,0,7.28,2,57.75,57.75,0,0,1-7.47-1.39c-1.23-.33-2.45-.7-3.65-1.14s-2.42-1-3.51-1.4Z"/><path class="cls-12" d="M48.84,91.65c1.17.56,2.2,1.13,3.33,1.63s2.24,1,3.4,1.36a55.63,55.63,0,0,0,7.1,2,57,57,0,0,1-7.29-1.36q-1.8-.46-3.57-1.08c-1.16-.4-2.35-.92-3.44-1.33Z"/><path class="cls-12" d="M50.66,95.3c1.14.53,2.16,1.07,3.26,1.55s2.2.92,3.32,1.32a56.36,56.36,0,0,0,6.93,1.92,55.59,55.59,0,0,1-7.11-1.32c-1.17-.3-2.34-.64-3.48-1s-2.3-.86-3.38-1.26Z"/><path class="cls-12" d="M52.71,98.94c1.1.51,2.11,1,3.18,1.49s2.15.89,3.24,1.27a57.63,57.63,0,0,0,6.75,1.88A59,59,0,0,1,59,102.31c-1.14-.29-2.27-.62-3.4-1s-2.23-.81-3.3-1.19Z"/><path class="cls-12" d="M54.17,102.59c1.06.48,2.06,1,3.1,1.42s2.1.85,3.17,1.22A56.51,56.51,0,0,0,67,107.06a57.54,57.54,0,0,1-6.75-1.22c-1.12-.28-2.22-.59-3.32-1s-2.18-.76-3.23-1.13Z"/><path class="cls-12" d="M55.87,106.23a54.2,54.2,0,0,0,12.5,4.32,57.3,57.3,0,0,1-6.57-1.18,63,63,0,0,1-6.39-2Z"/><path class="cls-12" d="M57,109.88a62.3,62.3,0,0,0,5.95,2.42A59.62,59.62,0,0,0,69.13,114a60.62,60.62,0,0,1-6.39-1.13,61.45,61.45,0,0,1-6.25-1.86Z"/><path class="cls-12" d="M59.41,113.52a57.53,57.53,0,0,0,11.84,4A58.79,58.79,0,0,1,59,114.7Z"/><path class="cls-12" d="M62.74,117.17A59.29,59.29,0,0,0,74.24,121a60,60,0,0,1-12-2.67Z"/><path class="cls-12" d="M66,120.81a60.19,60.19,0,0,0,11.17,3.69A61.06,61.06,0,0,1,65.57,122Z"/><path class="cls-12" d="M39.55,47.25a10.37,10.37,0,0,0,3.09,2.45l1.77.9,1.84.76c.6.28,1.25.44,1.87.66s1.24.45,1.89.61c1.29.32,2.55.72,3.85,1a131.93,131.93,0,0,0,15.71,2.46c5.28.51,10.58.89,15.89,1.07,2.66.06,5.31.23,8,.24l8,.08c10.64,0,21.27-.3,31.84-1.32l2-.18,2-.26,3.94-.51c2.62-.44,5.24-.85,7.81-1.47a54.55,54.55,0,0,0,7.62-2.24l1.82-.78c.6-.28,1.17-.61,1.76-.92a9.19,9.19,0,0,0,3-2.53A9.37,9.37,0,0,1,160.31,50c-.58.34-1.14.71-1.73,1l-1.8.9a55.53,55.53,0,0,1-7.58,2.69c-2.59.75-5.21,1.27-7.84,1.82l-4,.65-2,.31-2,.24a267.89,267.89,0,0,1-32,1.77,265.61,265.61,0,0,1-32-1.84,114.07,114.07,0,0,1-15.77-3.06c-1.3-.34-2.56-.82-3.84-1.21-.64-.2-1.25-.48-1.88-.72s-1.26-.46-1.86-.77L44.23,51l-1.74-1A10.58,10.58,0,0,1,39.55,47.25Z"/><path class="cls-12" d="M101.36,45.32a25.68,25.68,0,0,1-7.66-10,15.65,15.65,0,0,1-1.09-6.5,12.49,12.49,0,0,1,.64-3.34,14.47,14.47,0,0,1,1.46-3c1.2-1.84,2.51-3.38,3.46-5.06A23.31,23.31,0,0,0,100.45,12a25.8,25.8,0,0,0,.88-5.9A26.9,26.9,0,0,0,100.76,0a19.42,19.42,0,0,1,1.81,6,22.18,22.18,0,0,1-.19,6.4,22.56,22.56,0,0,1-2.11,6.14c-1,1.95-2.4,3.59-3.42,5.24-2.18,3.13-2.36,7.14-1.29,10.9S99,41.93,101.36,45.32Z"/><path class="cls-12" d="M104.53,24.07a10.28,10.28,0,0,0-2,5.05,12.84,12.84,0,0,0,.46,5.31c.55,1.72,1.34,3.45,1.83,5.33a9.66,9.66,0,0,1-.08,5.71,13.7,13.7,0,0,0-.91-5.41c-.61-1.72-1.48-3.39-2-5.27a11.68,11.68,0,0,1-.19-5.84A8.61,8.61,0,0,1,104.53,24.07Z"/></g></g></svg>