<svg xmlns="http://www.w3.org/2000/svg" viewBox="0 0 163.52 169.13"><defs><style>.cls-1{font-size:20px;font-family:RistrettoSlabPro-Regular, RistrettoSlabPro Regular;letter-spacing:0.01em;}.cls-1,.cls-13,.cls-8{fill:#343436;}.cls-2{letter-spacing:0.01em;}.cls-3{letter-spacing:0em;}.cls-4{letter-spacing:0.03em;}.cls-5{letter-spacing:-0.05em;}.cls-6{letter-spacing:0em;}.cls-7{letter-spacing:0.02em;}.cls-8{font-size:12px;font-family:NexaRustScriptL-0, "NexaRustScriptL 0";}.cls-9{letter-spacing:-0.01em;}.cls-10{letter-spacing:0em;}.cls-11{letter-spacing:0em;}.cls-12{letter-spacing:-0.01em;}.cls-14{fill:#e2e2e2;}.cls-15{fill:#f4f4f4;}</style></defs><g id="Capa_2" data-name="Capa 2"><g id="Objects"><text class="cls-1" transform="translate(11.49 164.13)">M<tspan class="cls-2" x="16.38" y="0">A</tspan><tspan class="cls-3" x="28.82" y="0">C</tspan><tspan class="cls-4" x="40.5" y="0">CHI</tspan><tspan class="cls-5" x="71.42" y="0">A</tspan><tspan class="cls-6" x="82.62" y="0">T</tspan><tspan class="cls-7" x="92.52" y="0">O</tspan></text><text class="cls-8" transform="translate(91.23 10.04)"><tspan xml:space="preserve">    Esp</tspan><tspan class="cls-9" x="27.66" y="0">r</tspan><tspan class="cls-10" x="31.46" y="0">esso</tspan><tspan class="cls-11" x="0" y="10.37">D</tspan><tspan x="8.04" y="10.37">ot of </tspan><tspan class="cls-12" x="33.78" y="10.37">f</tspan><tspan class="cls-10" x="37.13" y="10.37">oamed</tspan><tspan x="0" y="20.73" xml:space="preserve">               milk</tspan></text><path class="cls-13" d="M.8,84.41A115.49,115.49,0,0,0,4.67,95.65a100.85,100.85,0,0,0,5.07,10.72A98.6,98.6,0,0,0,16,116.46a113.38,113.38,0,0,0,7.29,9.39,76.31,76.31,0,0,1-7.82-9A86.67,86.67,0,0,1,9,106.77,88.78,88.78,0,0,1,4.07,95.88,77.69,77.69,0,0,1,.8,84.41Z"/><path class="cls-13" d="M90.27,30.83a52.5,52.5,0,0,1,7.93.07,58.41,58.41,0,0,1,15.51,3.42,53.35,53.35,0,0,1,7.23,3.27c-2.46-1-4.93-1.88-7.44-2.66s-5-1.49-7.61-2-5.15-1-7.75-1.36S92.9,31,90.27,30.83Z"/><path class="cls-13" d="M121.75,109.22c1.34-.45,2.67-.89,4-1.41s2.56-1.07,3.79-1.71a40.28,40.28,0,0,0,3.59-2.08c1.16-.75,2.27-1.59,3.39-2.45a18.51,18.51,0,0,1-3,3,21.61,21.61,0,0,1-3.58,2.3,22.73,22.73,0,0,1-4,1.57A20.61,20.61,0,0,1,121.75,109.22Z"/><path class="cls-14" d="M124.24,57v-.44c0,.85-.1,5.93-.56,10,.29,0,14.1,0,10.2,14.64a19.55,19.55,0,0,1-17.67,14.92,50.32,50.32,0,0,1-5.45,9.92c4.88.18,24.91-.45,31.05-22C148.64,60.11,128.19,57.3,124.24,57Z"/><path class="cls-13" d="M124.24,57v-.44h0c0,3.35,0,6.7-.29,10.06l-.29-.33a14.88,14.88,0,0,1,5.77,1.14,9.33,9.33,0,0,1,4.48,3.94,12.57,12.57,0,0,1,.64,1.4l.41,1.47c.08.5.11,1,.17,1.5a6.36,6.36,0,0,1,0,1.51l-.08,1.49-.28,1.46a14.57,14.57,0,0,1-.31,1.46l-.43,1.42-.22.71-.28.68L133,85.83c-.21.44-.47.87-.71,1.31a8.7,8.7,0,0,1-.79,1.27,17.93,17.93,0,0,1-4.1,4.37,21.5,21.5,0,0,1-11.09,4.29l.82-.6a48.37,48.37,0,0,1-2.49,5.24q-1.39,2.52-3,4.91l-.77-1.55a33,33,0,0,0,18.38-4.8,27.16,27.16,0,0,0,7-6.48c.48-.64.88-1.34,1.32-2l.65-1,.53-1.09,1-2.18.82-2.28a20.25,20.25,0,0,0,.75-2.32l.32-1.17.25-1.19a29.05,29.05,0,0,0,.62-4.81,17.64,17.64,0,0,0-1.94-9.29,16.37,16.37,0,0,0-6.91-6.6A23.78,23.78,0,0,0,129.08,58,28.33,28.33,0,0,0,124.24,57Zm0,0a25.83,25.83,0,0,1,9.65,2.36,17,17,0,0,1,7.56,6.59,18.72,18.72,0,0,1,2.41,9.84,30.45,30.45,0,0,1-.52,5l-.23,1.25-.3,1.23a21,21,0,0,1-.71,2.43l-.8,2.41-1.08,2.31-.54,1.16L139,92.7c-.46.71-.87,1.47-1.38,2.15a27.85,27.85,0,0,1-7.41,7,31.05,31.05,0,0,1-9.37,4A36.31,36.31,0,0,1,110.73,107l-1.81-.06,1-1.48a51.14,51.14,0,0,0,3-4.72,48.66,48.66,0,0,0,2.41-5l.22-.55.59,0a19.75,19.75,0,0,0,10.18-3.77,18.33,18.33,0,0,0,6.36-8.83l.44-1.32c.15-.45.21-.91.32-1.36l.3-1.36.12-1.38a5.73,5.73,0,0,0,0-1.37c0-.45-.05-.91-.1-1.36l-.32-1.31a9.57,9.57,0,0,0-.52-1.24,8.52,8.52,0,0,0-3.87-3.68,14.18,14.18,0,0,0-5.41-1.34l-.33,0,0-.31c.43-3.3.65-6.65.84-10h0Z"/><path class="cls-14" d="M112.72,102.66a112.28,112.28,0,0,0,10.56-34.42h0c.76-4.84,1.13-10.89,1.19-11.9.28-5.07.14-8.15.14-8.15s1.16-14.36-62.41-14.36S1,48.19,1,48.19s-2.18,46.18,26.55,75.27c0,0,9.22,9.9,35.25,9.9,25.73,0,34.35-9.2,34.35-9.2a25.11,25.11,0,0,0,2.38-2.23,76.33,76.33,0,0,0,6.08-7.41h0a74.3,74.3,0,0,0,7-11.52Z"/><path class="cls-13" d="M112.72,102.66a112.06,112.06,0,0,0,10.44-34.43l0-.1h.12l-.12.09c.49-3.31.8-6.65,1-10a90.8,90.8,0,0,0,.2-10v0a5.83,5.83,0,0,0-1.88-3.37,16.81,16.81,0,0,0-3.25-2.41l-1.81-.94c-.6-.32-1.26-.53-1.89-.8s-1.26-.52-1.91-.74l-2-.61a93.79,93.79,0,0,0-16.12-3.16,273.73,273.73,0,0,0-32.9-1.57,295.06,295.06,0,0,0-32.86,1.9L25.76,37l-4,.75c-.67.13-1.35.23-2,.39l-2,.49c-1.32.34-2.65.62-3.92,1.08A35.07,35.07,0,0,0,10,41.1l-1.85.79-1.72,1A12,12,0,0,0,4.85,44a9,9,0,0,0-1.41,1.26,3.18,3.18,0,0,0-.57.71,3.29,3.29,0,0,0-.47.74,3,3,0,0,0-.31.76,3,3,0,0,0-.08.36A1.3,1.3,0,0,1,2,48l0,.2a119,119,0,0,0,1.17,19.2A125.86,125.86,0,0,0,7.26,86.26c3.72,12.28,9.49,24.08,17.94,33.8,3.87,5.23,9.88,8,16,10a72.45,72.45,0,0,0,19,3,86.71,86.71,0,0,0,19.3-1.35A53.42,53.42,0,0,0,88.8,129a27.17,27.17,0,0,0,8.3-4.87h0l2.34-2.18c.74-.77,1.45-1.57,2.15-2.38,1.4-1.62,2.72-3.3,4-5l0,0h.08s0,0,0,.06,0,0,0,0h-.17s0,0,0-.07h.11l0,0q2-2.73,3.77-5.59a57.61,57.61,0,0,0,3.27-5.91h0Zm0,0-.1.34h0a56.73,56.73,0,0,1-3.23,5.93q-1.76,2.88-3.74,5.62v0h-.08s0-.08,0-.07,0,0,0,0h.11s0,0,0,0,0,.06,0,.06h0l0,0c-1.25,1.74-2.56,3.43-4,5.06-.7.82-1.41,1.62-2.14,2.4l-2.34,2.21h0a27.45,27.45,0,0,1-8.34,5A54,54,0,0,1,79.57,132a90.54,90.54,0,0,1-19.37,1.63,73.26,73.26,0,0,1-19.29-2.7,44.92,44.92,0,0,1-9.07-3.71,26,26,0,0,1-4.1-2.79A24.16,24.16,0,0,1,26,122.63c-.56-.59-1.14-1.17-1.68-1.78A91.17,91.17,0,0,1,5.6,86.77,127.3,127.3,0,0,1,1.34,67.69,120.22,120.22,0,0,1,0,48.14v.21a3.85,3.85,0,0,1,.14-1.43,5.38,5.38,0,0,1,.45-1.16,5.12,5.12,0,0,1,.63-1A4.81,4.81,0,0,1,2,43.88,10,10,0,0,1,3.64,42.4a14,14,0,0,1,1.81-1.22l1.88-1,2-.82a34.12,34.12,0,0,1,4-1.41c1.32-.47,2.69-.75,4-1.09l2-.49c.68-.16,1.37-.26,2.05-.39l4.1-.73,4.12-.53a265.36,265.36,0,0,1,33.09-1.57,276.19,276.19,0,0,1,33,2.1,94.38,94.38,0,0,1,16.2,3.45l2,.64c.65.24,1.28.53,1.92.79s1.3.5,1.91.84l1.83,1a17,17,0,0,1,3.32,2.54,6.07,6.07,0,0,1,1.95,3.73v0c.08,3.37-.08,6.72-.32,10.07s-.58,6.69-1.1,10v.1h-.12l.12-.09A112.51,112.51,0,0,1,112.72,102.66Z"/><path class="cls-15" d="M10.24,79.15,116,78.9A104,104,0,0,1,110,96.32c-4,3.6-23.58,6.35-47.21,6.35-23.88,0-43.14-2.8-46.79-6.47a105,105,0,0,1-5.53-16.1"/><path class="cls-13" d="M10.24,79.15c8.81-.22,17.62-.34,26.43-.5l26.42-.33c8.81-.11,17.62-.21,26.43-.24l26.42-.14a1,1,0,0,1,1,1,2,2,0,0,1,0,.24,99.84,99.84,0,0,1-6,17.59v0a.89.89,0,0,1-.22.29,10.35,10.35,0,0,1-2.89,1.65,27.22,27.22,0,0,1-2.93,1c-2,.56-4,1-5.94,1.32-4,.71-8,1.18-11.94,1.54-8,.71-16,1-24,1s-16-.44-24-1.25c-4-.42-8-.93-11.9-1.7-2-.4-3.92-.86-5.85-1.45a25,25,0,0,1-2.85-1,9.11,9.11,0,0,1-2.63-1.64.7.7,0,0,1-.06-.09A102,102,0,0,1,10.49,80.1a112,112,0,0,0,5.8,16L16.23,96a8.37,8.37,0,0,0,2.47,1.43c.91.36,1.85.66,2.8.93,1.91.52,3.85.91,5.81,1.24,3.91.67,7.86,1.12,11.83,1.46,7.93.66,15.89.86,23.85.79s15.92-.36,23.83-1.12c4-.39,7.89-.88,11.77-1.59,1.94-.37,3.88-.77,5.75-1.32a24.18,24.18,0,0,0,2.72-.93,8.27,8.27,0,0,0,2.3-1.29l-.23.32A106.49,106.49,0,0,0,115,78.67l.94,1.19-26.43,0c-8.81,0-17.62,0-26.42-.11l-26.43-.2C27.86,79.41,19.05,79.33,10.24,79.15Z"/><path class="cls-15" d="M10.23,79c0-4.72,23.56-9.23,52.9-9.23s52.69,4.51,52.69,9.23-23.35,8.55-52.69,8.55S10.23,83.69,10.23,79"/><path class="cls-13" d="M10.23,79a2.17,2.17,0,0,1,.74-1.5,7,7,0,0,1,1.37-1A20,20,0,0,1,15.45,75,54.56,54.56,0,0,1,22,73a134.72,134.72,0,0,1,13.53-2.35A248,248,0,0,1,63,69a235.1,235.1,0,0,1,27.44,1.25A137,137,0,0,1,104,72.32a55.8,55.8,0,0,1,6.73,1.81A21.36,21.36,0,0,1,114,75.55a9.27,9.27,0,0,1,1.59,1.1,3.4,3.4,0,0,1,1.18,2.07,2.46,2.46,0,0,1-.24,1.36,3.78,3.78,0,0,1-.7,1,7.1,7.1,0,0,1-1.6,1.17,18.63,18.63,0,0,1-3.32,1.4,56.08,56.08,0,0,1-6.75,1.71c-4.53.87-9.09,1.44-13.65,1.88A267.59,267.59,0,0,1,63.1,88.29c-9.14-.11-18.29-.53-27.39-1.51-4.54-.53-9.08-1.18-13.56-2.13a56.9,56.9,0,0,1-6.63-1.78,19.59,19.59,0,0,1-3.14-1.39,7,7,0,0,1-1.4-1,2.16,2.16,0,0,1-.75-1.5,2.11,2.11,0,0,0,.8,1.45,7.89,7.89,0,0,0,1.42.93,19.62,19.62,0,0,0,3.17,1.23,55.93,55.93,0,0,0,6.63,1.55c4.49.8,9,1.3,13.56,1.67,9.07.78,18.19,1,27.29,1s18.22-.44,27.26-1.37c4.52-.46,9-1,13.46-1.94a54.34,54.34,0,0,0,6.5-1.68,17.26,17.26,0,0,0,3-1.28,5.26,5.26,0,0,0,1.15-.84c.31-.31.4-.57.37-.71a1.43,1.43,0,0,0-.53-.81,6.73,6.73,0,0,0-1.22-.85,19.45,19.45,0,0,0-3-1.3,55.79,55.79,0,0,0-6.48-1.79c-4.41-1-8.91-1.62-13.42-2.14-9-1-18.14-1.41-27.24-1.54a253.66,253.66,0,0,0-27.28,1.15,136.34,136.34,0,0,0-13.51,1.9,55.72,55.72,0,0,0-6.61,1.7,19.52,19.52,0,0,0-3.13,1.31,6.44,6.44,0,0,0-1.4,1A2.12,2.12,0,0,0,10.23,79Z"/><path class="cls-13" d="M63.07,84.1c5.55-.21,11.1-.44,16.63-.82s11-.85,16.52-1.67a78.68,78.68,0,0,0,8.13-1.51c.67-.17,1.33-.35,2-.56a12.4,12.4,0,0,0,1.81-.72.12.12,0,0,0,0,.19c.07,0-.08,0-.13-.06l-.22-.12a8.42,8.42,0,0,0-.91-.42c-.62-.26-1.27-.47-1.93-.68a78,78,0,0,0-8.07-1.85c-2.72-.53-5.47-.94-8.21-1.37A99.44,99.44,0,0,1,105.15,77c.67.19,1.35.39,2,.64a9.63,9.63,0,0,1,1,.42l.24.12a1.39,1.39,0,0,1,.32.2.73.73,0,0,1-.09,1.11,12.31,12.31,0,0,1-2,.86c-.67.23-1.34.42-2,.6a77.47,77.47,0,0,1-8.22,1.61Q88.08,83.7,79.74,84C74.18,84.26,68.63,84.3,63.07,84.1Z"/><path class="cls-13" d="M12.79,87.85c5.39,15.75,11.37,24.84,18.48,32,.09.08,8.55,8.32,31.54,8.32,22.63,0,30.58-7.58,30.59-7.58l.15-.18.33-.27a19,19,0,0,0,1.89-1.77,70.71,70.71,0,0,0,4.67-5.56l2.51-3.49a67.88,67.88,0,0,0,4.83-8.19l.14-.45.2-.39c.67-1.31,4.43-8.63,5.09-12.1-4,3.61-26.77,7.13-50.4,7.13C38.93,95.36,16.45,91.51,12.79,87.85Z"/><path class="cls-13" d="M12.79,87.85c2.93,8,6.44,15.88,11.34,22.85q1.85,2.6,3.93,5c.69.81,1.41,1.59,2.14,2.36l1.11,1.14.28.28a3.27,3.27,0,0,0,.27.24c.19.16.4.32.6.47a27.67,27.67,0,0,0,5.5,3,41.26,41.26,0,0,0,6,2,65.15,65.15,0,0,0,12.51,1.94,92.66,92.66,0,0,0,12.69-.08,67,67,0,0,0,12.47-2A40.14,40.14,0,0,0,87.52,123a28.82,28.82,0,0,0,2.78-1.39c.43-.26.88-.52,1.29-.81l.62-.44.29-.22c.12-.09.1-.1.43-.35l-.26.21.15-.17.06-.07.07-.06a18.75,18.75,0,0,0,2.11-2c.68-.73,1.33-1.47,2-2.23,1.29-1.52,2.5-3.05,3.64-4.7s2.28-3.24,3.33-4.93a58.61,58.61,0,0,0,2.9-5.15l-.05.12.14-.44,0-.09,0-.07c1-2,2-4,3-6.07.45-1,.9-2,1.3-3.08a21.32,21.32,0,0,0,1-3.08l1.58.88a10.55,10.55,0,0,1-3.09,1.7,30.85,30.85,0,0,1-3.13,1c-2.09.59-4.2,1-6.31,1.44-4.23.78-8.48,1.35-12.74,1.79A221.76,221.76,0,0,1,63,96.06a220.76,220.76,0,0,1-25.58-1.68c-4.24-.56-8.47-1.23-12.64-2.14-2.09-.46-4.17-1-6.21-1.62a31.7,31.7,0,0,1-3-1.11A9.38,9.38,0,0,1,12.79,87.85Zm0,0a9.34,9.34,0,0,0,2.78,1.54,31.48,31.48,0,0,0,3,1c2,.56,4.13,1,6.22,1.4,4.18.78,8.41,1.32,12.64,1.74A241.07,241.07,0,0,0,63,94.66c8.5-.1,17-.61,25.44-1.52,4.22-.47,8.43-1,12.58-1.85,2.08-.41,4.14-.86,6.15-1.44a30.89,30.89,0,0,0,2.95-1,9.15,9.15,0,0,0,2.49-1.35l2.14-1.83-.55,2.71a21.89,21.89,0,0,1-1.05,3.41c-.42,1.09-.87,2.14-1.34,3.19-.93,2.09-1.94,4.14-3,6.16l.06-.15-.14.45,0,.06,0,.06a59.15,59.15,0,0,1-3,5.37c-1,1.74-2.23,3.42-3.42,5a59.94,59.94,0,0,1-3.77,4.81c-.66.77-1.34,1.53-2,2.27a22.92,22.92,0,0,1-2.31,2.12l.12-.13-.14.18-.26.21c.14-.07-.09.09-.18.17l-.35.27c-.22.17-.46.33-.69.49-.46.32-1,.59-1.42.87-1,.54-2,1-3,1.47a43.43,43.43,0,0,1-6.19,2.11,68.13,68.13,0,0,1-12.82,2c-2.15.17-4.31.18-6.46.21s-4.31-.1-6.46-.32a65.87,65.87,0,0,1-12.75-2.23,43.16,43.16,0,0,1-6.1-2.21A28.48,28.48,0,0,1,31.84,121c-.22-.17-.43-.33-.65-.52l-.32-.3-.28-.3-1.1-1.18c-.72-.8-1.42-1.61-2.1-2.44a64.31,64.31,0,0,1-3.85-5.18A93.34,93.34,0,0,1,12.79,87.85Z"/><path class="cls-13" d="M.8,48.79a10.25,10.25,0,0,0,3.09,2.46l1.77.9,1.83.76c.61.27,1.26.44,1.88.66s1.24.45,1.89.6c1.29.32,2.55.72,3.85,1a130,130,0,0,0,15.71,2.47c5.28.5,10.58.89,15.89,1.06,2.66.07,5.31.24,8,.25l8,.07c10.64,0,21.27-.3,31.84-1.31l2-.18,2-.26,3.94-.51c2.62-.44,5.24-.85,7.81-1.47A54.55,54.55,0,0,0,117.82,53l1.82-.78c.6-.28,1.17-.62,1.76-.92a9.22,9.22,0,0,0,3-2.54,9.37,9.37,0,0,1-2.85,2.79c-.58.35-1.14.72-1.73,1l-1.8.9a56.91,56.91,0,0,1-7.58,2.69c-2.59.74-5.21,1.26-7.84,1.82l-4,.64-2,.32-2,.24a265.81,265.81,0,0,1-32,1.76,263.58,263.58,0,0,1-32-1.84,112.61,112.61,0,0,1-15.77-3.06c-1.3-.33-2.56-.81-3.84-1.21-.64-.19-1.25-.48-1.88-.71s-1.26-.47-1.86-.78l-1.81-.87-1.74-1A10.29,10.29,0,0,1,.8,48.79Z"/><path class="cls-13" d="M3.48,51a5.48,5.48,0,0,1,.95-1.69,7.87,7.87,0,0,1,.6-.68A6.41,6.41,0,0,1,5.68,48,16.19,16.19,0,0,1,8.6,46a34.22,34.22,0,0,1,6.48-2.69,66.15,66.15,0,0,1,6.79-1.58c1.15-.17,2.29-.4,3.45-.53l3.45-.41-3.44.53c-1.14.17-2.27.44-3.41.66a64.06,64.06,0,0,0-6.69,1.8A34.36,34.36,0,0,0,9,46.62a15.56,15.56,0,0,0-2.7,2,6.51,6.51,0,0,0-.58.6,7.67,7.67,0,0,0-.52.64,4.74,4.74,0,0,0-.73,1.35Z"/><path class="cls-13" d="M112.45,43.75a60.59,60.59,0,0,0-9.22-1.9c-3.11-.48-6.24-.79-9.36-1.08q-9.39-.83-18.82-1.17c-6.28-.24-12.59-.44-18.88-.43s-12.6,0-18.9.36c3.13-.37,6.28-.6,9.43-.78s6.3-.34,9.46-.4,6.31-.12,9.46-.13c1.58,0,3.16-.08,4.73-.08l4.74,0A187.08,187.08,0,0,1,94,39.48c3.14.39,6.26.92,9.36,1.55,1.56.29,3.09.7,4.61,1.13A29.32,29.32,0,0,1,112.45,43.75Z"/><path class="cls-13" d="M111.62,41.24c-3.61-.85-7.24-1.53-10.89-2.12s-7.31-1.11-11-1.44-7.37-.67-11.06-.82-7.39-.22-11.1-.27c1.85-.11,3.7-.24,5.56-.29s3.71-.07,5.56,0c3.71,0,7.42.33,11.11.66s7.37.92,11,1.62A88.72,88.72,0,0,1,111.62,41.24Z"/><path class="cls-13" d="M1.64,50.13a7.52,7.52,0,0,1,2.67-3.82A16.69,16.69,0,0,1,8.12,44c.67-.31,1.36-.57,2.05-.85s1.39-.48,2.1-.68,1.42-.4,2.14-.56l2.16-.46L14.44,42c-.7.2-1.39.45-2.09.68s-1.36.53-2,.79-1.33.6-2,.95A17,17,0,0,0,4.8,46.86a9.84,9.84,0,0,0-1.38,1.59,5,5,0,0,0-.79,1.79Z"/><path class="cls-13" d="M91.52,124.75a31.64,31.64,0,0,1-8.88,4.06,58.15,58.15,0,0,1-9.6,1.95L70.6,131l-2.44.13c-1.63.11-3.27.07-4.9.06s-3.25-.16-4.88-.25-3.24-.36-4.85-.57c1.63,0,3.25.15,4.87.21s3.25.07,4.87,0A87.06,87.06,0,0,0,73,130a65.76,65.76,0,0,0,9.53-1.76,44.32,44.32,0,0,0,4.62-1.48A27,27,0,0,0,91.52,124.75Z"/><path class="cls-13" d="M124.4,60.7a17.39,17.39,0,0,1,7.35,1.51,12.67,12.67,0,0,1,5.78,4.94,13.5,13.5,0,0,1,1.89,7.36,24.69,24.69,0,0,1-.38,3.76l-.45,1.83c-.18.6-.37,1.2-.57,1.79a31.1,31.1,0,0,0,.63-7.36,14.26,14.26,0,0,0-2-6.86,13.27,13.27,0,0,0-5.27-4.77,18,18,0,0,0-3.4-1.38A21.85,21.85,0,0,0,124.4,60.7Z"/><path class="cls-13" d="M115.16,99.09a34.26,34.26,0,0,0,3.39-.58,33.41,33.41,0,0,0,3.3-.89,40.31,40.31,0,0,0,6.3-2.69,15.76,15.76,0,0,1-2.85,2,18,18,0,0,1-3.22,1.39,18.43,18.43,0,0,1-3.43.75A13.16,13.16,0,0,1,115.16,99.09Z"/><path class="cls-13" d="M34,127.89C3.76,100.34,3.34,50.33,3.34,50.33A15,15,0,0,1,1,48.72S1.56,79.93,11.33,99.5,30.39,126.5,34,127.89Z"/><path class="cls-13" d="M2.56,53.21A18.09,18.09,0,0,0,6.42,55.6a38,38,0,0,0,4.32,1.78c1.48.53,3,.95,4.51,1.36l2.3.55,2.31.49-2.34-.33-2.34-.4c-1.55-.31-3.1-.64-4.62-1.07A37.07,37.07,0,0,1,6,56.46a18.91,18.91,0,0,1-4.32-2.32Z"/><path class="cls-13" d="M1.6,56.14l1,.68c.32.19.64.39,1,.57.66.37,1.34.72,2,1,1.38.66,2.8,1.23,4.24,1.75s2.91,1,4.39,1.39,3,.76,4.49,1.09c-1.53-.22-3.05-.47-4.57-.78s-3-.66-4.51-1.1-3-.91-4.42-1.48c-.72-.3-1.44-.6-2.15-.94l-1-.53-.53-.29-.25-.14c-.08,0-.21-.12-.15-.1Z"/><path class="cls-13" d="M3,59.79l.24.14.12.08.22.17.46.31c.3.2.61.4.93.59.63.38,1.29.72,2,1.05a39.9,39.9,0,0,0,4.16,1.71c1.41.5,2.86.92,4.32,1.31l2.2.54,2.22.47-2.25-.32-2.24-.38c-1.49-.3-3-.61-4.44-1A41.79,41.79,0,0,1,6.58,63c-.71-.3-1.42-.6-2.11-1-.35-.17-.69-.35-1-.55l-.5-.3L2.69,61,2.57,61s0,0,0,0Z"/><path class="cls-13" d="M3.57,63.11l.23.13.12.09.23.17.45.32c.3.2.6.41.91.6.62.39,1.26.74,1.91,1.08a38.71,38.71,0,0,0,4.07,1.76c1.39.52,2.82.94,4.25,1.34s2.9.71,4.36,1c-1.48-.19-3-.42-4.43-.7s-2.93-.62-4.38-1A37.39,37.39,0,0,1,7,66.35c-.69-.3-1.39-.61-2.06-1-.34-.17-.67-.36-1-.56l-.85-.52Z"/><path class="cls-13" d="M4.47,67.08a5.22,5.22,0,0,1,.56.33l.45.29c.3.2.6.38.91.56q.92.52,1.89,1a38.65,38.65,0,0,0,4,1.64c1.36.49,2.74.89,4.14,1.27s2.81.68,4.24,1c-1.44-.19-2.88-.4-4.31-.67s-2.85-.58-4.26-1A41.46,41.46,0,0,1,7.9,70.12c-.69-.27-1.37-.56-2-.89-.33-.16-.67-.33-1-.51l-.48-.26L4,68.25Z"/><path class="cls-13" d="M5.07,70.72c.46.23.67.4,1,.59l.9.54c.61.34,1.22.67,1.85,1a41.51,41.51,0,0,0,3.9,1.61c1.33.47,2.69.87,4.05,1.24s2.75.67,4.15,1c-1.41-.19-2.82-.39-4.22-.65s-2.79-.58-4.17-1a40.51,40.51,0,0,1-4.08-1.34c-.67-.26-1.34-.55-2-.85l-1-.49c-.3-.15-.69-.37-.87-.45Z"/><path class="cls-13" d="M5.47,74.37a9.87,9.87,0,0,1,1,.55l.89.52c.59.33,1.2.65,1.82.94A38.51,38.51,0,0,0,13,77.94c1.3.46,2.62.86,4,1.22s2.69.66,4,.94c-1.38-.17-2.75-.37-4.12-.63s-2.73-.56-4.08-.92a40.55,40.55,0,0,1-4-1.3c-.66-.25-1.3-.53-1.95-.83l-1-.46c-.3-.15-.66-.34-.86-.42Z"/><path class="cls-13" d="M6.35,78c.72.37,1.21.7,1.82,1s1.18.63,1.79.91a37.73,37.73,0,0,0,3.72,1.53c1.28.44,2.57.85,3.87,1.19s2.63.65,4,.93c-1.34-.17-2.69-.37-4-.62s-2.67-.55-4-.89-2.63-.78-3.92-1.27c-.64-.24-1.27-.51-1.9-.79s-1.29-.63-1.8-.84Z"/><path class="cls-13" d="M7.4,81.66c.69.33,1.19.66,1.79,1s1.15.6,1.75.88c1.18.55,2.4,1,3.64,1.49a58.76,58.76,0,0,0,7.65,2.08,60.46,60.46,0,0,1-7.84-1.48c-1.29-.34-2.56-.75-3.82-1.22-.63-.23-1.25-.49-1.87-.76S7.45,83,6.93,82.83Z"/><path class="cls-13" d="M8.68,85.3c1.25.63,2.28,1.24,3.47,1.78s2.35,1,3.56,1.45a59.25,59.25,0,0,0,7.47,2,58.89,58.89,0,0,1-7.65-1.44A38.57,38.57,0,0,1,11.79,88c-1.22-.43-2.48-1-3.57-1.47Z"/><path class="cls-13" d="M9,89c1.21.59,2.25,1.18,3.4,1.7s2.3,1,3.48,1.4a56.47,56.47,0,0,0,7.29,2,57.75,57.75,0,0,1-7.47-1.39c-1.23-.33-2.45-.7-3.66-1.14s-2.41-1-3.5-1.4Z"/><path class="cls-13" d="M10.29,92.59c1.18.56,2.21,1.13,3.33,1.63s2.25,1,3.4,1.36a55.78,55.78,0,0,0,7.11,2,56.68,56.68,0,0,1-7.29-1.36q-1.8-.47-3.57-1.08c-1.17-.4-2.35-.92-3.44-1.33Z"/><path class="cls-13" d="M12.12,96.24c1.14.53,2.16,1.07,3.26,1.55s2.19.93,3.32,1.32A56.2,56.2,0,0,0,25.62,101a55.76,55.76,0,0,1-7.1-1.32c-1.18-.3-2.34-.64-3.49-1s-2.29-.86-3.37-1.26Z"/><path class="cls-13" d="M14.17,99.88c1.1.51,2.11,1,3.18,1.49s2.14.89,3.24,1.27a57.63,57.63,0,0,0,6.75,1.88,58.6,58.6,0,0,1-6.93-1.27c-1.14-.29-2.28-.62-3.4-1s-2.24-.81-3.31-1.19Z"/><path class="cls-13" d="M15.63,103.53c1,.48,2.06,1,3.1,1.42s2.09.85,3.16,1.22A57.07,57.07,0,0,0,28.46,108a57.92,57.92,0,0,1-6.75-1.22c-1.11-.28-2.22-.59-3.31-1s-2.18-.76-3.24-1.13Z"/><path class="cls-13" d="M17.33,107.17a57.89,57.89,0,0,0,6.11,2.54,57.49,57.49,0,0,0,6.39,1.78,56.91,56.91,0,0,1-6.57-1.18,60.69,60.69,0,0,1-6.4-2Z"/><path class="cls-13" d="M18.41,110.82a61.43,61.43,0,0,0,6,2.42A59.62,59.62,0,0,0,30.59,115a60.8,60.8,0,0,1-6.4-1.13A61.27,61.27,0,0,1,18,112Z"/><path class="cls-13" d="M20.87,114.46a58,58,0,0,0,11.84,4,59.69,59.69,0,0,1-12.31-2.83Z"/><path class="cls-13" d="M24.19,118.11A59.39,59.39,0,0,0,35.7,122a59.8,59.8,0,0,1-12-2.67Z"/><path class="cls-13" d="M27.49,121.75a60.53,60.53,0,0,0,11.18,3.69A61.06,61.06,0,0,1,27,122.93Z"/><path class="cls-13" d="M62.82,46.26a25.68,25.68,0,0,1-7.66-10,15.65,15.65,0,0,1-1.09-6.5,12.47,12.47,0,0,1,.63-3.34,14.74,14.74,0,0,1,1.47-3c1.19-1.84,2.51-3.38,3.46-5a23.68,23.68,0,0,0,2.28-5.41A25.34,25.34,0,0,0,62.78,7,26.88,26.88,0,0,0,62.22.94,19.14,19.14,0,0,1,64,7a21.83,21.83,0,0,1-.19,6.4,21.91,21.91,0,0,1-2.11,6.14c-1,1.95-2.4,3.59-3.41,5.24-2.18,3.13-2.37,7.14-1.29,10.9S60.43,42.87,62.82,46.26Z"/><path class="cls-13" d="M66,25a10.28,10.28,0,0,0-2,5,12.84,12.84,0,0,0,.46,5.31c.54,1.72,1.34,3.45,1.82,5.33a9.66,9.66,0,0,1-.07,5.71A13.7,13.7,0,0,0,65.26,41c-.61-1.72-1.47-3.39-2-5.27a11.68,11.68,0,0,1-.19-5.84A8.61,8.61,0,0,1,66,25Z"/></g></g></svg>