<?xml version="1.0"?>
<svg xmlns="http://www.w3.org/2000/svg" xmlns:xlink="http://www.w3.org/1999/xlink" xmlns:svgjs="http://svgjs.com/svgjs" version="1.1" width="512" height="512" x="0" y="0" viewBox="0 0 56 56" style="enable-background:new 0 0 512 512" xml:space="preserve" class=""><g><g xmlns="http://www.w3.org/2000/svg" id="Page-1" fill="none" fill-rule="evenodd"><g id="042---Espresso-Machine" fill="rgb(0,0,0)" fill-rule="nonzero"><path id="Shape" d="m15 23c-1.1045695 0-2 .8954305-2 2s.8954305 2 2 2h5.381c-.5079843-1.2849493-.5079843-2.7150507 0-4z" fill="#006944" data-original="#000000" style=""/><path id="Shape" d="m2 13v33h22v-16.056c-.7994736-.1001324-1.5533632-.4277898-2.172-.944h-3.421c1.3746353 1.1644929 2.2832136 2.7856608 2.559 4.566.0830158.6224743-.2344979 1.2298742-.793 1.517-.2156172.1145413-.4558497.1749426-.7.176-.3668825-.0003525-.720502-.1372375-.992-.384-1.5587419-1.2335476-3.4933124-1.8953465-5.481-1.875-1.9874793-.019914-3.92169865.6422384-5.48 1.876-.46715462.4164239-1.14374949.4990615-1.69739812.2073158-.55364863-.2917456-.8679909-.8965584-.78860188-1.5173158.31380487-1.9895644 1.40655107-3.7724282 3.037-4.955-1.85837199-.7788643-3.0686226-2.5960136-3.071-4.611v-6.78c-.63370515-.5642399-.9973386-1.3715062-1-2.22v-2z" fill="#006944" data-original="#000000" style=""/><path id="Shape" d="m1 11h24c.5522847 0 1-.4477153 1-1v-3c-.0044086-3.86416566-3.1358343-6.99559136-7-7h-12c-3.86416566.00440864-6.99559136 3.13583434-7 7v3c0 .5522847.44771525 1 1 1zm18-9h1c.5522847 0 1 .44771525 1 1s-.4477153 1-1 1h-1c-.5522847 0-1-.44771525-1-1s.4477153-1 1-1zm0 5h1c.5522847 0 1 .44771525 1 1s-.4477153 1-1 1h-1c-.5522847 0-1-.44771525-1-1s.4477153-1 1-1zm-5-5h1c.5522847 0 1 .44771525 1 1s-.4477153 1-1 1h-1c-.5522847 0-1-.44771525-1-1s.4477153-1 1-1zm0 5h1c.5522847 0 1 .44771525 1 1s-.4477153 1-1 1h-1c-.5522847 0-1-.44771525-1-1s.4477153-1 1-1zm-6.5-5c1.93299662 0 3.5 1.56700338 3.5 3.5s-1.56700338 3.5-3.5 3.5-3.5-1.56700338-3.5-3.5 1.56700338-3.5 3.5-3.5z" fill="#006944" data-original="#000000" style=""/><circle id="Oval" cx="7.5" cy="5.5" r="1.5" fill="#006944" data-original="#000000" style=""/><path id="Shape" d="m15 21h4v-3h-12v6c0 1.6568542 1.34314575 3 3 3h1.556c-.7214351-1.2333958-.7276679-2.7585549-.0163378-3.9978059.7113301-1.2392511 2.0314456-2.0030862 3.4603378-2.0021941z" fill="#006944" data-original="#000000" style=""/><path id="Shape" d="m13 31c1.9719896.0008277 3.908484.5246336 5.612 1.518-1.0092667-2.1802499-3.209841-3.559726-5.612-3.518-2.4020869-.0414669-4.60253144 1.3379279-5.612 3.518 1.70351603-.9933664 3.6400104-1.5171723 5.612-1.518z" fill="#006944" data-original="#000000" style=""/><path id="Shape" d="m24.5 22c-1.5114703.1519232-2.6231276 1.485912-2.5 3-.1231276 1.514088.9885297 2.8480768 2.5 3h7.423c-1.2306405-1.8106905-1.2306405-4.1893095 0-6z" fill="#006944" data-original="#000000" style=""/><ellipse id="Oval" cx="35.5" cy="25" rx="2.5" ry="3" fill="#006944" data-original="#000000" style=""/><path id="Shape" d="m0 50h6c.55228475 0 1 .4477153 1 1s-.44771525 1-1 1h-6v2c0 1.1045695.8954305 2 2 2h22c1.1045695 0 2-.8954305 2-2v-2h-6c-.5522847 0-1-.4477153-1-1s.4477153-1 1-1h6v-2h-26z" fill="#006944" data-original="#000000" style=""/><path id="Shape" d="m24 13h-2v2c-.0026614.8484938-.3662948 1.6557601-1 2.22v3.78h.828c.6186368-.5162102 1.3725264-.8438676 2.172-.944z" fill="#006944" data-original="#000000" style=""/><path id="Shape" d="m6 15c0 .5522847.44771525 1 1 1h12c.5522847 0 1-.4477153 1-1v-2h-14z" fill="#006944" data-original="#000000" style=""/><path id="Shape" d="m38.76 34c-.7130968.0043123-1.369954.387987-1.724 1.007-.013 0-.023-.007-.036-.007h-2.57c-2.0757469.0113731-3.8024029 1.5994462-3.987 3.667l-.5 6c-.090668 1.1144374.2883105 2.2160878 1.0454065 3.0388861.7570959.8227983 1.8234761 1.2919377 2.9415935 1.2941139h1.74l-.4 4.834c-.0463769.5568213.1422907 1.1076552.5203157 1.5191135.3780249.4114583.9109356.6460207 1.4696843.6468865h13.479c.5592708-.0000277 1.0929813-.2342256 1.4716681-.6457839.3786868-.4115582.5677514-.962875.5213319-1.5202161l-1.308-15.7c-.040087-.5469408.3678053-1.0241261.9143207-1.0696462.5465155-.0455201 1.0277306.3576101 1.0786793.9036462l.356 4.27 2.227-8.238zm-4.83 13c-.5588695-.0018187-1.0916446-.2366981-1.469967-.6480502-.3783225-.4113521-.5678906-.9618805-.523033-1.5189498l.5-6c.092297-1.0335007.9554018-1.8273146 1.993-1.833h2.24l-.833 10zm16.455 6.677c-.1893634.2058616-.4562903.3230048-.736.323h-2.649c-.5522847 0-1-.4477153-1-1s.4477153-1 1-1h1.562l-.162-1.95c-.040087-.5469408.3678053-1.0241261.9143207-1.0696462.5465155-.0455201 1.0277306.3576101 1.0786793.9036462l.253 3.033c.0230891.278683-.0715644.5543025-.261.76z" fill="#006944" data-original="#000000" style=""/><path id="Shape" d="m44 30c-.5522847 0-1-.4477153-1-1 .0186366-1.0157437.5073184-1.9654043 1.323-2.571.481-.441.677-.638.677-1.1s-.2-.656-.676-1.1c-.8309032-.5922319-1.3242151-1.5496379-1.3242151-2.57s.4933119-1.9777681 1.3242151-2.57c.481-.441.676-.637.676-1.094 0-.5522847.4477153-1 1-1s1 .4477153 1 1c-.0188176 1.0153391-.5084343 1.9642716-1.325 2.568-.481.441-.675.637-.675 1.095s.2.656.675 1.1c.8313245.5926202 1.3248738 1.5505695 1.3248738 2.5715s-.4935493 1.9788798-1.3248738 2.5715c-.48.441-.675.638-.675 1.1-.0005519.5518942-.4481055.9990003-1 .999z" fill="#006944" data-original="#000000" style=""/><path id="Shape" d="m50 30c-.5522847 0-1-.4477153-1-1 .0186366-1.0157437.5073184-1.9654043 1.323-2.571.481-.441.677-.638.677-1.1s-.2-.656-.676-1.1c-.8309032-.5922319-1.3242151-1.5496379-1.3242151-2.57s.4933119-1.9777681 1.3242151-2.57c.481-.441.676-.637.676-1.094 0-.5522847.4477153-1 1-1s1 .4477153 1 1c-.0188176 1.0153391-.5084343 1.9642716-1.325 2.568-.481.441-.675.637-.675 1.095s.2.656.675 1.1c.8313245.5926202 1.3248738 1.5505695 1.3248738 2.5715s-.4935493 1.9788798-1.3248738 2.5715c-.48.441-.675.638-.675 1.1-.0005519.5518942-.4481055.9990003-1 .999z" fill="#006944" data-original="#000000" style=""/></g></g></g></svg>
