<?xml version="1.0"?>
<svg xmlns="http://www.w3.org/2000/svg" xmlns:xlink="http://www.w3.org/1999/xlink" xmlns:svgjs="http://svgjs.com/svgjs" version="1.1" width="512" height="512" x="0" y="0" viewBox="0 0 58 58" style="enable-background:new 0 0 512 512" xml:space="preserve"><g><g xmlns="http://www.w3.org/2000/svg" id="Page-1" fill="none" fill-rule="evenodd"><g id="026---Bean-Sack" fill="rgb(0,0,0)" fill-rule="nonzero"><path id="Shape" d="m29.963 44.376c-1.151119-1.1220148-1.8467184-2.6300373-1.953-4.234-.1301111-2.41787-2.0602472-4.3497301-4.478-4.482-1.0920438-.0924059-2.14741-.4386016-3.082-1.011-1.2 3.079.007 7.393 3.261 10.638 4.011 4.023 9.657 4.921 12.583 2 .075-.075.137-.16.207-.239-.7021002-.4283188-1.4973721-.6804866-2.318-.735-1.5973849-.1032416-3.1002904-.7930823-4.22-1.937z" fill="#006944" data-original="#000000" style=""/><path id="Shape" d="m26.2 30.994c-1.669001-.0565567-3.2906405.560387-4.5 1.712-.075.075-.137.16-.207.239.7021002.4283188 1.4973721.6804866 2.318.735 3.2979957.2595809 5.917021 2.8798786 6.175 6.178.1301111 2.41787 2.0602472 4.3497301 4.478 4.482 1.0920438.0924059 2.14741.4386016 3.082 1.011 1.2-3.079-.007-7.393-3.261-10.638-2.1101639-2.2420333-5.0094574-3.5756724-8.085-3.719z" fill="#006944" data-original="#000000" style=""/><path id="Shape" d="m56.69 52.09c-.86-.69-1.91-1.05-2.78-1.71-1.4915672-1.1627263-2.6845281-2.6642116-3.48-4.38-1.1509616-2.6398463-1.1182084-5.6458589.09-8.26 1.9015718-4.4525755 1.9734212-9.4748495.2-13.98-.3771683-.9603862-.6292365-1.9652983-.75-2.99-2.55 1.57-6.4 2.92-12.16 3.64-2.9582764.3808881-5.9373285.577933-8.92.59h-.01c-10.73 0-17.21-2.83-20.77-5.23-.05593623 1.3665233-.33634871 2.7145303-.83 3.99-1.77342119 4.5051505-1.70157178 9.5274245.2 13.98 1.2082084 2.6141411 1.24096157 5.6201537.09 8.26-.79547186 1.7157884-1.98843281 3.2172737-3.48 4.38-.87.66-1.92 1.02-2.78 1.71-1.22435521.8800077-1.63796217 2.5133331-.98 3.87 1.1 2.1 3.56 2.25 5.83 1.89 1.73-.27 3.33-1.07 5.03-1.46 1.843913-.4641151 3.763325-.5457922 5.64-.24.9906135.2296619 1.9605748.5407184 2.9.93 2.86.99 6.28.92 9.27.92s6.41.07 9.27-.92c.9394252-.3892816 1.9093865-.7003381 2.9-.93 1.876675-.3057922 3.796087-.2241151 5.64.24 1.7.39 3.3 1.19 5.03 1.46 2.27.36 4.73.21 5.83-1.89.6579622-1.3566669.2443552-2.9899923-.98-3.87zm-18.979-3.382c-1.5823617 1.5185139-3.7077552 2.3387717-5.9 2.277-3.6085942-.1300687-7.0227351-1.6682449-9.511-4.285-4.8-4.788-5.7-11.7-2.009-15.41 3.709-3.69 10.624-2.79 15.409 2.01 4.8 4.784 5.705 11.7 2.011 15.408z" fill="#006944" data-original="#000000" style=""/><path id="Shape" d="m37.562 22.43c24.375-3.047 15.238-18.281 3.047-18.281s-8.426-3.049-18.281-4.063-23.359 7.114-16.25 15.234c0 0 7.109 10.157 31.484 7.11zm-30.162-13.116c1.356-2.986 7.112-6.314 13.205-6.314.4729044-.00059696.9455272.02310093 1.416.071 2.3139176.10772364 4.5756147.72436388 6.624 1.806 2.628 1.331 5.023 2.272 11.963 2.272 4.937 0 9.111 3.205 9.276 5.858.138 2.224-3.1 5.247-12.695 6.446-2.7527679.3530252-5.5247108.5357062-8.3.547-15.4 0-20.3-6.334-20.346-6.4l-.2-.257c-1.621-1.843-1.355-3.121-.943-4.029z" fill="#006944" data-original="#000000" style=""/><path id="Shape" d="m9.982 12.189c.024.027.046.056.067.085l.124.177c.012.011 4.687 5.549 18.71 5.549 2.6933974-.0111769 5.3835281-.188849 8.055-.532 9.2-1.149 10.977-3.852 10.947-4.336-.076-1.217-2.905-3.983-7.28-3.983-7.383 0-9.989-1.03-12.863-2.485-1.8311587-.97257749-3.8581489-1.51948883-5.93-1.6-.4009733-.04197023-.8038367-.06333166-1.207-.064-5.1 0-10.3 2.764-11.382 5.141-.15.328-.354.776.618 1.886z" fill="#006944" data-original="#000000" style=""/></g></g></g></svg>
